<svg width="55" height="50" viewBox="0 0 55 50" fill="none" xmlns="http://www.w3.org/2000/svg">
<g clip-path="url(#clip0_224_79)">
<path d="M21.2421 31.7757C21.2421 31.7757 17.8734 20.6033 30.045 17.47C42.2166 14.3368 47.792 12.0898 47.792 12.0898C47.792 12.0898 41.8083 44.7831 21.2421 31.7757Z" stroke="#333333" stroke-width="2"/>
<path d="M46.9666 12.5718C46.9666 12.5718 34.1746 26.4654 21.0293 31.7057C21.0293 31.7057 13.4671 35.3832 12.6348 39.1306" stroke="#333333" stroke-width="2"/>
<path d="M45.2936 2.33227C35.3914 -1.39188 29.235 9.42292 27.4995 11.4211C25.7641 9.42292 19.6076 -1.39188 9.70539 2.33227C-2.105 6.77948 -4.76705 31.8067 27.4917 48.4371V48.4449C59.7582 31.8067 57.0962 6.77948 45.2936 2.33227Z" stroke="#333333" stroke-width="2" stroke-linecap="round" stroke-linejoin="round"/>
</g>
<defs>
<clipPath id="clip0_224_79">
<rect width="55" height="50" fill="white"/>
</clipPath>
</defs>
</svg>
