<svg width="51" height="50" viewBox="0 0 51 50" fill="none" xmlns="http://www.w3.org/2000/svg">
<g clip-path="url(#clip0_224_85)">
<path d="M41.3248 12.6655H48.5728C49.0021 12.6655 49.3488 13.0521 49.3488 13.5307V47.312C49.3488 47.7906 49.0021 48.1772 48.5728 48.1772H41.3248C40.8955 48.1772 40.5488 47.7906 40.5488 47.312V13.5215C40.5488 13.0428 40.8955 12.6562 41.3248 12.6562V12.6655Z" stroke="white" stroke-width="2" stroke-linecap="round" stroke-linejoin="round"/>
<path d="M28.3561 21.272H35.604C36.0333 21.272 36.38 21.6586 36.38 22.1372V47.3029C36.38 47.7815 36.0333 48.1681 35.604 48.1681H28.3561C27.9268 48.1681 27.5801 47.7815 27.5801 47.3029V22.1372C27.5801 21.6586 27.9268 21.272 28.3561 21.272Z" stroke="white" stroke-width="2" stroke-linecap="round" stroke-linejoin="round"/>
<path d="M15.3956 29.8876H22.6435C23.0728 29.8876 23.4113 30.2742 23.4113 30.7437V47.3029C23.4113 47.7816 23.0645 48.1682 22.6353 48.1682H15.3873C14.958 48.1682 14.6113 47.7816 14.6113 47.3029V30.7437C14.6113 30.265 14.958 29.8784 15.3873 29.8784L15.3956 29.8876Z" stroke="white" stroke-width="2" stroke-linecap="round" stroke-linejoin="round"/>
<path d="M2.42637 38.4937H9.67435C10.1036 38.4937 10.4421 38.8803 10.4421 39.3497V47.3026C10.4421 47.7812 10.0954 48.1678 9.66609 48.1678H2.42637C1.9971 48.1678 1.65039 47.7812 1.65039 47.3026V39.3589C1.65039 38.8802 1.9971 38.4937 2.42637 38.4937Z" stroke="white" stroke-width="2" stroke-linecap="round" stroke-linejoin="round"/>
<path d="M3.77344 29.142L43.8519 3.57129" stroke="white" stroke-width="2" stroke-linecap="round" stroke-linejoin="round"/>
<path d="M45.4521 4.80273L43.4609 1.10547L47.3301 1.03125L45.4521 4.80273Z" fill="#757575" stroke="white" stroke-width="2"/>
</g>
<defs>
<clipPath id="clip0_224_85">
<rect width="51" height="50" fill="white"/>
</clipPath>
</defs>
</svg>
