<svg width="15" height="16" viewBox="0 0 15 16" fill="none" xmlns="http://www.w3.org/2000/svg">
<path d="M7.9 15.32C6.76667 15.32 5.72 15.1467 4.76 14.8C3.81333 14.44 2.98667 13.9333 2.28 13.28C1.58667 12.6267 1.04667 11.8533 0.66 10.96C0.273333 10.0667 0.08 9.08 0.08 8C0.08 6.92 0.273333 5.93333 0.66 5.04C1.04667 4.14667 1.59333 3.37333 2.3 2.72C3.00667 2.06667 3.84 1.56667 4.8 1.22C5.77333 0.86 6.84 0.68 8 0.68C9.38667 0.68 10.62 0.913333 11.7 1.38C12.7933 1.84667 13.6933 2.51333 14.4 3.38L11.38 6.04C10.94 5.53333 10.46 5.15333 9.94 4.9C9.43333 4.63333 8.86667 4.5 8.24 4.5C7.72 4.5 7.24667 4.58 6.82 4.74C6.40667 4.9 6.05333 5.13333 5.76 5.44C5.46667 5.74667 5.24 6.11333 5.08 6.54C4.92 6.96667 4.84 7.45333 4.84 8C4.84 8.52 4.92 9 5.08 9.44C5.24 9.86667 5.46667 10.2333 5.76 10.54C6.05333 10.8467 6.4 11.0867 6.8 11.26C7.21333 11.42 7.67333 11.5 8.18 11.5C8.71333 11.5 9.23333 11.4133 9.74 11.24C10.2467 11.0533 10.7867 10.74 11.36 10.3L14 13.54C13.1467 14.1133 12.1733 14.5533 11.08 14.86C9.98667 15.1667 8.92667 15.32 7.9 15.32ZM9.9 12.94V7.62H14V13.54L9.9 12.94Z" fill="white"/>
</svg>
