<svg width="40" height="51" viewBox="0 0 40 51" fill="none" xmlns="http://www.w3.org/2000/svg">
<g clip-path="url(#clip0_372_89)">
<path d="M30.6107 25.5771C30.614 22.8464 28.3998 20.6301 25.665 20.6268C22.9302 20.6234 20.7106 22.8343 20.7072 25.565C20.7039 28.2956 22.9181 30.512 25.6529 30.5153C28.3877 30.5187 30.6073 28.3077 30.6107 25.5771Z" stroke="#333333" stroke-width="2" stroke-linecap="round" stroke-linejoin="round"/>
<path d="M35.0616 25.5695C35.0616 30.7479 30.8547 34.9485 25.6685 34.9485C20.4823 34.9485 16.2754 30.7479 16.2754 25.5695C16.2754 20.3911 20.4823 16.1836 25.6685 16.1836C30.8547 16.1836 35.0616 20.3842 35.0616 25.5695Z" stroke="#333333" stroke-width="2" stroke-linecap="round" stroke-linejoin="round"/>
<path d="M30.8331 33.5918V41.6073V49.6228L25.6607 45.0504L20.4883 49.6228V41.6073V33.5918" stroke="#333333" stroke-width="2" stroke-linecap="round" stroke-linejoin="round"/>
<path d="M30.9651 41.8063H38.6203V1.37744H1.37891V41.8063H20.2686" stroke="#333333" stroke-width="2" stroke-linecap="round" stroke-linejoin="round"/>
<path d="M7.17188 7.43018H32.8891" stroke="#333333" stroke-width="2" stroke-linecap="round" stroke-linejoin="round"/>
<path d="M7.17188 13.4761H32.8891" stroke="#333333" stroke-width="2" stroke-linecap="round" stroke-linejoin="round"/>
</g>
<defs>
<clipPath id="clip0_372_89">
<rect width="40" height="51" fill="white" transform="matrix(1 0 0 -1 0 51)"/>
</clipPath>
</defs>
</svg>
