<svg width="20" height="20" viewBox="0 0 20 20" fill="none" xmlns="http://www.w3.org/2000/svg">
<path fill-rule="evenodd" clip-rule="evenodd" d="M4.27637 1.79893C3.56104 2.29911 2.91419 2.89049 2.35266 3.5562C4.64732 3.34317 7.56259 3.69103 10.9472 5.38334C14.5615 7.19044 17.4719 7.25154 19.4974 6.86084C19.3136 6.30439 19.0822 5.76959 18.8082 5.26119C16.4895 5.50574 13.517 5.18204 10.0528 3.44999C7.85299 2.35009 5.91389 1.897 4.27637 1.79893ZM17.4537 3.33332C15.6226 1.2875 12.9617 0 9.99999 0C9.13024 0 8.28634 0.111054 7.48184 0.31974C8.57144 0.617043 9.72894 1.05199 10.9472 1.66113C13.4835 2.92926 15.6732 3.33758 17.4537 3.33332ZM19.9305 8.81404C17.4834 9.29724 14.1044 9.19799 10.0528 7.17219C6.26499 5.27829 3.25022 5.30214 1.21695 5.75399C1.112 5.77729 1.00952 5.80179 0.909516 5.82729C0.643311 6.40624 0.430817 7.01504 0.278351 7.64724C0.441193 7.60374 0.609466 7.56239 0.783081 7.52379C3.24979 6.97564 6.73504 6.99944 10.9472 9.10554C14.735 10.9994 17.7498 10.9756 19.7831 10.5237C19.8528 10.5083 19.9214 10.4923 19.9889 10.4758C19.9963 10.3181 20 10.1595 20 9.99999C20 9.59874 19.9764 9.20299 19.9305 8.81404ZM19.6624 12.5861C17.2391 13.0098 13.9585 12.8472 10.0528 10.8944C6.26499 9.00049 3.25022 9.02434 1.21695 9.47619C0.765626 9.57644 0.35962 9.69859 0.001465 9.82754C0.000488501 9.88489 0 9.94239 0 9.99999C0 15.5228 4.47715 20 9.99999 20C14.6285 20 18.5227 16.8554 19.6624 12.5861Z" fill="#DB2A22"/>
</svg>
