<svg width="60" height="60" viewBox="0 0 60 60" fill="none" xmlns="http://www.w3.org/2000/svg">
<path fill-rule="evenodd" clip-rule="evenodd" d="M33.6351 1.51304C34.7439 0.542609 36.2179 0 37.9542 0C40.7549 0 42.6712 1.42174 43.874 3.14609C45.0754 1.42304 46.9917 0 49.7924 0C51.5287 0 53.004 0.542609 54.1116 1.51304C55.2021 2.46913 55.8165 3.73304 56.0448 4.99304C56.2465 6.13844 56.1467 7.31658 55.7552 8.41174C57.9402 9.17478 59.5591 11.1039 59.7652 13.5874C59.8956 15.163 60 17.28 60 20.0178C60 22.7557 59.8956 24.8726 59.7652 26.447C59.5108 29.5226 57.0884 31.7491 54.1076 31.9604C51.8587 32.1196 48.4984 32.2735 43.874 32.2735C39.2496 32.2735 35.8879 32.1196 33.639 31.9604C30.6595 31.7491 28.2371 29.5213 27.9814 26.447C27.851 24.8726 27.7466 22.7543 27.7466 20.0165C27.7466 17.2787 27.851 15.163 27.9814 13.5874C28.1875 11.1039 29.8077 9.17478 31.9914 8.41174C31.5996 7.31711 31.4998 6.13929 31.7018 4.99435C31.9301 3.73304 32.5445 2.46913 33.6351 1.51304ZM36.4306 7.91478C37.902 7.84957 39.6435 7.79739 41.6746 7.77391C41.5164 7.09107 41.2672 6.43257 40.9337 5.81609C40.271 4.63304 39.3565 3.91304 37.9542 3.91304C37.0606 3.91304 36.5323 4.17783 36.214 4.45565C35.8788 4.75043 35.6453 5.17826 35.5513 5.69217C35.3361 6.88043 35.9049 7.69957 36.3601 7.88348L36.4306 7.91478ZM46.0733 7.77391C48.1031 7.79609 49.8446 7.84957 51.316 7.91478L51.3878 7.88478C51.8418 7.69957 52.4105 6.88043 52.1953 5.69217C52.1013 5.17826 51.8691 4.75043 51.5326 4.45565C51.2143 4.17783 50.686 3.91304 49.7924 3.91304C48.3901 3.91304 47.4769 4.63304 46.813 5.81609C46.4794 6.43257 46.2315 7.09107 46.0733 7.77391ZM43.8727 10.9565C44.5646 10.9565 45.2282 11.2314 45.7175 11.7206C46.2068 12.2098 46.4816 12.8733 46.4816 13.5652V26.4652C46.4816 27.1571 46.2068 27.8206 45.7175 28.3098C45.2282 28.7991 44.5646 29.0739 43.8727 29.0739C43.1807 29.0739 42.5171 28.7991 42.0278 28.3098C41.5386 27.8206 41.2637 27.1571 41.2637 26.4652V13.5652C41.2637 12.8733 41.5386 12.2098 42.0278 11.7206C42.5171 11.2314 43.1807 10.9565 43.8727 10.9565ZM16.6324 29.2891C9.71732 29.2891 5.08249 31.1883 1.53559 32.7887C1.2233 32.9297 0.941834 33.1308 0.707266 33.3805C0.472697 33.6302 0.28962 33.9237 0.168488 34.2442C-0.0761507 34.8915 -0.0536251 35.6094 0.231109 36.24C0.372095 36.5523 0.573211 36.8337 0.822975 37.0682C1.07274 37.3028 1.36626 37.4858 1.68677 37.607C2.33409 37.8516 3.05207 37.8291 3.68278 37.5443C6.95703 36.0665 10.8 34.5065 16.6324 34.5065C18.4091 34.5065 21.4381 35.0883 24.4554 36.1957C27.5379 37.3265 30.0229 38.7926 31.1526 40.2C31.377 40.4817 31.4031 40.7217 31.3874 40.8261C31.3128 41.3129 31.1311 41.7772 30.8552 42.1852C30.7813 42.2878 30.7247 42.3565 30.6856 42.3913L29.6081 42.4787C26.7617 42.4735 25.1781 42.2857 22.3787 41.6257C21.7052 41.4667 20.9962 41.5817 20.4076 41.9455C19.819 42.3092 19.399 42.8919 19.2401 43.5652C19.0811 44.2386 19.1961 44.9475 19.5599 45.536C19.9237 46.1246 20.5064 46.5445 21.1798 46.7035C24.4058 47.4639 26.3965 47.6948 29.7112 47.6948C32.1075 47.6948 36.2323 47.147 40.0792 46.5457C44.0005 45.9326 47.8787 45.227 49.9033 44.8487C50.3546 44.7639 50.6755 44.7183 50.943 44.7117C51.0881 44.7006 51.2341 44.7165 51.3734 44.7587C51.6591 44.8657 51.9905 45.0483 52.3022 45.3665C52.6062 45.6757 52.9649 46.1883 53.2193 47.0622C53.2715 47.2383 53.2623 47.443 53.0888 47.7183C52.8971 48.0222 52.5344 48.3391 52.0544 48.5243C49.2641 49.6044 44.9841 51.1878 40.6923 52.4974C36.3001 53.837 32.2275 54.7826 29.7099 54.7826C22.0134 54.7826 16.8711 54.2648 12.9772 53.5487C9.58687 52.9239 7.10314 52.1439 4.54504 51.3404L3.38144 50.9765C2.72395 50.783 2.01672 50.856 1.41259 51.1796C0.808457 51.5033 0.355959 52.0516 0.152894 52.7061C-0.0501707 53.3607 0.0125078 54.0688 0.327383 54.6775C0.642258 55.2862 1.18404 55.7466 1.83563 55.9591L2.9614 56.3126C5.52601 57.1187 8.30978 57.9939 12.0315 58.68C16.3102 59.4678 21.7786 60 29.7099 60C33.0924 60 37.8446 58.8196 42.2133 57.4865C46.6786 56.1235 51.0904 54.4904 53.9355 53.3896C56.6423 52.3422 59.3099 49.32 58.2272 45.6026C57.2293 42.1761 55.0221 40.5587 53.2154 39.8765C51.5482 39.2465 49.8902 39.5413 48.9432 39.7187C46.9395 40.093 43.12 40.7883 39.2717 41.3883C38.3325 41.5357 37.4063 41.6752 36.5127 41.8004C36.5258 41.7309 36.5371 41.6613 36.5467 41.5917C36.8115 39.8087 36.1918 38.1443 35.2213 36.9352C33.1707 34.3787 29.5598 32.5096 26.2517 31.2965C22.8783 30.0587 19.2179 29.2878 16.6311 29.2878" fill="white"/>
</svg>
