<svg width="34" height="37" viewBox="0 0 34 37" fill="none" xmlns="http://www.w3.org/2000/svg">
<path d="M8.42906 1.07511C10.5341 2.61012 12.1274 4.76678 13.4841 6.74845L14.5474 8.31178C14.8776 8.79439 15.0287 9.37725 14.9745 9.95949C14.9203 10.5417 14.6643 11.0867 14.2507 11.5001L11.9907 13.7601L12.2291 14.2668C12.8124 15.4484 13.8191 17.1501 15.3341 18.6668C16.3819 19.6952 17.561 20.5806 18.8407 21.3001L19.4524 21.6284L19.9974 21.8984L20.2407 22.0101L22.4991 19.7501C22.9138 19.335 23.4612 19.0791 24.0456 19.027C24.63 18.9749 25.2142 19.13 25.6957 19.4651L27.3857 20.6368C29.3057 21.9868 31.3107 23.5251 32.8691 25.5218C33.1384 25.8683 33.3098 26.2808 33.3652 26.7162C33.4206 27.1516 33.3581 27.5938 33.1841 27.9968C31.7891 31.2518 28.2591 34.0234 24.5874 33.8868L24.0874 33.8601L23.6991 33.8268L23.2691 33.7768L22.8007 33.7134L22.2924 33.6284L21.7491 33.5218L21.1724 33.3934L20.5624 33.2368L19.9207 33.0534L19.2507 32.8368C16.1741 31.7934 12.2691 29.7434 8.26239 25.7368C4.25573 21.7301 2.20739 17.8268 1.16406 14.7501L0.947394 14.0801L0.76406 13.4384L0.607394 12.8284L0.477394 12.2518C0.439889 12.0712 0.404886 11.89 0.372394 11.7084L0.28906 11.2001L0.222394 10.7318L0.17406 10.3018L0.140727 9.91345L0.11406 9.41345C-0.0209397 5.75345 2.78073 2.19845 6.02073 0.810115C6.41069 0.641727 6.83773 0.577616 7.25994 0.624074C7.68216 0.670533 8.08504 0.825964 8.42906 1.07511ZM6.88406 4.08845C5.09739 5.02178 3.36739 7.15512 3.44573 9.29012L3.47906 9.83678L3.51573 10.1784L3.56406 10.5618L3.63073 10.9834L3.71573 11.4451L3.82406 11.9418L3.95739 12.4751L4.11739 13.0401L4.30739 13.6368C4.37739 13.8401 4.45184 14.0484 4.53073 14.2618L4.78739 14.9151L5.08073 15.5934C6.12739 17.8968 7.83406 20.5934 10.6224 23.3801C13.4091 26.1668 16.1057 27.8751 18.4091 28.9218L19.0874 29.2151L19.7407 29.4718C19.9541 29.5518 20.1624 29.6262 20.3657 29.6951L20.9624 29.8851L21.5291 30.0451L22.0607 30.1784L22.5574 30.2868L23.0191 30.3718L23.4424 30.4384L23.8257 30.4884L24.1657 30.5218L24.7124 30.5551C26.8191 30.6334 28.9691 28.9134 29.8991 27.1501C28.7124 25.7584 27.2391 24.6168 25.6141 23.4668L24.3674 22.5984L24.0507 22.9301L23.3741 23.6684L23.0157 24.0451C22.0391 25.0401 20.8991 25.8851 19.5324 25.3334L19.1557 25.1751L18.6957 24.9684L18.4391 24.8468L17.8757 24.5651L17.2574 24.2318C15.6941 23.3587 14.2551 22.2796 12.9791 21.0234C11.7229 19.7474 10.6438 18.3084 9.77073 16.7451L9.43739 16.1284L9.15406 15.5634L8.82739 14.8468L8.66739 14.4668C8.14906 13.1851 8.86239 12.1034 9.77406 11.1668L10.1474 10.8001L11.0757 9.94512L11.4091 9.62845L10.6207 8.47345C9.44906 6.77345 8.30406 5.24011 6.88239 4.08678L6.88406 4.08845ZM21.9891 7.06678L22.1824 7.08845C23.3956 7.30244 24.5099 7.89502 25.3655 8.78125C26.2212 9.66747 26.7744 10.8018 26.9457 12.0218C27.0068 12.4437 26.9039 12.8731 26.6581 13.2215C26.4122 13.5698 26.0423 13.8107 25.6242 13.8947C25.2062 13.9786 24.7719 13.8991 24.4107 13.6725C24.0495 13.446 23.7889 13.0896 23.6824 12.6768L23.6441 12.4851C23.577 12.0069 23.3729 11.5584 23.0564 11.1938C22.74 10.8291 22.3247 10.5639 21.8607 10.4301L21.6024 10.3718C21.1839 10.2976 20.8095 10.0663 20.5559 9.72529C20.3023 9.38424 20.1885 8.95917 20.2379 8.53702C20.2873 8.11487 20.4961 7.72754 20.8216 7.45425C21.1471 7.18096 21.5647 7.04235 21.9891 7.06678ZM22.0007 2.00012C24.6529 2.00012 27.1964 3.05368 29.0718 4.92905C30.9472 6.80441 32.0007 9.34795 32.0007 12.0001C32.0003 12.4249 31.8376 12.8335 31.546 13.1424C31.2544 13.4513 30.8558 13.6372 30.4317 13.6621C30.0077 13.687 29.5901 13.549 29.2643 13.2763C28.9386 13.0037 28.7292 12.6169 28.6791 12.1951L28.6674 12.0001C28.6672 10.3077 28.0234 8.67872 26.8665 7.4435C25.7096 6.20828 24.1262 5.4593 22.4374 5.34845L22.0007 5.33345C21.5587 5.33345 21.1348 5.15785 20.8222 4.84529C20.5097 4.53273 20.3341 4.10881 20.3341 3.66678C20.3341 3.22475 20.5097 2.80083 20.8222 2.48827C21.1348 2.17571 21.5587 2.00012 22.0007 2.00012Z" fill="black"/>
</svg>
