<svg width="20" height="18" viewBox="0 0 20 18" fill="none" xmlns="http://www.w3.org/2000/svg">
<path d="M10 0C4.478 0 0 3.446 0 7.7C0 10.434 1.855 12.829 4.64 14.2L3.697 17.628C3.67998 17.6785 3.67771 17.7328 3.69047 17.7845C3.70322 17.8362 3.73046 17.8832 3.769 17.92C3.81846 17.9696 3.88472 17.9989 3.95469 18.002C4.02467 18.0052 4.09329 17.982 4.147 17.937L8.2 15.273C8.79631 15.3573 9.39776 15.4001 10 15.401C15.522 15.401 20 11.955 20 7.701C20 3.447 15.521 0.00100136 10 0.00100136" fill="#2B1718"/>
</svg>
