<svg width="55" height="55" viewBox="0 0 55 55" fill="none" xmlns="http://www.w3.org/2000/svg">
<path fill-rule="evenodd" clip-rule="evenodd" d="M4.58203 6.875V38.9584H22.9587C22.9298 38.5771 22.9153 38.1949 22.9153 37.8125C22.9153 36.6294 23.0532 35.4784 23.3139 34.375H9.1654V13.75L25.207 27.6088L41.2487 13.75V23.3153C42.8751 23.6998 44.4248 24.3567 45.832 25.2583V6.875H4.58203ZM37.2383 11.4584L25.207 21.7709L13.1758 11.4584H37.2383ZM43.9153 46.781L44.3937 49.4345C42.403 50.0892 40.3738 50.4166 38.3061 50.4166C34.5007 50.4166 31.4046 49.3081 29.0179 47.0912C26.4773 44.7478 25.207 41.6463 25.207 37.7866C25.207 34.1452 26.4113 31.1528 28.82 28.8095C31.3055 26.4087 34.4566 25.2084 38.2731 25.2084C41.7266 25.2084 44.5807 26.1388 46.8354 27.9997C47.9572 28.9301 48.8316 30.0731 49.4585 31.4285C50.0964 32.83 50.4153 34.375 50.4153 36.0636C50.4153 38.7401 49.6729 40.8767 48.1881 42.4733C46.8574 43.8977 45.3561 44.6099 43.6843 44.6099C41.9026 44.6099 40.9237 43.8001 40.7478 42.1805C39.6479 43.8001 38.1631 44.6099 36.2934 44.6099C34.7866 44.6099 33.5933 44.1735 32.7134 43.3005C31.7566 42.3585 31.2782 41.0662 31.2781 39.4235C31.2781 38.3322 31.4953 37.2611 31.9298 36.2101C32.3642 35.159 32.9664 34.2486 33.7362 33.479C35.199 32.0202 37.0798 31.2908 39.3784 31.2907C41.1162 31.2907 42.7384 31.5722 44.2452 32.135L43.1399 39.303C43.0299 40.0037 42.9749 40.5148 42.9749 40.8364C42.9749 41.6291 43.3104 42.0254 43.9813 42.0254C44.8611 42.0254 45.6475 41.4912 46.3405 40.423C47.1873 39.1249 47.6107 37.5856 47.6107 35.8051C47.6107 33.3583 46.7858 31.4515 45.136 30.0846C43.3104 28.5798 41.0447 27.8274 38.339 27.8274C36.2493 27.8274 34.3466 28.3443 32.631 29.3782C31.0141 30.3546 29.7988 31.6756 28.985 33.3412C28.3361 34.6967 28.0116 36.2015 28.0116 37.8556C28.0116 40.9916 29.1004 43.4785 31.2781 45.3165C33.1918 46.9361 35.6224 47.7459 38.5701 47.7459C40.2528 47.7459 42.0345 47.4243 43.9153 46.781ZM40.7972 33.9271C40.2363 33.7661 39.7799 33.6857 39.428 33.6858C38.8011 33.6858 38.1796 33.8495 37.5637 34.1768C36.9478 34.5042 36.4199 34.9551 35.9799 35.5295C35.078 36.6896 34.6271 37.9876 34.6271 39.4235C34.6271 40.2277 34.8251 40.8624 35.221 41.3276C35.617 41.7928 36.1559 42.0254 36.8378 42.0254C37.8277 42.0254 38.647 41.6003 39.2959 40.7503C39.6368 40.3138 39.9063 39.4695 40.1043 38.2174L40.7972 33.9271Z" fill="#191919"/>
</svg>
