<svg width="473" height="146" viewBox="0 0 473 146" fill="none" xmlns="http://www.w3.org/2000/svg">
<g opacity="0.12" clip-path="url(#clip0_726_729)">
<path d="M124.119 131.722C126.37 131.722 128.62 131.398 131.193 130.749C133.765 130.1 136.016 129.451 138.589 128.478C141.161 127.504 143.412 126.207 145.341 124.909C147.592 123.611 149.521 121.989 151.129 120.367V97.3311H134.087C125.405 97.3311 118.974 98.9533 115.115 101.873C111.257 104.793 109.006 109.66 109.006 116.149C109.006 126.531 113.829 131.722 124.119 131.722ZM93.25 116.798C93.25 106.74 96.4655 99.2778 103.218 93.7622C109.971 88.5711 119.617 85.9756 132.158 85.9756H151.129V79.4867C151.129 64.2378 144.376 56.4511 131.193 56.4511C127.013 56.4511 122.511 57.1 117.688 58.3978C112.865 59.6956 108.684 60.9933 104.826 62.94L99.681 51.26C104.504 48.34 109.971 46.3933 115.437 44.7711C121.225 43.1489 126.691 42.5 132.158 42.5C155.309 42.5 166.885 54.8289 166.885 79.8111V143.078H154.666L152.737 132.371C147.913 136.264 142.447 139.509 136.981 141.456C131.514 143.727 126.048 144.7 121.225 144.7C112.543 144.7 105.79 142.104 100.646 137.238C95.5008 132.696 93.25 125.558 93.25 116.798Z" fill="#333333"/>
<path d="M256.647 41.8924L269.509 51.3013L237.675 91.5324L274.332 135.981L261.47 146.039L218.704 92.5057L256.647 41.8924ZM212.594 143.443H196.195V3.60795L212.594 0.0390625V143.443Z" fill="#333333"/>
<path d="M320.263 131.722C322.514 131.722 324.765 131.398 327.337 130.749C329.91 130.1 332.161 129.451 334.733 128.478C337.305 127.504 339.556 126.207 341.486 124.909C343.736 123.611 345.666 121.989 347.274 120.367V97.3311H330.231C321.55 97.3311 315.119 98.9533 311.26 101.873C307.401 104.793 305.15 109.66 305.15 116.149C305.15 126.531 310.295 131.722 320.263 131.722ZM289.395 116.798C289.395 106.74 292.61 99.2778 299.363 93.7622C306.115 88.5711 315.762 85.9756 328.302 85.9756H347.274V79.4867C347.274 64.2378 340.521 56.4511 327.337 56.4511C323.157 56.4511 318.656 57.1 313.832 58.3978C309.009 59.6956 304.829 60.9933 300.97 62.94L295.826 51.26C300.649 48.34 306.115 46.3933 311.581 44.7711C317.369 43.1489 322.836 42.5 328.302 42.5C351.454 42.5 363.029 54.8289 363.029 79.8111V143.078H350.811L348.881 132.371C344.058 136.264 338.913 139.509 333.125 141.456C327.659 143.727 322.193 144.7 317.369 144.7C308.688 144.7 301.935 142.104 296.79 137.238C291.645 132.696 289.395 125.558 289.395 116.798Z" fill="#333333"/>
<path d="M429.465 56.361C420.783 56.361 414.352 59.6055 409.529 66.0944C405.027 72.5833 402.777 81.9922 402.777 94.6455C402.777 106.974 405.027 116.383 409.529 122.872C414.031 129.361 420.783 132.281 429.465 132.281C438.147 132.281 444.9 129.037 449.401 122.872C453.903 116.383 456.154 107.299 456.154 94.6455C456.154 81.9922 453.903 72.5833 449.401 66.0944C444.9 59.6055 438.147 56.361 429.465 56.361ZM429.465 42.7344C442.97 42.7344 453.903 47.2766 461.62 56.0366C469.337 65.121 473.196 77.7744 473.196 94.321C473.196 110.868 469.337 123.197 461.62 132.281C453.903 141.041 443.292 145.583 429.465 145.583C415.96 145.583 405.027 141.041 397.31 132.281C389.593 123.521 385.734 110.868 385.734 94.321C385.734 77.7744 389.593 64.7966 397.632 56.0366C405.027 47.2766 415.96 42.7344 429.465 42.7344Z" fill="#333333"/>
<path d="M16.399 0L0 3.56889V143.404H16.399V0ZM22.5085 92.4667L65.9177 146L78.7797 135.942L41.8015 91.4933L73.6349 51.2622L60.7729 41.8533L22.5085 92.4667Z" fill="#333333"/>
</g>
<defs>
<clipPath id="clip0_726_729">
<rect width="473" height="146" fill="white"/>
</clipPath>
</defs>
</svg>
