<svg width="231" height="40" viewBox="0 0 231 40" fill="none" xmlns="http://www.w3.org/2000/svg">
<path fill-rule="evenodd" clip-rule="evenodd" d="M8.55273 3.59787C7.12207 4.59823 5.82837 5.78098 4.70532 7.1124C9.29462 6.68633 15.1252 7.38205 21.8944 10.7667C29.123 14.3809 34.9438 14.5031 38.9948 13.7217C38.6272 12.6088 38.1644 11.5392 37.6163 10.5224C32.979 11.0115 27.034 10.3641 20.1056 6.89998C15.706 4.70018 11.8278 3.79401 8.55273 3.59787ZM34.9074 6.66665C31.2453 2.575 25.9234 0 20 0C18.2605 0 16.5727 0.222107 14.9637 0.63948C17.1429 1.23409 19.4579 2.10399 21.8944 3.32227C26.967 5.85853 31.3464 6.67516 34.9074 6.66665ZM39.8609 17.6281C34.9669 18.5945 28.2088 18.396 20.1056 14.3444C12.53 10.5566 6.50043 10.6043 2.4339 11.508C2.224 11.5546 2.01904 11.6036 1.81903 11.6546C1.28662 12.8125 0.861634 14.0301 0.556702 15.2945C0.882386 15.2075 1.21893 15.1248 1.56616 15.0476C6.49957 13.9513 13.4701 13.9989 21.8944 18.2111C29.4701 21.9989 35.4996 21.9512 39.5662 21.0475C39.7055 21.0166 39.8428 20.9846 39.9778 20.9516C39.9926 20.6363 40 20.319 40 20C40 19.1975 39.9528 18.406 39.8609 17.6281ZM39.3248 25.1723C34.4783 26.0196 27.917 25.6944 20.1056 21.7888C12.53 18.001 6.50043 18.0487 2.4339 18.9524C1.53125 19.1529 0.719239 19.3972 0.00293 19.6551C0.000977 19.7698 0 19.8848 0 20C0 31.0457 8.95429 40 20 40C29.2571 40 37.0453 33.7109 39.3248 25.1723Z" fill="#FF5F63"/>
<path d="M49.64 22.128C49.128 22.128 48.712 22 48.392 21.744C48.072 21.488 47.912 21.104 47.912 20.592C47.912 20.08 48.072 19.704 48.392 19.464C48.712 19.208 49.128 19.08 49.64 19.08H67.664C68.176 19.08 68.584 19.208 68.888 19.464C69.208 19.704 69.368 20.08 69.368 20.592C69.368 21.104 69.208 21.488 68.888 21.744C68.584 22 68.176 22.128 67.664 22.128H49.64ZM58.64 14.544C59.264 14.544 59.84 14.512 60.368 14.448C60.896 14.384 61.352 14.288 61.736 14.16C62.12 14.032 62.416 13.864 62.624 13.656C62.848 13.432 62.96 13.168 62.96 12.864C62.96 12.56 62.848 12.304 62.624 12.096C62.416 11.872 62.12 11.696 61.736 11.568C61.352 11.44 60.896 11.344 60.368 11.28C59.84 11.216 59.264 11.184 58.64 11.184C58.016 11.184 57.44 11.216 56.912 11.28C56.384 11.344 55.928 11.44 55.544 11.568C55.16 11.696 54.856 11.872 54.632 12.096C54.424 12.304 54.32 12.56 54.32 12.864C54.32 13.168 54.424 13.432 54.632 13.656C54.856 13.864 55.16 14.032 55.544 14.16C55.928 14.288 56.384 14.384 56.912 14.448C57.44 14.512 58.016 14.544 58.64 14.544ZM58.64 17.472C57.616 17.472 56.624 17.4 55.664 17.256C54.704 17.096 53.848 16.84 53.096 16.488C52.344 16.12 51.736 15.64 51.272 15.048C50.824 14.456 50.6 13.728 50.6 12.864C50.6 12 50.824 11.28 51.272 10.704C51.736 10.112 52.344 9.64 53.096 9.288C53.848 8.92 54.704 8.656 55.664 8.496C56.624 8.336 57.616 8.256 58.64 8.256C59.664 8.256 60.656 8.336 61.616 8.496C62.576 8.656 63.432 8.92 64.184 9.288C64.936 9.64 65.536 10.112 65.984 10.704C66.448 11.28 66.68 12 66.68 12.864C66.68 13.728 66.448 14.456 65.984 15.048C65.536 15.64 64.936 16.12 64.184 16.488C63.432 16.84 62.576 17.096 61.616 17.256C60.656 17.4 59.664 17.472 58.64 17.472ZM50.672 24.744C50.672 24.2 50.848 23.8 51.2 23.544C51.552 23.288 52 23.16 52.544 23.16C53.088 23.16 53.536 23.288 53.888 23.544C54.256 23.8 54.44 24.2 54.44 24.744V26.88C54.44 27.056 54.528 27.144 54.704 27.144H65.504C66.048 27.144 66.464 27.264 66.752 27.504C67.056 27.744 67.208 28.136 67.208 28.68C67.208 29.224 67.056 29.616 66.752 29.856C66.464 30.096 66.048 30.216 65.504 30.216H52.736C52.016 30.216 51.488 30.048 51.152 29.712C50.832 29.392 50.672 28.872 50.672 28.152V24.744ZM79.7134 21.168C79.7134 20.656 79.8814 20.28 80.2174 20.04C80.5694 19.784 81.0174 19.656 81.5614 19.656C82.1054 19.656 82.5454 19.784 82.8814 20.04C83.2334 20.28 83.4094 20.656 83.4094 21.168V22.152H88.3054C88.8174 22.152 89.2174 22.28 89.5054 22.536C89.7934 22.776 89.9374 23.128 89.9374 23.592C89.9374 24.056 89.7934 24.416 89.5054 24.672C89.2174 24.912 88.8174 25.032 88.3054 25.032H83.4094C83.4414 25.4 83.6494 25.712 84.0334 25.968C84.4174 26.208 84.8894 26.424 85.4494 26.616C86.0094 26.792 86.6094 26.944 87.2494 27.072C87.9054 27.2 88.5134 27.32 89.0734 27.432C89.5534 27.528 89.8974 27.76 90.1054 28.128C90.3294 28.512 90.3774 28.928 90.2494 29.376C90.1214 29.824 89.8654 30.112 89.4814 30.24C89.1134 30.368 88.6734 30.392 88.1614 30.312C87.6334 30.248 87.0734 30.152 86.4814 30.024C85.9054 29.896 85.3294 29.736 84.7534 29.544C84.1774 29.368 83.6094 29.168 83.0494 28.944C82.5054 28.72 82.0094 28.464 81.5614 28.176C81.0974 28.464 80.5934 28.72 80.0494 28.944C79.5214 29.184 78.9694 29.4 78.3934 29.592C77.8174 29.784 77.2334 29.952 76.6414 30.096C76.0654 30.24 75.5054 30.352 74.9614 30.432C74.4654 30.512 74.0254 30.488 73.6414 30.36C73.2574 30.232 73.0014 29.944 72.8734 29.496C72.7454 29.048 72.7854 28.632 72.9934 28.248C73.2174 27.88 73.5694 27.648 74.0494 27.552C74.6094 27.44 75.2094 27.312 75.8494 27.168C76.4894 27.024 77.0894 26.856 77.6494 26.664C78.2094 26.456 78.6814 26.224 79.0654 25.968C79.4494 25.712 79.6574 25.4 79.6894 25.032H74.7934C74.2814 25.032 73.8814 24.912 73.5934 24.672C73.3214 24.416 73.1854 24.056 73.1854 23.592C73.1854 23.128 73.3214 22.776 73.5934 22.536C73.8814 22.28 74.2814 22.152 74.7934 22.152H79.7134V21.168ZM71.1934 10.2C71.1934 9.048 71.7774 8.472 72.9454 8.472C74.1134 8.472 74.6974 9.048 74.6974 10.2V11.256H79.2094V10.2C79.2094 9.048 79.7934 8.472 80.9614 8.472C82.1294 8.472 82.7134 9.048 82.7134 10.2V16.56C82.7134 17.344 82.5374 17.904 82.1854 18.24C81.8494 18.576 81.2894 18.744 80.5054 18.744H73.4254C72.6414 18.744 72.0734 18.576 71.7214 18.24C71.3694 17.904 71.1934 17.344 71.1934 16.56V10.2ZM85.8574 9.96C85.8574 9.4 86.0334 8.968 86.3854 8.664C86.7534 8.36 87.2174 8.208 87.7774 8.208C88.3374 8.208 88.7934 8.36 89.1454 8.664C89.5134 8.968 89.6974 9.4 89.6974 9.96V18.6C89.6974 19.16 89.5134 19.592 89.1454 19.896C88.7934 20.2 88.3374 20.352 87.7774 20.352C87.2174 20.352 86.7534 20.2 86.3854 19.896C86.0334 19.592 85.8574 19.16 85.8574 18.6V9.96ZM74.6974 15.84C74.6974 16.016 74.7774 16.104 74.9374 16.104H78.9694C79.1294 16.104 79.2094 16.016 79.2094 15.84V13.896H74.6974V15.84ZM98.8245 17.136C98.8245 17.248 98.8405 17.32 98.8725 17.352C98.9045 17.384 98.9845 17.4 99.1125 17.4H109.433C109.977 17.4 110.401 17.536 110.705 17.808C111.009 18.08 111.161 18.488 111.161 19.032C111.161 19.576 111.009 19.984 110.705 20.256C110.401 20.528 109.977 20.664 109.433 20.664H104.872V24.456H111.953C112.497 24.456 112.921 24.592 113.225 24.864C113.529 25.136 113.681 25.544 113.681 26.088C113.681 26.632 113.529 27.04 113.225 27.312C112.921 27.584 112.497 27.72 111.953 27.72H93.9525C93.4085 27.72 92.9845 27.584 92.6805 27.312C92.3765 27.04 92.2245 26.632 92.2245 26.088C92.2245 25.544 92.3765 25.136 92.6805 24.864C92.9845 24.592 93.4085 24.456 93.9525 24.456H101.033V20.664H97.3125C96.4965 20.664 95.9045 20.488 95.5365 20.136C95.1685 19.784 94.9845 19.2 94.9845 18.384V11.016C94.9845 10.456 95.1605 10.024 95.5125 9.72C95.8805 9.416 96.3445 9.264 96.9045 9.264C97.4645 9.264 97.9205 9.416 98.2725 9.72C98.6405 10.024 98.8245 10.456 98.8245 11.016V17.136ZM130.17 9.96C130.17 9.4 130.346 8.968 130.698 8.664C131.066 8.36 131.53 8.208 132.09 8.208C132.65 8.208 133.106 8.36 133.458 8.664C133.826 8.968 134.01 9.4 134.01 9.96V21.84C134.01 22.4 133.826 22.832 133.458 23.136C133.106 23.44 132.65 23.592 132.09 23.592C131.53 23.592 131.066 23.44 130.698 23.136C130.346 22.832 130.17 22.4 130.17 21.84V9.96ZM120.402 21.888C120.962 21.888 121.426 22.048 121.794 22.368C122.162 22.688 122.346 23.136 122.346 23.712V26.64C122.346 26.816 122.37 26.928 122.418 26.976C122.466 27.024 122.578 27.048 122.754 27.048H132.978C133.49 27.048 133.89 27.184 134.178 27.456C134.466 27.728 134.61 28.12 134.61 28.632C134.61 29.144 134.466 29.536 134.178 29.808C133.89 30.08 133.49 30.216 132.978 30.216H120.642C119.858 30.216 119.298 30.056 118.962 29.736C118.626 29.416 118.458 28.872 118.458 28.104V23.712C118.458 23.136 118.642 22.688 119.01 22.368C119.378 22.048 119.842 21.888 120.402 21.888ZM115.122 14.4C115.122 13.472 115.266 12.648 115.554 11.928C115.858 11.192 116.274 10.576 116.802 10.08C117.346 9.568 117.994 9.176 118.746 8.904C119.498 8.632 120.338 8.496 121.266 8.496C122.194 8.496 123.034 8.632 123.786 8.904C124.538 9.176 125.178 9.568 125.706 10.08C126.25 10.576 126.666 11.192 126.954 11.928C127.258 12.648 127.41 13.472 127.41 14.4C127.41 15.328 127.258 16.16 126.954 16.896C126.666 17.616 126.25 18.232 125.706 18.744C125.178 19.24 124.53 19.624 123.762 19.896C123.01 20.168 122.178 20.304 121.266 20.304C120.338 20.304 119.498 20.168 118.746 19.896C117.994 19.624 117.346 19.24 116.802 18.744C116.274 18.232 115.858 17.616 115.554 16.896C115.266 16.16 115.122 15.328 115.122 14.4ZM118.866 14.4C118.866 15.232 119.058 15.936 119.442 16.512C119.826 17.088 120.434 17.376 121.266 17.376C122.098 17.376 122.706 17.088 123.09 16.512C123.474 15.936 123.666 15.232 123.666 14.4C123.666 13.568 123.474 12.864 123.09 12.288C122.706 11.712 122.098 11.424 121.266 11.424C120.434 11.424 119.826 11.712 119.442 12.288C119.058 12.864 118.866 13.568 118.866 14.4ZM143.758 22.176C143.214 22.176 142.782 22.072 142.462 21.864C142.158 21.656 142.006 21.28 142.006 20.736C142.006 20.192 142.158 19.816 142.462 19.608C142.782 19.384 143.214 19.272 143.758 19.272H150.886V17.856H147.214C146.43 17.856 145.846 17.688 145.462 17.352C145.078 17 144.886 16.432 144.886 15.648V10.08C144.886 9.568 145.03 9.16 145.318 8.856C145.606 8.536 146.03 8.376 146.59 8.376C147.166 8.376 147.59 8.536 147.862 8.856C148.15 9.16 148.294 9.568 148.294 10.08V10.872H157.174V10.08C157.174 9.568 157.31 9.16 157.582 8.856C157.87 8.536 158.302 8.376 158.878 8.376C159.438 8.376 159.862 8.536 160.15 8.856C160.438 9.16 160.582 9.568 160.582 10.08V15.648C160.582 16.432 160.398 17 160.03 17.352C159.662 17.688 159.086 17.856 158.302 17.856H154.582V19.272H161.71C162.254 19.272 162.678 19.384 162.982 19.608C163.302 19.816 163.462 20.192 163.462 20.736C163.462 21.28 163.302 21.656 162.982 21.864C162.678 22.072 162.254 22.176 161.71 22.176H143.758ZM146.014 26.304C145.47 26.304 145.046 26.2 144.742 25.992C144.438 25.768 144.286 25.384 144.286 24.84C144.286 24.296 144.438 23.912 144.742 23.688C145.046 23.464 145.47 23.352 146.014 23.352H158.95C159.75 23.352 160.302 23.496 160.606 23.784C160.91 24.072 161.062 24.608 161.062 25.392V28.848C161.062 29.28 160.902 29.656 160.582 29.976C160.278 30.312 159.798 30.48 159.142 30.48C158.486 30.48 157.998 30.312 157.678 29.976C157.374 29.656 157.222 29.28 157.222 28.848V26.592C157.222 26.48 157.206 26.408 157.174 26.376C157.158 26.328 157.086 26.304 156.958 26.304H146.014ZM148.294 13.56V14.88C148.294 15.008 148.31 15.088 148.342 15.12C148.374 15.152 148.454 15.168 148.582 15.168H156.886C157.014 15.168 157.094 15.152 157.126 15.12C157.158 15.088 157.174 15.008 157.174 14.88V13.56H148.294ZM166.775 12.552C166.263 12.552 165.839 12.416 165.503 12.144C165.183 11.856 165.023 11.456 165.023 10.944C165.023 10.432 165.183 10.04 165.503 9.768C165.839 9.48 166.263 9.336 166.775 9.336H175.703C176.215 9.336 176.631 9.48 176.951 9.768C177.287 10.04 177.455 10.432 177.455 10.944C177.455 11.456 177.287 11.856 176.951 12.144C176.631 12.416 176.215 12.552 175.703 12.552H173.231V14.112C173.231 15.616 173.583 16.968 174.287 18.168C175.007 19.368 176.047 20.48 177.407 21.504C178.255 22.128 178.511 22.864 178.175 23.712C178.095 23.936 177.959 24.12 177.767 24.264C177.591 24.408 177.383 24.52 177.143 24.6C176.919 24.664 176.679 24.688 176.423 24.672C176.167 24.656 175.927 24.584 175.703 24.456C174.839 23.976 174.023 23.336 173.255 22.536C172.487 21.736 171.855 20.92 171.359 20.088C171.119 20.52 170.839 20.96 170.519 21.408C170.215 21.856 169.871 22.288 169.487 22.704C169.119 23.104 168.719 23.48 168.287 23.832C167.871 24.184 167.447 24.472 167.015 24.696C166.551 24.92 166.063 24.96 165.551 24.816C165.055 24.672 164.719 24.384 164.543 23.952C164.207 23.104 164.463 22.368 165.311 21.744C166.671 20.72 167.703 19.568 168.407 18.288C169.127 17.008 169.487 15.616 169.487 14.112V12.552H166.775ZM180.215 9.96C180.215 9.4 180.391 8.968 180.743 8.664C181.111 8.36 181.575 8.208 182.135 8.208C182.695 8.208 183.151 8.36 183.503 8.664C183.871 8.968 184.055 9.4 184.055 9.96V28.728C184.055 29.288 183.871 29.72 183.503 30.024C183.151 30.328 182.695 30.48 182.135 30.48C181.575 30.48 181.111 30.328 180.743 30.024C180.391 29.72 180.215 29.288 180.215 28.728V9.96ZM192.462 21.888C193.022 21.888 193.486 22.048 193.854 22.368C194.222 22.688 194.406 23.136 194.406 23.712V26.64C194.406 26.816 194.43 26.928 194.478 26.976C194.526 27.024 194.638 27.048 194.814 27.048H205.038C205.55 27.048 205.95 27.184 206.238 27.456C206.526 27.728 206.67 28.12 206.67 28.632C206.67 29.144 206.526 29.536 206.238 29.808C205.95 30.08 205.55 30.216 205.038 30.216H192.702C191.918 30.216 191.358 30.056 191.022 29.736C190.686 29.416 190.518 28.872 190.518 28.104V23.712C190.518 23.136 190.702 22.688 191.07 22.368C191.438 22.048 191.902 21.888 192.462 21.888ZM191.982 17.376C191.678 17.856 191.326 18.36 190.926 18.888C190.526 19.416 190.046 19.888 189.486 20.304C189.054 20.624 188.598 20.8 188.118 20.832C187.654 20.864 187.238 20.696 186.87 20.328C186.502 19.96 186.358 19.544 186.438 19.08C186.518 18.616 186.766 18.192 187.182 17.808C188.142 16.944 188.878 16.032 189.39 15.072C189.902 14.112 190.158 13.056 190.158 11.904V10.2C190.158 9.656 190.326 9.24 190.662 8.952C190.998 8.648 191.438 8.496 191.982 8.496C192.526 8.496 192.966 8.648 193.302 8.952C193.638 9.24 193.806 9.656 193.806 10.2V11.904C193.806 13.04 194.038 14.064 194.502 14.976C194.982 15.888 195.718 16.792 196.71 17.688C197.126 18.056 197.366 18.464 197.43 18.912C197.494 19.36 197.35 19.76 196.998 20.112C196.678 20.432 196.31 20.6 195.894 20.616C195.478 20.616 195.07 20.48 194.67 20.208C194.11 19.824 193.598 19.384 193.134 18.888C192.686 18.392 192.302 17.888 191.982 17.376ZM198.534 10.056C198.534 9.544 198.678 9.152 198.966 8.88C199.27 8.592 199.678 8.448 200.19 8.448C200.702 8.448 201.102 8.592 201.39 8.88C201.694 9.152 201.846 9.544 201.846 10.056V21.48C201.846 21.992 201.694 22.392 201.39 22.68C201.102 22.952 200.702 23.088 200.19 23.088C199.678 23.088 199.27 22.952 198.966 22.68C198.678 22.392 198.534 21.992 198.534 21.48V15.312H196.806C196.294 15.312 195.878 15.2 195.558 14.976C195.238 14.752 195.078 14.384 195.078 13.872C195.078 13.36 195.238 12.992 195.558 12.768C195.878 12.544 196.294 12.432 196.806 12.432H198.534V10.056ZM202.974 9.84C202.974 9.328 203.126 8.928 203.43 8.64C203.734 8.352 204.142 8.208 204.654 8.208C205.166 8.208 205.566 8.352 205.854 8.64C206.158 8.928 206.31 9.328 206.31 9.84V21.984C206.31 22.496 206.158 22.896 205.854 23.184C205.566 23.456 205.166 23.592 204.654 23.592C204.142 23.592 203.734 23.456 203.43 23.184C203.126 22.896 202.974 22.496 202.974 21.984V9.84ZM212.096 25.248C210.512 25.248 209.72 24.464 209.72 22.896V11.616C209.72 10.048 210.512 9.264 212.096 9.264H218.36C218.824 9.264 219.208 9.392 219.512 9.648C219.816 9.904 219.968 10.288 219.968 10.8C219.968 11.296 219.816 11.672 219.512 11.928C219.208 12.184 218.824 12.312 218.36 12.312H213.872C213.696 12.312 213.584 12.336 213.536 12.384C213.488 12.432 213.464 12.544 213.464 12.72V15.456H218.096C218.56 15.456 218.944 15.584 219.248 15.84C219.568 16.08 219.728 16.448 219.728 16.944C219.728 17.456 219.568 17.84 219.248 18.096C218.944 18.336 218.56 18.456 218.096 18.456H213.464V21.768C213.464 21.944 213.488 22.064 213.536 22.128C213.584 22.176 213.696 22.2 213.872 22.2H214.976C215.488 22.2 215.952 22.192 216.368 22.176C216.8 22.144 217.216 22.112 217.616 22.08C218.016 22.032 218.408 21.984 218.792 21.936C219.176 21.872 219.576 21.808 219.992 21.744C220.456 21.68 220.856 21.728 221.192 21.888C221.528 22.048 221.744 22.376 221.84 22.872C221.936 23.384 221.848 23.8 221.576 24.12C221.304 24.44 220.936 24.64 220.472 24.72C219.592 24.88 218.64 25.008 217.616 25.104C216.608 25.2 215.592 25.248 214.568 25.248H212.096ZM224.528 9.96C224.528 9.4 224.704 8.968 225.056 8.664C225.424 8.36 225.888 8.208 226.448 8.208C227.008 8.208 227.464 8.36 227.816 8.664C228.184 8.968 228.368 9.4 228.368 9.96V28.728C228.368 29.288 228.184 29.72 227.816 30.024C227.464 30.328 227.008 30.48 226.448 30.48C225.888 30.48 225.424 30.328 225.056 30.024C224.704 29.72 224.528 29.288 224.528 28.728V18.288H222.176C221.664 18.288 221.248 18.16 220.928 17.904C220.608 17.632 220.448 17.224 220.448 16.68C220.448 16.136 220.608 15.736 220.928 15.48C221.248 15.208 221.664 15.072 222.176 15.072H224.528V9.96Z" fill="#999999"/>
</svg>
