<svg width="40" height="40" viewBox="0 0 40 40" fill="none" xmlns="http://www.w3.org/2000/svg">
<rect width="40" height="40" rx="20" fill="url(#paint0_radial_860_333)"/>
<rect width="40" height="40" rx="20" fill="url(#paint1_radial_860_333)"/>
<rect width="40" height="40" rx="20" fill="url(#paint2_radial_860_333)"/>
<rect width="40" height="40" rx="20" fill="url(#paint3_radial_860_333)"/>
<path d="M20.0009 10C17.2851 10 16.9442 10.0119 15.8776 10.0604C14.813 10.1092 14.0863 10.2777 13.4504 10.525C12.7927 10.7804 12.2348 11.1221 11.679 11.6781C11.1227 12.234 10.781 12.7919 10.5248 13.4494C10.2769 14.0854 10.1081 14.8123 10.0602 15.8765C10.0125 16.9431 10 17.2842 10 20C10 22.7158 10.0121 23.0556 10.0604 24.1223C10.1094 25.1869 10.2779 25.9135 10.525 26.5494C10.7806 27.2071 11.1223 27.765 11.6783 28.3208C12.234 28.8771 12.7919 29.2196 13.4492 29.475C14.0855 29.7223 14.8123 29.8908 15.8767 29.9396C16.9434 29.9881 17.284 30 19.9997 30C22.7158 30 23.0556 29.9881 24.1222 29.9396C25.1868 29.8908 25.9143 29.7223 26.5506 29.475C27.2081 29.2196 27.7652 28.8771 28.3208 28.3208C28.8771 27.765 29.2188 27.2071 29.475 26.5496C29.7208 25.9135 29.8896 25.1867 29.9396 24.1225C29.9875 23.0558 30 22.7158 30 20C30 17.2842 29.9875 16.9433 29.9396 15.8767C29.8896 14.8121 29.7208 14.0854 29.475 13.4496C29.2188 12.7919 28.8771 12.234 28.3208 11.6781C27.7646 11.1219 27.2083 10.7802 26.55 10.525C25.9125 10.2777 25.1854 10.1092 24.1208 10.0604C23.0541 10.0119 22.7145 10 19.9978 10H20.0009ZM19.1038 11.8021C19.3701 11.8017 19.6672 11.8021 20.0009 11.8021C22.671 11.8021 22.9874 11.8117 24.0418 11.8596C25.0168 11.9042 25.546 12.0671 25.8985 12.204C26.3652 12.3852 26.6979 12.6019 27.0477 12.9519C27.3977 13.3019 27.6143 13.6352 27.796 14.1019C27.9329 14.454 28.096 14.9831 28.1404 15.9581C28.1883 17.0123 28.1987 17.329 28.1987 19.9977C28.1987 22.6665 28.1883 22.9831 28.1404 24.0373C28.0958 25.0123 27.9329 25.5415 27.796 25.8935C27.6148 26.3602 27.3977 26.6925 27.0477 27.0423C26.6977 27.3923 26.3654 27.609 25.8985 27.7902C25.5464 27.9277 25.0168 28.0902 24.0418 28.1348C22.9876 28.1827 22.671 28.1931 20.0009 28.1931C17.3307 28.1931 17.0142 28.1827 15.9601 28.1348C14.9851 28.0898 14.4559 27.9269 14.1032 27.79C13.6365 27.6088 13.3032 27.3921 12.9532 27.0421C12.6032 26.6921 12.3865 26.3596 12.2048 25.8927C12.0679 25.5406 11.9048 25.0115 11.8604 24.0365C11.8125 22.9823 11.8029 22.6656 11.8029 19.9952C11.8029 17.3248 11.8125 17.0098 11.8604 15.9556C11.905 14.9806 12.0679 14.4515 12.2048 14.099C12.3861 13.6323 12.6032 13.299 12.9532 12.949C13.3032 12.599 13.6365 12.3823 14.1032 12.2006C14.4557 12.0631 14.9851 11.9006 15.9601 11.8558C16.8826 11.8142 17.2401 11.8017 19.1038 11.7996L19.1038 11.8021ZM25.3389 13.4625C24.6764 13.4625 24.1389 13.9994 24.1389 14.6621C24.1389 15.3246 24.6764 15.8621 25.3389 15.8621C26.0014 15.8621 26.5389 15.3246 26.5389 14.6621C26.5389 13.9996 26.0014 13.4621 25.3389 13.4621L25.3389 13.4625ZM20.0009 14.8646C17.1649 14.8646 14.8655 17.164 14.8655 20C14.8655 22.836 17.1649 25.1344 20.0009 25.1344C22.837 25.1344 25.1356 22.836 25.1356 20C25.1356 17.164 22.8368 14.8646 20.0007 14.8646H20.0009ZM20.0009 16.6667C21.8418 16.6667 23.3343 18.159 23.3343 20C23.3343 21.8408 21.8418 23.3333 20.0009 23.3333C18.1599 23.3333 16.6676 21.8408 16.6676 20C16.6676 18.159 18.1599 16.6667 20.0009 16.6667Z" fill="white"/>
<defs>
<radialGradient id="paint0_radial_860_333" cx="0" cy="0" r="1" gradientTransform="matrix(-24.5982 6.93727 -4.99804 -17.7218 38.7084 18.7485)" gradientUnits="userSpaceOnUse">
<stop stop-color="#FF005F"/>
<stop offset="1" stop-color="#FC01D8"/>
</radialGradient>
<radialGradient id="paint1_radial_860_333" cx="0" cy="0" r="1" gradientUnits="userSpaceOnUse" gradientTransform="translate(10.6247 43.0808) rotate(-90) scale(31.9288 33.8757)">
<stop stop-color="#FFCC00"/>
<stop offset="0.1242" stop-color="#FFCC00"/>
<stop offset="0.5672" stop-color="#FE4A05"/>
<stop offset="0.6942" stop-color="#FF0F3F"/>
<stop offset="1" stop-color="#FE0657" stop-opacity="0"/>
</radialGradient>
<radialGradient id="paint2_radial_860_333" cx="0" cy="0" r="1" gradientTransform="matrix(6.62727 -11.419 14.8662 8.628 21.0108 39.4359)" gradientUnits="userSpaceOnUse">
<stop stop-color="#FFCC00"/>
<stop offset="1" stop-color="#FFCC00" stop-opacity="0"/>
</radialGradient>
<radialGradient id="paint3_radial_860_333" cx="0" cy="0" r="1" gradientTransform="matrix(-24.3282 6.8504 -2.33333 -8.28875 5.42714 1.62879)" gradientUnits="userSpaceOnUse">
<stop stop-color="#780CFF"/>
<stop offset="1" stop-color="#820BFF" stop-opacity="0"/>
</radialGradient>
</defs>
</svg>
