<svg width="40" height="40" viewBox="0 0 40 40" fill="none" xmlns="http://www.w3.org/2000/svg">
<rect width="40" height="40" rx="20" fill="#FFEA00"/>
<path d="M19.9975 9.95312C13.9233 9.95312 9 13.8252 9 18.5997C9 21.7054 11.0839 24.433 14.2173 25.9556C13.9892 26.8077 13.3858 29.0462 13.2641 29.5302C13.1171 30.1251 13.4821 30.115 13.7255 29.9588C13.9131 29.8327 16.7373 27.9219 17.9592 27.1001C18.6183 27.1959 19.3028 27.2513 20.0025 27.2513C26.0767 27.2513 31 23.3793 31 18.6048C31 13.8302 26.0767 9.95817 20.0025 9.95817L19.9975 9.95312Z" fill="black"/>
<path d="M15.87 16.7148C15.0689 16.7148 12.3867 16.7148 12.3867 16.7148C11.7123 16.7148 11.7174 17.8291 12.3867 17.8291H13.5326C13.5326 17.8291 13.5376 20.9348 13.5326 21.6658C13.5326 22.2003 14.7241 22.1952 14.7241 21.6658V17.8341C14.7241 17.8341 15.1145 17.8341 15.87 17.8341C16.5849 17.8341 16.5849 16.7148 15.87 16.7148Z" fill="#F6DF00"/>
<path d="M18.5538 17.0564C18.3814 16.6934 17.4028 16.517 17.1544 17.0564C16.8704 17.6715 15.8513 20.5907 15.5167 21.3671C15.2733 21.9268 16.3279 22.3805 16.5713 21.8209L16.7995 21.0243H18.8986C18.8986 21.0243 18.8276 21.0596 19.1064 21.7856C19.3295 22.3755 20.4196 21.9671 20.1965 21.3772C19.872 20.5302 18.7617 17.49 18.5588 17.0564H18.5538ZM17.1797 19.9756L17.8693 17.9892L18.5081 19.9756H17.1797Z" fill="#F6DF00"/>
<path d="M23.3518 20.9102C22.8144 20.9102 21.8307 20.9052 21.8307 20.9052C21.8307 20.9052 21.8307 17.9507 21.8307 17.2348C21.8307 16.539 20.5885 16.5441 20.5885 17.2348C20.5885 18.228 20.5936 21.4194 20.5936 21.4194C20.5936 21.4194 20.5023 22.0547 21.0499 22.0547C21.5975 22.0547 22.8144 22.0496 23.3518 22.0496C23.8893 22.0496 23.8893 20.9102 23.3518 20.9102Z" fill="#F6DF00"/>
<path d="M28.0177 21.2377L26.4155 19.1352C26.4155 19.1352 27.5056 17.9656 27.9365 17.5421C28.185 17.295 27.4092 16.5186 27.1608 16.7656C26.9174 17.0076 25.2138 18.7017 25.2138 18.7017C25.2138 18.7017 25.229 17.6328 25.2138 17.048C25.2037 16.5841 24.0324 16.6144 24.0426 17.0782C24.0527 17.5118 24.0273 21.4444 24.0273 21.7368C24.0273 22.1956 25.2037 22.1956 25.2037 21.7368C25.2037 21.2024 25.2037 20.189 25.2037 20.189L25.5484 19.9117L27.0594 21.9637C27.3636 22.362 28.327 21.641 28.0227 21.2377H28.0177Z" fill="#F6DF00"/>
</svg>
