<svg width="40" height="40" viewBox="0 0 40 40" fill="none" xmlns="http://www.w3.org/2000/svg">
<rect width="40" height="40" rx="20" fill="#ED2224"/>
<path d="M17.9545 22.9618V17.0347L23.1818 19.9984L17.9545 22.9618ZM29.582 15.1698C29.352 14.3066 28.6743 13.6269 27.8138 13.3962C26.2542 12.977 20 12.977 20 12.977C20 12.977 13.7458 12.977 12.1861 13.3962C11.3256 13.6269 10.6479 14.3066 10.4179 15.1698C10 16.7342 10 19.9983 10 19.9983C10 19.9983 10 23.2623 10.4179 24.8268C10.6479 25.6899 11.3256 26.3696 12.1861 26.6004C13.7458 27.0195 20 27.0195 20 27.0195C20 27.0195 26.2542 27.0195 27.8138 26.6004C28.6743 26.3696 29.352 25.6899 29.582 24.8268C30 23.2623 30 19.9983 30 19.9983C30 19.9983 30 16.7342 29.582 15.1698Z" fill="white"/>
</svg>
