<svg width="40" height="40" viewBox="0 0 40 40" fill="none" xmlns="http://www.w3.org/2000/svg">
<rect width="40" height="40" rx="20" fill="#53AC58"/>
<path d="M27.5246 10.7461H12.4754C10.556 10.7461 9 12.3061 9 14.2337V22.5077C9 24.4353 10.556 25.9954 12.4754 25.9954H17.6579L19.4262 28.8746C19.4262 28.8746 19.4466 28.9072 19.4834 28.9562C19.5855 29.1318 19.7774 29.2544 19.998 29.2544C20.2185 29.2544 20.4063 29.1359 20.5084 28.9603C20.5534 28.9072 20.5697 28.8746 20.5697 28.8746L22.338 25.9954H27.5246C29.444 25.9954 31 24.4353 31 22.5077V14.2337C31 12.3061 29.444 10.7461 27.5246 10.7461Z" fill="white"/>
<path d="M13.8838 16.8042C13.8838 16.8042 13.2834 16.8042 12.7403 17.3351V15.1992H11.3926V20.8105H12.7525V20.3694C12.7525 20.3694 13.0751 20.9494 13.8838 20.9494C13.8838 20.9494 15.7828 20.8799 15.7828 18.8543C15.7828 18.8543 15.7134 16.8042 13.8838 16.8042ZM13.5897 19.765C13.1119 19.765 12.7239 19.3771 12.7239 18.8992C12.7239 18.4214 13.1119 18.0334 13.5897 18.0334C14.0675 18.0334 14.4555 18.4214 14.4555 18.8992C14.4555 19.3771 14.0675 19.765 13.5897 19.765Z" fill="#E26B20"/>
<path d="M16.2168 15.0783V16.377C16.2168 16.377 16.8294 16.3484 16.8294 17.4919V20.8121H18.1281V17.1815C18.1281 17.1815 18.1852 15.0742 16.2168 15.0742" fill="#E26B20"/>
<path d="M21.3061 16.8281C21.3061 16.8281 19.0803 16.8281 19.0803 18.9068C19.0803 18.9068 19.0068 20.957 21.3061 20.957C21.3061 20.957 23.5808 20.957 23.5808 18.9068C23.5808 18.9068 23.6543 16.8281 21.3061 16.8281ZM21.3061 19.7685C20.8283 19.7685 20.4403 19.3806 20.4403 18.9027C20.4403 18.4249 20.8283 18.037 21.3061 18.037C21.7839 18.037 22.1719 18.4249 22.1719 18.9027C22.1719 19.3806 21.7839 19.7685 21.3061 19.7685Z" fill="#E26B20"/>
<path d="M27.2982 16.9635V17.3392C27.2982 17.3392 26.9102 16.8246 26.167 16.8246C26.167 16.8246 24.2598 16.7429 24.2598 18.887C24.2598 18.887 24.2394 20.884 26.1139 20.884C26.1139 20.884 26.8776 20.9167 27.2982 20.3695V20.6839C27.2982 20.6839 27.3921 21.6681 26.4406 21.6681H26.118V22.8606H26.6407C26.6407 22.8606 28.6091 22.8811 28.6091 20.7574V16.9553H27.3023L27.2982 16.9635ZM26.4937 19.7691C26.0159 19.7691 25.6279 19.3812 25.6279 18.9033C25.6279 18.4255 26.0159 18.0375 26.4937 18.0375C26.9715 18.0375 27.3595 18.4255 27.3595 18.9033C27.3595 19.3812 26.9715 19.7691 26.4937 19.7691Z" fill="#E26B20"/>
</svg>
