<svg width="512" height="512" viewBox="0 0 512 512" fill="none" xmlns="http://www.w3.org/2000/svg">
<path fill-rule="evenodd" clip-rule="evenodd" d="M109.475 46.0527C91.1626 58.8573 74.6032 73.9965 60.2282 91.0387C118.971 85.585 193.602 94.4902 280.248 137.814C372.774 184.075 447.281 185.639 499.133 175.638C494.428 161.392 488.504 147.702 481.489 134.686C422.131 140.947 346.035 132.66 257.351 88.3197C201.037 60.1623 151.395 48.5633 109.475 46.0527ZM446.815 85.3331C399.94 32.96 331.819 0 256 0C233.734 0 212.13 2.84297 191.535 8.18535C219.429 15.7963 249.061 26.931 280.248 42.525C345.177 74.9892 401.234 85.442 446.815 85.3331ZM510.22 225.64C447.576 238.009 361.073 235.469 257.351 183.608C160.384 135.124 83.2056 135.735 31.154 147.302C28.4672 147.899 25.8437 148.526 23.2836 149.179C16.4688 164 11.0289 179.585 7.12579 195.769C11.2946 194.656 15.6023 193.597 20.0469 192.609C83.1946 178.576 172.417 179.186 280.248 233.102C377.217 281.586 454.395 280.975 506.447 269.408C508.23 269.012 509.988 268.603 511.716 268.18C511.905 264.144 512 260.083 512 256C512 245.728 511.396 235.597 510.22 225.64ZM503.357 322.205C441.322 333.051 357.337 328.888 257.351 278.897C160.384 230.413 83.2056 231.023 31.154 242.591C19.6 245.157 9.20627 248.284 0.037504 251.585C0.0125056 253.053 0 254.525 0 256C0 397.385 114.615 512 256 512C374.491 512 474.18 431.5 503.357 322.205Z" fill="#DB2A22"/>
</svg>
