<svg width="80" height="80" viewBox="0 0 80 80" fill="none" xmlns="http://www.w3.org/2000/svg">
<g clip-path="url(#clip0_1298_770)">
<path d="M42.331 61H33.581C34.169 67.419 32.419 72.081 29.5 73.831H46.419C44.081 72.081 42.331 67.419 42.331 61Z" fill="#DCE6F6"/>
<path d="M42.332 61V65.081H33.582V61H42.332Z" fill="#C5D5F0"/>
<path d="M69.749 17.25V55.169H6.16797V17.25H69.749Z" fill="#74AAFF"/>
<path d="M57.737 54.581C53.103 49.814 20.469 17.25 20.469 17.25C18.082 20.421 16.668 24.355 16.668 28.625C16.668 39.097 25.152 47.581 35.624 47.581C36.7673 47.5763 37.8826 47.476 38.97 47.28L40.279 49.149C41.112 50.339 42.743 50.626 43.926 49.793L45.305 48.827L49.33 54.581H57.737Z" fill="#4F88FF"/>
<path d="M69.751 55.1719V60.4219H5.58203V55.1719H69.751Z" fill="#EDF2F8"/>
<path d="M60.7844 51.4389L54.0574 41.8279L55.6744 40.6939C56.8574 39.8679 57.1444 38.2369 56.3114 37.0539L54.4704 34.4219L41.3594 43.6059L43.2004 46.2379C44.0264 47.4209 45.6574 47.7079 46.8404 46.8819L48.2264 45.9159L54.9534 55.5269C56.0524 57.0879 58.2084 57.4729 59.7764 56.3739L59.9374 56.2619C61.4984 55.1699 61.8834 53.0069 60.7844 51.4389Z" fill="#FFAA4C"/>
<path d="M56.246 40.1269L55.805 39.4969L56.757 38.8249C56.82 38.2229 56.687 37.5929 56.309 37.0539L54.468 34.4219L43.625 42.0169L44.948 43.8999C45.774 45.0899 47.405 45.3769 48.588 44.5439L49.974 43.5779L56.701 53.1889C57.751 54.6939 59.781 55.0999 61.328 54.1689C61.524 53.2519 61.363 52.2649 60.782 51.4389L54.055 41.8279L55.672 40.6939C55.896 40.5305 56.0873 40.3415 56.246 40.1269Z" fill="#FFC960"/>
<path d="M37.956 44.0839C27.477 44.0839 19 35.6139 19 25.1279C19 14.6419 27.477 6.17188 37.956 6.17188C48.442 6.17188 56.919 14.6419 56.919 25.1279C56.919 35.6139 48.442 44.0839 37.956 44.0839Z" fill="#FFC960"/>
<path d="M37.956 40.5839C29.409 40.5839 22.5 33.6749 22.5 25.1279C22.5 16.5809 29.409 9.67188 37.956 9.67188C46.51 9.67188 53.419 16.5809 53.419 25.1279C53.419 33.6749 46.51 40.5839 37.956 40.5839Z" fill="#EDF2F8"/>
<path d="M68.602 61.5781H7.317C6.036 61.5781 5 60.5421 5 59.2681V18.3951C5 17.1211 6.036 16.0781 7.317 16.0781H19.875C20.358 16.0781 20.75 16.4701 20.75 16.9531C20.75 17.4361 20.358 17.8281 19.875 17.8281H7.317C7.002 17.8281 6.75 18.0801 6.75 18.3951V59.2681C6.75 59.5761 7.002 59.8281 7.317 59.8281H68.602C68.917 59.8281 69.169 59.5761 69.169 59.2681V18.3951C69.169 18.0801 68.917 17.8281 68.602 17.8281H56.044C55.561 17.8281 55.169 17.4361 55.169 16.9531C55.169 16.4701 55.561 16.0781 56.044 16.0781H68.602C69.876 16.0781 70.919 17.1211 70.919 18.3951V59.2681C70.919 60.5421 69.876 61.5781 68.602 61.5781Z" fill="#252D32"/>
<path d="M30.0047 74.6094C29.7387 74.6094 29.4657 74.4834 29.2977 74.2454C29.0177 73.8534 29.1017 73.3074 29.4937 73.0274C33.7287 69.9754 32.8677 61.2254 32.8607 61.1344C32.8117 60.6584 33.1617 60.2244 33.6377 60.1754C34.1207 60.1334 34.5477 60.4764 34.6037 60.9524C34.6457 61.3584 35.5627 70.8084 30.5157 74.4414C30.357 74.5534 30.1867 74.6094 30.0047 74.6094Z" fill="#252D32"/>
<path d="M46.2038 74.6117C46.0218 74.6117 45.8515 74.5557 45.6928 74.4437C40.6458 70.8107 41.5698 61.3607 41.6118 60.9547C41.6608 60.4787 42.0878 60.1217 42.5708 60.1777C43.0538 60.2267 43.4038 60.6607 43.3548 61.1367C43.3408 61.2277 42.4938 69.9847 46.7148 73.0297C47.1068 73.3097 47.1978 73.8557 46.9178 74.2477C46.7428 74.4857 46.4768 74.6117 46.2038 74.6117Z" fill="#252D32"/>
<path d="M65.957 75H9.95703C9.47403 75 9.08203 74.608 9.08203 74.125C9.08203 73.642 9.47403 73.25 9.95703 73.25H65.957C66.44 73.25 66.832 73.642 66.832 74.125C66.832 74.608 66.44 75 65.957 75Z" fill="#252D32"/>
<path d="M69.456 55.75H61.875C61.392 55.75 61 55.358 61 54.875C61 54.392 61.392 54 61.875 54H69.456C69.939 54 70.331 54.392 70.331 54.875C70.331 55.358 69.939 55.75 69.456 55.75Z" fill="#252D32"/>
<path d="M53.707 55.75H6.45703C5.97403 55.75 5.58203 55.358 5.58203 54.875C5.58203 54.392 5.97403 54 6.45703 54H53.707C54.19 54 54.582 54.392 54.582 54.875C54.582 55.358 54.19 55.75 53.707 55.75Z" fill="#252D32"/>
<path d="M37.9969 45.2469C36.8209 45.2515 35.6426 45.1489 34.4619 44.9389C29.1699 44.0079 24.5569 41.0679 21.4769 36.6649C18.3899 32.2619 17.2069 26.9209 18.1379 21.6289C19.0759 16.3299 22.0089 11.7239 26.4119 8.63688C30.8219 5.55688 36.1629 4.36688 41.4549 5.30488C46.7469 6.23588 51.3599 9.17588 54.4399 13.5789C57.5269 17.9819 58.7099 23.3229 57.7719 28.6149C56.8409 33.9069 53.9009 38.5199 49.4979 41.6069C46.0819 44.0009 42.0919 45.2469 37.9969 45.2469ZM37.9199 6.73988C34.1819 6.73988 30.5419 7.88088 27.4199 10.0719C23.4019 12.8859 20.7139 17.0999 19.8599 21.9299C19.0129 26.7669 20.0909 31.6389 22.9049 35.6569C25.7189 39.6819 29.9329 42.3629 34.7699 43.2169C39.5999 44.0709 44.4789 42.9859 48.4969 40.1719C52.5149 37.3579 55.2029 33.1439 56.0499 28.3139C56.9039 23.4769 55.8259 18.6049 53.0049 14.5799C50.1909 10.5619 45.9839 7.88088 41.1469 7.02688C40.0689 6.83555 38.9932 6.73988 37.9199 6.73988Z" fill="#252D32"/>
<path d="M45.2513 48.4052C44.0753 48.4052 42.9203 47.8522 42.1993 46.8232L40.8203 44.8422C40.5403 44.4502 40.6383 43.9042 41.0303 43.6242C41.4293 43.3512 41.9753 43.4422 42.2483 43.8412L43.6343 45.8152C44.2573 46.7042 45.4823 46.9212 46.3713 46.2982L55.1003 40.1872C55.5273 39.8862 55.8143 39.4382 55.9053 38.9202C55.9963 38.4022 55.8843 37.8842 55.5763 37.4502L54.1973 35.4762C53.9173 35.0842 54.0153 34.5382 54.4143 34.2582C54.8063 33.9852 55.3523 34.0762 55.6323 34.4752L57.0113 36.4492C57.5853 37.2612 57.8023 38.2482 57.6273 39.2212C57.4593 40.2012 56.9133 41.0552 56.1013 41.6222L47.3723 47.7332C46.7283 48.1882 45.9863 48.4052 45.2513 48.4052Z" fill="#252D32"/>
<path d="M57.5914 58.1172C56.1844 58.1172 54.8054 57.4592 53.9374 56.2202L47.2874 46.7282C47.1544 46.5322 47.1054 46.3012 47.1474 46.0702C47.1894 45.8462 47.3154 45.6362 47.5044 45.5032L53.9584 40.9882C54.3574 40.7082 54.9034 40.8062 55.1764 41.1982L61.8264 50.6972C63.2334 52.7062 62.7434 55.4852 60.7344 56.8922L60.1394 57.3122C59.3624 57.8582 58.4734 58.1172 57.5914 58.1172ZM49.2264 46.4412L55.3724 55.2192C56.2264 56.4372 57.9134 56.7312 59.1314 55.8842L59.7334 55.4572C60.9514 54.6102 61.2454 52.9232 60.3984 51.7052L54.2454 42.9202L49.2264 46.4412Z" fill="#252D32"/>
<path d="M28.625 31.25C28.142 31.25 27.75 30.858 27.75 30.375V19.875C27.75 19.392 28.142 19 28.625 19C29.108 19 29.5 19.392 29.5 19.875V30.375C29.5 30.858 29.108 31.25 28.625 31.25Z" fill="#252D32"/>
<path d="M32.707 31.25C32.224 31.25 31.832 30.858 31.832 30.375V19.875C31.832 19.392 32.224 19 32.707 19C33.19 19 33.582 19.392 33.582 19.875V30.375C33.582 30.858 33.19 31.25 32.707 31.25Z" fill="#252D32"/>
<path d="M39.707 31.25C39.224 31.25 38.832 30.858 38.832 30.375V19.875C38.832 19.392 39.224 19 39.707 19C40.19 19 40.582 19.392 40.582 19.875V30.375C40.582 30.858 40.19 31.25 39.707 31.25Z" fill="#252D32"/>
<path d="M43.793 31.25C43.31 31.25 42.918 30.858 42.918 30.375V19.875C42.918 19.392 43.31 19 43.793 19C44.276 19 44.668 19.392 44.668 19.875V30.375C44.668 30.858 44.276 31.25 43.793 31.25Z" fill="#252D32"/>
<path d="M47.875 31.25C47.392 31.25 47 30.858 47 30.375V19.875C47 19.392 47.392 19 47.875 19C48.358 19 48.75 19.392 48.75 19.875V30.375C48.75 30.858 48.358 31.25 47.875 31.25Z" fill="#252D32"/>
</g>
<defs>
<clipPath id="clip0_1298_770">
<rect width="70" height="70" fill="white" transform="translate(5 5)"/>
</clipPath>
</defs>
</svg>
