<svg width="70" height="70" viewBox="0 0 70 70" fill="none" xmlns="http://www.w3.org/2000/svg">
<g clip-path="url(#clip0_1285_2338)">
<path d="M37.331 56H28.581C29.169 62.419 27.419 67.081 24.5 68.831H41.419C39.081 67.081 37.331 62.419 37.331 56Z" fill="#DCE6F6"/>
<path d="M37.332 56V60.081H28.582V56H37.332Z" fill="#C5D5F0"/>
<path d="M64.749 12.25V50.169H1.16797V12.25H64.749Z" fill="#74AAFF"/>
<path d="M52.737 49.581C48.103 44.814 15.469 12.25 15.469 12.25C13.082 15.421 11.668 19.355 11.668 23.625C11.668 34.097 20.152 42.581 30.624 42.581C31.7673 42.5763 32.8826 42.476 33.97 42.28L35.279 44.149C36.112 45.339 37.743 45.626 38.926 44.793L40.305 43.827L44.33 49.581H52.737Z" fill="#4F88FF"/>
<path d="M64.751 50.1719V55.4219H0.582031V50.1719H64.751Z" fill="#EDF2F8"/>
<path d="M55.7844 46.4389L49.0574 36.8279L50.6744 35.6939C51.8574 34.8679 52.1444 33.2369 51.3114 32.0539L49.4704 29.4219L36.3594 38.6059L38.2004 41.2379C39.0264 42.4209 40.6574 42.7079 41.8404 41.8819L43.2264 40.9159L49.9534 50.5269C51.0524 52.0879 53.2084 52.4729 54.7764 51.3739L54.9374 51.2619C56.4984 50.1699 56.8834 48.0069 55.7844 46.4389Z" fill="#FFAA4C"/>
<path d="M51.246 35.1269L50.805 34.4969L51.757 33.8249C51.82 33.2229 51.687 32.5929 51.309 32.0539L49.468 29.4219L38.625 37.0169L39.948 38.8999C40.774 40.0899 42.405 40.3769 43.588 39.5439L44.974 38.5779L51.701 48.1889C52.751 49.6939 54.781 50.0999 56.328 49.1689C56.524 48.2519 56.363 47.2649 55.782 46.4389L49.055 36.8279L50.672 35.6939C50.896 35.5305 51.0873 35.3415 51.246 35.1269Z" fill="#FFC960"/>
<path d="M32.956 39.0839C22.477 39.0839 14 30.6139 14 20.1279C14 9.64188 22.477 1.17188 32.956 1.17188C43.442 1.17188 51.919 9.64188 51.919 20.1279C51.919 30.6139 43.442 39.0839 32.956 39.0839Z" fill="#FFC960"/>
<path d="M32.956 35.5839C24.409 35.5839 17.5 28.6749 17.5 20.1279C17.5 11.5809 24.409 4.67188 32.956 4.67188C41.51 4.67188 48.419 11.5809 48.419 20.1279C48.419 28.6749 41.51 35.5839 32.956 35.5839Z" fill="#EDF2F8"/>
<path d="M63.602 56.5781H2.317C1.036 56.5781 0 55.5421 0 54.2681V13.3951C0 12.1211 1.036 11.0781 2.317 11.0781H14.875C15.358 11.0781 15.75 11.4701 15.75 11.9531C15.75 12.4361 15.358 12.8281 14.875 12.8281H2.317C2.002 12.8281 1.75 13.0801 1.75 13.3951V54.2681C1.75 54.5761 2.002 54.8281 2.317 54.8281H63.602C63.917 54.8281 64.169 54.5761 64.169 54.2681V13.3951C64.169 13.0801 63.917 12.8281 63.602 12.8281H51.044C50.561 12.8281 50.169 12.4361 50.169 11.9531C50.169 11.4701 50.561 11.0781 51.044 11.0781H63.602C64.876 11.0781 65.919 12.1211 65.919 13.3951V54.2681C65.919 55.5421 64.876 56.5781 63.602 56.5781Z" fill="#252D32"/>
<path d="M25.0047 69.6094C24.7387 69.6094 24.4657 69.4834 24.2977 69.2454C24.0177 68.8534 24.1017 68.3074 24.4937 68.0274C28.7287 64.9754 27.8677 56.2254 27.8607 56.1344C27.8117 55.6584 28.1617 55.2244 28.6377 55.1754C29.1207 55.1334 29.5477 55.4764 29.6037 55.9524C29.6457 56.3584 30.5627 65.8084 25.5157 69.4414C25.357 69.5534 25.1867 69.6094 25.0047 69.6094Z" fill="#252D32"/>
<path d="M41.2038 69.6117C41.0218 69.6117 40.8515 69.5557 40.6928 69.4437C35.6458 65.8107 36.5698 56.3607 36.6118 55.9547C36.6608 55.4787 37.0878 55.1217 37.5708 55.1777C38.0538 55.2267 38.4038 55.6607 38.3548 56.1367C38.3408 56.2277 37.4938 64.9847 41.7148 68.0297C42.1068 68.3097 42.1978 68.8557 41.9178 69.2477C41.7428 69.4857 41.4768 69.6117 41.2038 69.6117Z" fill="#252D32"/>
<path d="M60.957 70H4.95703C4.47403 70 4.08203 69.608 4.08203 69.125C4.08203 68.642 4.47403 68.25 4.95703 68.25H60.957C61.44 68.25 61.832 68.642 61.832 69.125C61.832 69.608 61.44 70 60.957 70Z" fill="#252D32"/>
<path d="M64.456 50.75H56.875C56.392 50.75 56 50.358 56 49.875C56 49.392 56.392 49 56.875 49H64.456C64.939 49 65.331 49.392 65.331 49.875C65.331 50.358 64.939 50.75 64.456 50.75Z" fill="#252D32"/>
<path d="M48.707 50.75H1.45703C0.974031 50.75 0.582031 50.358 0.582031 49.875C0.582031 49.392 0.974031 49 1.45703 49H48.707C49.19 49 49.582 49.392 49.582 49.875C49.582 50.358 49.19 50.75 48.707 50.75Z" fill="#252D32"/>
<path d="M32.9969 40.2469C31.8209 40.2515 30.6426 40.1489 29.4619 39.9389C24.1699 39.0079 19.5569 36.0679 16.4769 31.6649C13.3899 27.2619 12.2069 21.9209 13.1379 16.6289C14.0759 11.3299 17.0089 6.72388 21.4119 3.63688C25.8219 0.556879 31.1629 -0.633121 36.4549 0.304879C41.7469 1.23588 46.3599 4.17588 49.4399 8.57888C52.5269 12.9819 53.7099 18.3229 52.7719 23.6149C51.8409 28.9069 48.9009 33.5199 44.4979 36.6069C41.0819 39.0009 37.0919 40.2469 32.9969 40.2469ZM32.9199 1.73988C29.1819 1.73988 25.5419 2.88088 22.4199 5.07188C18.4019 7.88588 15.7139 12.0999 14.8599 16.9299C14.0129 21.7669 15.0909 26.6389 17.9049 30.6569C20.7189 34.6819 24.9329 37.3629 29.7699 38.2169C34.5999 39.0709 39.4789 37.9859 43.4969 35.1719C47.5149 32.3579 50.2029 28.1439 51.0499 23.3139C51.9039 18.4769 50.8259 13.6049 48.0049 9.57988C45.1909 5.56188 40.9839 2.88088 36.1469 2.02688C35.0689 1.83555 33.9932 1.73988 32.9199 1.73988Z" fill="#252D32"/>
<path d="M40.2513 43.4052C39.0753 43.4052 37.9203 42.8522 37.1993 41.8232L35.8203 39.8422C35.5403 39.4502 35.6383 38.9042 36.0303 38.6242C36.4293 38.3512 36.9753 38.4422 37.2483 38.8412L38.6343 40.8152C39.2573 41.7042 40.4823 41.9212 41.3713 41.2982L50.1003 35.1872C50.5273 34.8862 50.8143 34.4382 50.9053 33.9202C50.9963 33.4022 50.8843 32.8842 50.5763 32.4502L49.1973 30.4762C48.9173 30.0842 49.0153 29.5382 49.4143 29.2582C49.8063 28.9852 50.3523 29.0762 50.6323 29.4752L52.0113 31.4492C52.5853 32.2612 52.8023 33.2482 52.6273 34.2212C52.4593 35.2012 51.9133 36.0552 51.1013 36.6222L42.3723 42.7332C41.7283 43.1882 40.9863 43.4052 40.2513 43.4052Z" fill="#252D32"/>
<path d="M52.5914 53.1172C51.1844 53.1172 49.8054 52.4592 48.9374 51.2202L42.2874 41.7282C42.1544 41.5322 42.1054 41.3012 42.1474 41.0702C42.1894 40.8462 42.3154 40.6362 42.5044 40.5032L48.9584 35.9882C49.3574 35.7082 49.9034 35.8062 50.1764 36.1982L56.8264 45.6972C58.2334 47.7062 57.7434 50.4852 55.7344 51.8922L55.1394 52.3122C54.3624 52.8582 53.4734 53.1172 52.5914 53.1172ZM44.2264 41.4412L50.3724 50.2192C51.2264 51.4372 52.9134 51.7312 54.1314 50.8842L54.7334 50.4572C55.9514 49.6102 56.2454 47.9232 55.3984 46.7052L49.2454 37.9202L44.2264 41.4412Z" fill="#252D32"/>
<path d="M23.625 26.25C23.142 26.25 22.75 25.858 22.75 25.375V14.875C22.75 14.392 23.142 14 23.625 14C24.108 14 24.5 14.392 24.5 14.875V25.375C24.5 25.858 24.108 26.25 23.625 26.25Z" fill="#252D32"/>
<path d="M27.707 26.25C27.224 26.25 26.832 25.858 26.832 25.375V14.875C26.832 14.392 27.224 14 27.707 14C28.19 14 28.582 14.392 28.582 14.875V25.375C28.582 25.858 28.19 26.25 27.707 26.25Z" fill="#252D32"/>
<path d="M34.707 26.25C34.224 26.25 33.832 25.858 33.832 25.375V14.875C33.832 14.392 34.224 14 34.707 14C35.19 14 35.582 14.392 35.582 14.875V25.375C35.582 25.858 35.19 26.25 34.707 26.25Z" fill="#252D32"/>
<path d="M38.793 26.25C38.31 26.25 37.918 25.858 37.918 25.375V14.875C37.918 14.392 38.31 14 38.793 14C39.276 14 39.668 14.392 39.668 14.875V25.375C39.668 25.858 39.276 26.25 38.793 26.25Z" fill="#252D32"/>
<path d="M42.875 26.25C42.392 26.25 42 25.858 42 25.375V14.875C42 14.392 42.392 14 42.875 14C43.358 14 43.75 14.392 43.75 14.875V25.375C43.75 25.858 43.358 26.25 42.875 26.25Z" fill="#252D32"/>
</g>
<defs>
<clipPath id="clip0_1285_2338">
<rect width="70" height="70" fill="white"/>
</clipPath>
</defs>
</svg>
