<svg width="80" height="80" viewBox="0 0 80 80" fill="none" xmlns="http://www.w3.org/2000/svg">
<path d="M49.6933 73.3333H12.9733C11.3333 73.3333 10 72 10 70.36V14.9733C10 13.3333 11.3333 12 12.9733 12H49.6933C51.3333 12 52.6667 13.3333 52.6667 14.9733V70.36C52.6667 72 51.3333 73.3333 49.6933 73.3333Z" fill="#FFAA4C"/>
<path d="M48.78 70.6667H11.22C10.5467 70.6667 10 70.12 10 69.4467V13.22C10 12.5467 10.5467 12 11.22 12H48.78C49.4533 12 50 12.5467 50 13.22V69.4467C50 70.12 49.4533 70.6667 48.78 70.6667Z" fill="#FFC960"/>
<path d="M66.972 67.3333H53.332V18H66.972C68.6454 18 69.9987 19.3533 69.9987 21.0267V64.3067C69.9987 65.98 68.6454 67.3333 66.972 67.3333Z" fill="#C5D5F0"/>
<path d="M66.972 64.6667H53.332V18H66.972C68.6454 18 69.9987 19.3533 69.9987 21.0267V61.64C69.9987 63.3133 68.6454 64.6667 66.972 64.6667Z" fill="#D5E1EF"/>
<path d="M64.668 68H58.668V18H64.668V68Z" fill="#4F88FF"/>
<path d="M64.668 64.6667H58.668V18H64.668V64.6667Z" fill="#74AAFF"/>
<path d="M46.6667 40H16V26H46.6667V40Z" fill="#4F88FF"/>
<path d="M46.6667 40H18V28H46.6667V40Z" fill="#74AAFF"/>
<path d="M31.0017 37.3303C30.735 37.3303 30.4817 37.2236 30.295 37.0369L26.295 33.0369C25.9017 32.6436 25.9017 32.0169 26.295 31.6236C26.6883 31.2303 27.315 31.2303 27.7083 31.6236L30.9217 34.8303L35.555 29.0369C35.9017 28.6103 36.5283 28.5369 36.9617 28.8836C37.3883 29.2303 37.4617 29.8569 37.115 30.2903L31.7817 36.9569C31.6017 37.1769 31.3417 37.3103 31.055 37.3303C31.0372 37.3303 31.0194 37.3303 31.0017 37.3303Z" fill="white"/>
<path d="M42.6667 16.6667H20V6H42.6667V16.6667Z" fill="#D5E1EF"/>
<path d="M40.6667 14.6667H20V6H40.6667V14.6667Z" fill="#EDF2F8"/>
<path d="M44.6654 47.3307C44.6654 48.8041 43.472 49.9974 41.9987 49.9974C40.5254 49.9974 39.332 48.8041 39.332 47.3307C39.332 45.8574 40.5254 44.6641 41.9987 44.6641C43.472 44.6641 44.6654 45.8574 44.6654 47.3307Z" fill="#FF5F5F"/>
<path d="M44.6654 66.0026C44.6654 67.4759 43.472 68.6693 41.9987 68.6693C40.5254 68.6693 39.332 67.4759 39.332 66.0026C39.332 64.5293 40.5254 63.3359 41.9987 63.3359C43.472 63.3359 44.6654 64.5293 44.6654 66.0026Z" fill="#74AAFF"/>
<path d="M44.6654 56.6667C44.6654 58.14 43.472 59.3333 41.9987 59.3333C40.5254 59.3333 39.332 58.14 39.332 56.6667C39.332 55.1933 40.5254 54 41.9987 54C43.472 54 44.6654 55.1933 44.6654 56.6667Z" fill="#D5E1EF"/>
<path d="M23.3333 47.3307C23.3333 48.8041 22.14 49.9974 20.6667 49.9974C19.1933 49.9974 18 48.8041 18 47.3307C18 45.8574 19.1933 44.6641 20.6667 44.6641C22.14 44.6641 23.3333 45.8574 23.3333 47.3307Z" fill="#FFAA4C"/>
<path d="M34.0013 47.3307C34.0013 48.8041 32.808 49.9974 31.3346 49.9974C29.8613 49.9974 28.668 48.8041 28.668 47.3307C28.668 45.8574 29.8613 44.6641 31.3346 44.6641C32.808 44.6641 34.0013 45.8574 34.0013 47.3307Z" fill="#FFAA4C"/>
<path d="M34.0013 56.6667C34.0013 58.14 32.808 59.3333 31.3346 59.3333C29.8613 59.3333 28.668 58.14 28.668 56.6667C28.668 55.1933 29.8613 54 31.3346 54C32.808 54 34.0013 55.1933 34.0013 56.6667Z" fill="#FFAA4C"/>
<path d="M23.3333 56.6667C23.3333 58.14 22.14 59.3333 20.6667 59.3333C19.1933 59.3333 18 58.14 18 56.6667C18 55.1933 19.1933 54 20.6667 54C22.14 54 23.3333 55.1933 23.3333 56.6667Z" fill="#FFAA4C"/>
<path d="M23.3333 66.0026C23.3333 67.4759 22.14 68.6693 20.6667 68.6693C19.1933 68.6693 18 67.4759 18 66.0026C18 64.5293 19.1933 63.3359 20.6667 63.3359C22.14 63.3359 23.3333 64.5293 23.3333 66.0026Z" fill="#FFAA4C"/>
<path d="M34.0013 66.0026C34.0013 67.4759 32.808 68.6693 31.3346 68.6693C29.8613 68.6693 28.668 67.4759 28.668 66.0026C28.668 64.5293 29.8613 63.3359 31.3346 63.3359C32.808 63.3359 34.0013 64.5293 34.0013 66.0026Z" fill="#FFAA4C"/>
<path d="M49.8413 74.6641H12.828C10.5346 74.6641 8.66797 72.7707 8.66797 70.4374V14.8907C8.66797 12.5574 10.5346 10.6641 12.828 10.6641H19.668C20.2213 10.6641 20.668 11.1107 20.668 11.6641C20.668 12.2174 20.2213 12.6641 19.668 12.6641H12.828C11.6346 12.6641 10.668 13.6641 10.668 14.8907V70.4374C10.668 71.6641 11.6346 72.6641 12.828 72.6641H49.8413C51.0346 72.6641 52.0013 71.6641 52.0013 70.4374V14.8907C52.0013 13.6641 51.0346 12.6641 49.8413 12.6641H43.0013C42.448 12.6641 42.0013 12.2174 42.0013 11.6641C42.0013 11.1107 42.448 10.6641 43.0013 10.6641H49.8413C52.1346 10.6641 54.0013 12.5574 54.0013 14.8907V70.4374C54.0013 72.7707 52.1346 74.6641 49.8413 74.6641Z" fill="#252D32"/>
<path d="M51.9987 21.9974H9.9987C9.63203 21.9974 9.33203 21.6974 9.33203 21.3307C9.33203 20.9641 9.63203 20.6641 9.9987 20.6641H51.9987C52.3654 20.6641 52.6654 20.9641 52.6654 21.3307C52.6654 21.6974 52.3654 21.9974 51.9987 21.9974Z" fill="#252D32"/>
<path d="M45.3333 17.3333H16.6667C16.3 17.3333 16 17.0333 16 16.6667C16 16.3 16.3 16 16.6667 16H45.3333C45.7 16 46 16.3 46 16.6667C46 17.0333 45.7 17.3333 45.3333 17.3333Z" fill="#252D32"/>
<path d="M42.6654 17.3359H19.9987C19.632 17.3359 19.332 17.0359 19.332 16.6693V6.0026C19.332 5.63594 19.632 5.33594 19.9987 5.33594H42.6654C43.032 5.33594 43.332 5.63594 43.332 6.0026V16.6693C43.332 17.0359 43.032 17.3359 42.6654 17.3359ZM20.6654 16.0026H41.9987V6.66927H20.6654V16.0026Z" fill="#252D32"/>
<path d="M46.6654 40.6693H15.9987C15.632 40.6693 15.332 40.3693 15.332 40.0026V26.0026C15.332 25.6359 15.632 25.3359 15.9987 25.3359H46.6654C47.032 25.3359 47.332 25.6359 47.332 26.0026V40.0026C47.332 40.3693 47.032 40.6693 46.6654 40.6693ZM16.6654 39.3359H45.9987V26.6693H16.6654V39.3359Z" fill="#252D32"/>
<path d="M20.6654 50.6667C18.8254 50.6667 17.332 49.1733 17.332 47.3333C17.332 45.4933 18.8254 44 20.6654 44C22.5054 44 23.9987 45.4933 23.9987 47.3333C23.9987 49.1733 22.5054 50.6667 20.6654 50.6667ZM20.6654 45.3333C19.5654 45.3333 18.6654 46.2333 18.6654 47.3333C18.6654 48.4333 19.5654 49.3333 20.6654 49.3333C21.7654 49.3333 22.6654 48.4333 22.6654 47.3333C22.6654 46.2333 21.7654 45.3333 20.6654 45.3333Z" fill="#252D32"/>
<path d="M31.3333 50.6667C29.4933 50.6667 28 49.1733 28 47.3333C28 45.4933 29.4933 44 31.3333 44C33.1733 44 34.6667 45.4933 34.6667 47.3333C34.6667 49.1733 33.1733 50.6667 31.3333 50.6667ZM31.3333 45.3333C30.2333 45.3333 29.3333 46.2333 29.3333 47.3333C29.3333 48.4333 30.2333 49.3333 31.3333 49.3333C32.4333 49.3333 33.3333 48.4333 33.3333 47.3333C33.3333 46.2333 32.4333 45.3333 31.3333 45.3333Z" fill="#252D32"/>
<path d="M42.0013 50.6667C40.1613 50.6667 38.668 49.1733 38.668 47.3333C38.668 45.4933 40.1613 44 42.0013 44C43.8413 44 45.3346 45.4933 45.3346 47.3333C45.3346 49.1733 43.8413 50.6667 42.0013 50.6667ZM42.0013 45.3333C40.9013 45.3333 40.0013 46.2333 40.0013 47.3333C40.0013 48.4333 40.9013 49.3333 42.0013 49.3333C43.1013 49.3333 44.0013 48.4333 44.0013 47.3333C44.0013 46.2333 43.1013 45.3333 42.0013 45.3333Z" fill="#252D32"/>
<path d="M20.6654 60.0026C18.8254 60.0026 17.332 58.5093 17.332 56.6693C17.332 54.8293 18.8254 53.3359 20.6654 53.3359C22.5054 53.3359 23.9987 54.8293 23.9987 56.6693C23.9987 58.5093 22.5054 60.0026 20.6654 60.0026ZM20.6654 54.6693C19.5654 54.6693 18.6654 55.5693 18.6654 56.6693C18.6654 57.7693 19.5654 58.6693 20.6654 58.6693C21.7654 58.6693 22.6654 57.7693 22.6654 56.6693C22.6654 55.5693 21.7654 54.6693 20.6654 54.6693Z" fill="#252D32"/>
<path d="M31.3333 60.0026C29.4933 60.0026 28 58.5093 28 56.6693C28 54.8293 29.4933 53.3359 31.3333 53.3359C33.1733 53.3359 34.6667 54.8293 34.6667 56.6693C34.6667 58.5093 33.1733 60.0026 31.3333 60.0026ZM31.3333 54.6693C30.2333 54.6693 29.3333 55.5693 29.3333 56.6693C29.3333 57.7693 30.2333 58.6693 31.3333 58.6693C32.4333 58.6693 33.3333 57.7693 33.3333 56.6693C33.3333 55.5693 32.4333 54.6693 31.3333 54.6693Z" fill="#252D32"/>
<path d="M42.0013 60.0026C40.1613 60.0026 38.668 58.5093 38.668 56.6693C38.668 54.8293 40.1613 53.3359 42.0013 53.3359C43.8413 53.3359 45.3346 54.8293 45.3346 56.6693C45.3346 58.5093 43.8413 60.0026 42.0013 60.0026ZM42.0013 54.6693C40.9013 54.6693 40.0013 55.5693 40.0013 56.6693C40.0013 57.7693 40.9013 58.6693 42.0013 58.6693C43.1013 58.6693 44.0013 57.7693 44.0013 56.6693C44.0013 55.5693 43.1013 54.6693 42.0013 54.6693Z" fill="#252D32"/>
<path d="M20.6654 69.3307C18.8254 69.3307 17.332 67.8374 17.332 65.9974C17.332 64.1574 18.8254 62.6641 20.6654 62.6641C22.5054 62.6641 23.9987 64.1574 23.9987 65.9974C23.9987 67.8374 22.5054 69.3307 20.6654 69.3307ZM20.6654 63.9974C19.5654 63.9974 18.6654 64.8974 18.6654 65.9974C18.6654 67.0974 19.5654 67.9974 20.6654 67.9974C21.7654 67.9974 22.6654 67.0974 22.6654 65.9974C22.6654 64.8974 21.7654 63.9974 20.6654 63.9974Z" fill="#252D32"/>
<path d="M31.3333 69.3307C29.4933 69.3307 28 67.8374 28 65.9974C28 64.1574 29.4933 62.6641 31.3333 62.6641C33.1733 62.6641 34.6667 64.1574 34.6667 65.9974C34.6667 67.8374 33.1733 69.3307 31.3333 69.3307ZM31.3333 63.9974C30.2333 63.9974 29.3333 64.8974 29.3333 65.9974C29.3333 67.0974 30.2333 67.9974 31.3333 67.9974C32.4333 67.9974 33.3333 67.0974 33.3333 65.9974C33.3333 64.8974 32.4333 63.9974 31.3333 63.9974Z" fill="#252D32"/>
<path d="M42.0013 69.3307C40.1613 69.3307 38.668 67.8374 38.668 65.9974C38.668 64.1574 40.1613 62.6641 42.0013 62.6641C43.8413 62.6641 45.3346 64.1574 45.3346 65.9974C45.3346 67.8374 43.8413 69.3307 42.0013 69.3307ZM42.0013 63.9974C40.9013 63.9974 40.0013 64.8974 40.0013 65.9974C40.0013 67.0974 40.9013 67.9974 42.0013 67.9974C43.1013 67.9974 44.0013 67.0974 44.0013 65.9974C44.0013 64.8974 43.1013 63.9974 42.0013 63.9974Z" fill="#252D32"/>
<path d="M67.2 68.6641H53C52.4467 68.6641 52 68.2174 52 67.6641V17.6641C52 17.1107 52.4467 16.6641 53 16.6641H67.2C69.48 16.6641 71.3333 18.5174 71.3333 20.7974V64.5307C71.3333 66.8107 69.48 68.6641 67.2 68.6641ZM54 66.6641H67.2C68.3733 66.6641 69.3333 65.7041 69.3333 64.5307V20.7974C69.3333 19.6241 68.3733 18.6641 67.2 18.6641H54V66.6641Z" fill="#252D32"/>
<path d="M64.6667 68.0026H58.6667C58.3 68.0026 58 67.7026 58 67.3359V18.0026C58 17.6359 58.3 17.3359 58.6667 17.3359H64.6667C65.0333 17.3359 65.3333 17.6359 65.3333 18.0026V67.3359C65.3333 67.7026 65.0333 68.0026 64.6667 68.0026ZM59.3333 66.6693H64V18.6693H59.3333V66.6693Z" fill="#252D32"/>
</svg>
