<svg width="80" height="80" viewBox="0 0 80 80" fill="none" xmlns="http://www.w3.org/2000/svg">
<g clip-path="url(#clip0_1285_2288)">
<path d="M78.5828 35.4375V75.8055H1.38281V35.4375H78.5828Z" fill="#D5E1EF"/>
<path d="M75.7508 35.4375V72.9735H1.38281V35.4375H75.7508Z" fill="#EDF2F8"/>
<path d="M67.9598 50.3125V58.8085H12.0078V50.3125H67.9598Z" fill="#C5D5F0"/>
<path d="M67.9588 53.1406V58.8046H15.5508V53.1406H67.9588Z" fill="#DCE6F6"/>
<path d="M11.3133 1.22656L0.777344 19.2506L5.92934 22.2586L16.4653 4.24256L11.3133 1.22656Z" fill="#74AAFF"/>
<path d="M2.18534 16.8438L0.777344 19.2518L5.92934 22.2598L7.33734 19.8518L2.18534 16.8438Z" fill="#4F88FF"/>
<path d="M15.3531 5.76562L19.8811 8.11762L34.2411 9.33363C38.8491 9.72563 43.1451 11.7976 46.3211 15.1576L60.8811 30.5736L45.2971 27.6456L35.6571 24.0296C34.6731 23.6616 33.5771 24.0456 33.0331 24.9416C32.3851 26.0216 32.7931 27.4216 33.9131 27.9896L41.1131 31.6616C43.4171 32.8456 44.3291 35.6776 43.1451 37.9816C41.9611 40.2856 39.1291 41.1896 36.8251 40.0056L24.8891 34.1496L24.0251 33.9176C19.2731 32.6296 15.2011 29.5576 12.6571 25.3416L12.2571 24.6856L6.28906 21.0936L15.3531 5.76562Z" fill="#FFBFB4"/>
<path d="M55.9925 25.3976C54.2485 24.5736 52.3125 24.1016 50.2565 24.1016C47.3525 24.1016 44.6725 25.0296 42.4805 26.5896L45.2965 27.6456L60.8805 30.5736L55.9925 25.3976Z" fill="#FF9F91"/>
<path d="M50.9599 53.8575C43.5199 53.8575 37.5039 47.8415 37.5039 40.3935C37.5039 32.9535 43.5199 26.9375 50.9599 26.9375C58.3999 26.9375 64.4159 32.9535 64.4159 40.3935C64.4159 47.8415 58.3999 53.8575 50.9599 53.8575Z" fill="#FFAA4C"/>
<path d="M50.9599 51.0136C45.0879 51.0136 40.3359 46.2696 40.3359 40.3896C40.3359 34.5176 45.0879 29.7656 50.9599 29.7656C56.8399 29.7656 61.5839 34.5176 61.5839 40.3896C61.5839 46.2696 56.8399 51.0136 50.9599 51.0136Z" fill="#FFC960"/>
<path d="M33.9107 27.9922L41.1107 31.6642C43.4147 32.8482 44.3267 35.6802 43.1427 37.9842C41.9587 40.2882 39.1267 41.1922 36.8227 40.0082L24.8867 34.1522L33.9107 27.9922Z" fill="#FFBFB4"/>
<path d="M38.9531 37.1778L27.0171 31.3218L26.1531 31.0898C21.4011 29.8018 17.3291 26.7298 14.7851 22.5138L14.3851 21.8578L8.40906 18.2578L6.28906 21.0978L12.2571 24.6898L12.6571 25.3458C15.2011 29.5618 19.2731 32.6338 24.0251 33.9218L24.8891 34.1538L36.8251 40.0098C39.1291 41.1938 41.9611 40.2898 43.1451 37.9858C43.2997 37.6711 43.4197 37.3511 43.5051 37.0258C42.1611 37.8258 40.4491 37.9458 38.9531 37.1778Z" fill="#FF9F91"/>
<path d="M44.5102 28.3673L33.5742 23.5753C34.2062 22.1193 35.9102 21.4553 37.3662 22.0953L46.9822 26.3113L44.5102 28.3673Z" fill="#FF9F91"/>
<path d="M15.4336 5.91406L6.60156 21.0101L8.49756 22.1221L17.3216 7.02606L15.4336 5.91406Z" fill="#FF9F91"/>
<path d="M38.9619 41.5899C38.0659 41.5899 37.1699 41.3739 36.3459 40.9499L24.5139 35.1499L23.7459 34.9419C18.7059 33.5819 14.4499 30.3659 11.7459 25.8939L11.4899 25.4619L7.12192 22.8939L6.80192 23.4379C6.50592 23.9499 5.84992 24.1179 5.34592 23.8219L0.233922 20.8299C-0.00607786 20.6859 -0.182078 20.4539 -0.254078 20.1819C-0.326078 19.9099 -0.286078 19.6219 -0.142078 19.3739L10.7619 0.733922C10.9059 0.493922 11.1379 0.317922 11.4099 0.245922C11.6819 0.173922 11.9699 0.213922 12.2179 0.357922L17.3299 3.34192C17.8339 3.64592 18.0019 4.29392 17.7059 4.79792L17.2659 5.55792L20.1779 7.07792L34.3299 8.27792C39.2019 8.68592 43.7379 10.8699 47.0899 14.4219L61.6499 29.8459C62.0579 30.2779 62.0339 30.9499 61.6099 31.3499C61.1859 31.7499 60.5059 31.7339 60.1059 31.3099L45.5459 15.8859C42.5459 12.7099 38.5059 10.7579 34.1539 10.3899L19.7859 9.18192C19.6473 9.16592 19.5139 9.12592 19.3859 9.06192L15.2899 6.91792C15.0339 6.78192 14.8419 6.54992 14.7619 6.26992C14.6819 5.98992 14.7219 5.69392 14.8659 5.44592L15.3379 4.64592L12.0579 2.72592L2.22592 19.5339L5.49792 21.4459L5.82592 20.9019C5.96992 20.6539 6.20192 20.4779 6.47392 20.4059C6.74592 20.3339 7.03392 20.3739 7.28192 20.5179L12.8019 23.7659C12.9566 23.8619 13.0793 23.9846 13.1699 24.1339L13.5699 24.7979C15.9779 28.7979 19.7939 31.6699 24.3059 32.8859L25.1699 33.1259C25.2339 33.1419 25.2979 33.1659 25.3619 33.1979L37.2979 39.0539C38.1779 39.5019 39.1619 39.5899 40.0819 39.2939C41.0019 38.9899 41.7539 38.3579 42.2019 37.4939C42.6419 36.6299 42.7219 35.6459 42.4259 34.7259C42.1299 33.8059 41.4899 33.0539 40.6259 32.6059L33.4579 29.1419C31.8979 28.3899 31.1699 26.5899 31.7699 24.9579C32.0899 24.0939 32.7619 23.3899 33.6099 23.0299C34.4579 22.6699 35.4259 22.6779 36.2659 23.0459L45.3699 27.0219C45.9059 27.2619 46.1539 27.8859 45.9139 28.4219C45.6819 28.9579 45.0579 29.2059 44.5139 28.9739L35.4179 24.9899C35.1059 24.8539 34.7539 24.8539 34.4419 24.9819C34.1219 25.1179 33.8819 25.3739 33.7699 25.6939C33.5459 26.2939 33.8099 26.9499 34.3859 27.2299L41.5779 30.7099C42.9699 31.4219 43.9779 32.6139 44.4499 34.0779C44.9219 35.5419 44.7939 37.1019 44.0899 38.4619C43.3859 39.8299 42.1939 40.8459 40.7299 41.3099C40.1486 41.4966 39.5593 41.5899 38.9619 41.5899Z" fill="#252D32"/>
<path d="M50.807 46.5932C50.1723 46.5932 49.5643 46.4919 48.983 46.2892C48.407 46.0919 47.903 45.8119 47.471 45.4492C47.0443 45.0919 46.7323 44.6785 46.535 44.2092C46.4337 44.0012 46.4363 43.8065 46.543 43.6252C46.6443 43.4492 46.8203 43.3345 47.071 43.2812C47.2523 43.2439 47.4283 43.2732 47.599 43.3692C47.775 43.4599 47.9083 43.6012 47.999 43.7932C48.1163 44.0439 48.3137 44.2732 48.591 44.4812C48.863 44.6892 49.1937 44.8572 49.583 44.9852C49.9723 45.1185 50.3803 45.1852 50.807 45.1852C51.287 45.1852 51.7297 45.1105 52.135 44.9612C52.5403 44.8119 52.8657 44.5932 53.111 44.3052C53.3617 44.0225 53.487 43.6705 53.487 43.2492C53.487 42.7212 53.2817 42.2492 52.871 41.8332C52.455 41.4119 51.7723 41.1532 50.823 41.0572C49.5857 40.9345 48.615 40.5692 47.911 39.9612C47.2017 39.3532 46.847 38.6012 46.847 37.7052C46.847 37.0439 47.031 36.4839 47.399 36.0252C47.767 35.5665 48.2683 35.2172 48.903 34.9772C49.5377 34.7372 50.2443 34.6172 51.023 34.6172C51.631 34.6172 52.1617 34.7025 52.615 34.8732C53.0683 35.0439 53.4657 35.2785 53.807 35.5772C54.143 35.8759 54.4363 36.2305 54.687 36.6412C54.8257 36.8599 54.8817 37.0652 54.855 37.2572C54.8337 37.4545 54.7377 37.6092 54.567 37.7212C54.375 37.8385 54.1697 37.8625 53.951 37.7932C53.7323 37.7239 53.5697 37.5932 53.463 37.4012C53.303 37.1132 53.1083 36.8705 52.879 36.6732C52.6497 36.4705 52.3803 36.3132 52.071 36.2012C51.7617 36.0839 51.3963 36.0252 50.975 36.0252C50.239 36.0145 49.6203 36.1532 49.119 36.4412C48.623 36.7239 48.375 37.1585 48.375 37.7452C48.375 38.0439 48.4523 38.3319 48.607 38.6092C48.7617 38.8812 49.0443 39.1185 49.455 39.3212C49.871 39.5185 50.4683 39.6572 51.247 39.7372C52.431 39.8545 53.3563 40.2172 54.023 40.8252C54.6843 41.4279 55.015 42.2225 55.015 43.2092C55.015 43.7799 54.8977 44.2732 54.663 44.6892C54.4283 45.1105 54.1137 45.4625 53.719 45.7452C53.3243 46.0279 52.8763 46.2385 52.375 46.3772C51.8683 46.5212 51.3457 46.5932 50.807 46.5932Z" fill="#252D32"/>
<path d="M50.9618 35.4424C50.5698 35.4424 50.2578 35.1224 50.2578 34.7304V32.6104C50.2578 32.2184 50.5698 31.8984 50.9618 31.8984C51.3538 31.8984 51.6738 32.2184 51.6738 32.6104V34.7304C51.6738 35.1224 51.3538 35.4424 50.9618 35.4424Z" fill="#252D32"/>
<path d="M50.9618 48.8956C50.5698 48.8956 50.2578 48.5756 50.2578 48.1836V46.0636C50.2578 45.6716 50.5698 45.3516 50.9618 45.3516C51.3538 45.3516 51.6738 45.6716 51.6738 46.0636V48.1836C51.6738 48.5756 51.3538 48.8956 50.9618 48.8956Z" fill="#252D32"/>
<path d="M50.9618 55.2754C42.7618 55.2754 36.0898 48.6034 36.0898 40.3954C36.0898 39.8114 36.5618 39.3394 37.1538 39.3394C37.7378 39.3394 38.2178 39.8114 38.2178 40.3954C38.2178 47.4274 43.9298 53.1474 50.9618 53.1474C57.9938 53.1474 63.7138 47.4274 63.7138 40.3954C63.7138 33.3714 57.9938 27.6514 50.9618 27.6514C47.4018 27.6514 44.0898 29.0834 41.6578 31.6834C41.2498 32.1154 40.5778 32.1394 40.1538 31.7394C39.7218 31.3314 39.7058 30.6594 40.1058 30.2354C42.9058 27.2434 46.8658 25.5234 50.9618 25.5234C59.1618 25.5234 65.8338 32.1954 65.8338 40.3954C65.8338 48.6034 59.1618 55.2754 50.9618 55.2754Z" fill="#252D32"/>
<path d="M5.63123 23.4035C5.50856 23.4035 5.39123 23.3715 5.27923 23.3075C4.93523 23.1075 4.82323 22.6755 5.01523 22.3395L15.6392 3.92351C15.8392 3.58751 16.2712 3.46751 16.6072 3.66751C16.9512 3.85951 17.0632 4.29151 16.8712 4.63551L6.24723 23.0435C6.11123 23.2755 5.87923 23.4035 5.63123 23.4035Z" fill="#252D32"/>
<path d="M78.9367 77.2234H1.03275C0.44075 77.2234 -0.03125 76.7514 -0.03125 76.1594V35.0794C-0.03125 34.4954 0.44075 34.0234 1.03275 34.0234H25.8167C26.4087 34.0234 26.8807 34.4954 26.8807 35.0794C26.8807 35.6714 26.4087 36.1434 25.8167 36.1434H2.08875V75.0954H77.8727V36.1434H64.7767C64.1847 36.1434 63.7127 35.6714 63.7127 35.0794C63.7127 34.4954 64.1847 34.0234 64.7767 34.0234H78.9367C79.5287 34.0234 80.0007 34.4954 80.0007 35.0794V76.1594C80.0007 76.7514 79.5287 77.2234 78.9367 77.2234Z" fill="#252D32"/>
<path d="M67.9609 59.5216H12.0089C11.6169 59.5216 11.2969 59.2016 11.2969 58.8096V50.3136C11.2969 49.9216 11.6169 49.6016 12.0089 49.6016H41.0489C41.4409 49.6016 41.7529 49.9216 41.7529 50.3136C41.7529 50.7056 41.4409 51.0176 41.0489 51.0176H12.7129V58.1056H67.2489V51.0176H61.5849C61.1929 51.0176 60.8809 50.7056 60.8809 50.3136C60.8809 49.9216 61.1929 49.6016 61.5849 49.6016H67.9609C68.3529 49.6016 68.6649 49.9216 68.6649 50.3136V58.8096C68.6649 59.2016 68.3529 59.5216 67.9609 59.5216Z" fill="#252D32"/>
<path d="M78.5828 35.4375V75.8055H1.38281V35.4375H78.5828Z" fill="#D5E1EF"/>
<path d="M75.7508 35.4375V72.9735H1.38281V35.4375H75.7508Z" fill="#EDF2F8"/>
<path d="M67.9598 50.3125V58.8085H12.0078V50.3125H67.9598Z" fill="#C5D5F0"/>
<path d="M67.9588 53.1406V58.8046H15.5508V53.1406H67.9588Z" fill="#DCE6F6"/>
<path d="M11.3133 1.22656L0.777344 19.2506L5.92934 22.2586L16.4653 4.24256L11.3133 1.22656Z" fill="#74AAFF"/>
<path d="M2.18534 16.8438L0.777344 19.2518L5.92934 22.2598L7.33734 19.8518L2.18534 16.8438Z" fill="#4F88FF"/>
<path d="M15.3531 5.76562L19.8811 8.11762L34.2411 9.33363C38.8491 9.72563 43.1451 11.7976 46.3211 15.1576L60.8811 30.5736L45.2971 27.6456L35.6571 24.0296C34.6731 23.6616 33.5771 24.0456 33.0331 24.9416C32.3851 26.0216 32.7931 27.4216 33.9131 27.9896L41.1131 31.6616C43.4171 32.8456 44.3291 35.6776 43.1451 37.9816C41.9611 40.2856 39.1291 41.1896 36.8251 40.0056L24.8891 34.1496L24.0251 33.9176C19.2731 32.6296 15.2011 29.5576 12.6571 25.3416L12.2571 24.6856L6.28906 21.0936L15.3531 5.76562Z" fill="#FFBFB4"/>
<path d="M55.9925 25.3976C54.2485 24.5736 52.3125 24.1016 50.2565 24.1016C47.3525 24.1016 44.6725 25.0296 42.4805 26.5896L45.2965 27.6456L60.8805 30.5736L55.9925 25.3976Z" fill="#FF9F91"/>
<path d="M50.9599 53.8575C43.5199 53.8575 37.5039 47.8415 37.5039 40.3935C37.5039 32.9535 43.5199 26.9375 50.9599 26.9375C58.3999 26.9375 64.4159 32.9535 64.4159 40.3935C64.4159 47.8415 58.3999 53.8575 50.9599 53.8575Z" fill="#FFAA4C"/>
<path d="M50.9599 51.0136C45.0879 51.0136 40.3359 46.2696 40.3359 40.3896C40.3359 34.5176 45.0879 29.7656 50.9599 29.7656C56.8399 29.7656 61.5839 34.5176 61.5839 40.3896C61.5839 46.2696 56.8399 51.0136 50.9599 51.0136Z" fill="#FFC960"/>
<path d="M33.9107 27.9922L41.1107 31.6642C43.4147 32.8482 44.3267 35.6802 43.1427 37.9842C41.9587 40.2882 39.1267 41.1922 36.8227 40.0082L24.8867 34.1522L33.9107 27.9922Z" fill="#FFBFB4"/>
<path d="M38.9531 37.1778L27.0171 31.3218L26.1531 31.0898C21.4011 29.8018 17.3291 26.7298 14.7851 22.5138L14.3851 21.8578L8.40906 18.2578L6.28906 21.0978L12.2571 24.6898L12.6571 25.3458C15.2011 29.5618 19.2731 32.6338 24.0251 33.9218L24.8891 34.1538L36.8251 40.0098C39.1291 41.1938 41.9611 40.2898 43.1451 37.9858C43.2997 37.6711 43.4197 37.3511 43.5051 37.0258C42.1611 37.8258 40.4491 37.9458 38.9531 37.1778Z" fill="#FF9F91"/>
<path d="M44.5102 28.3673L33.5742 23.5753C34.2062 22.1193 35.9102 21.4553 37.3662 22.0953L46.9822 26.3113L44.5102 28.3673Z" fill="#FF9F91"/>
<path d="M15.4336 5.91406L6.60156 21.0101L8.49756 22.1221L17.3216 7.02606L15.4336 5.91406Z" fill="#FF9F91"/>
<path d="M38.9619 41.5899C38.0659 41.5899 37.1699 41.3739 36.3459 40.9499L24.5139 35.1499L23.7459 34.9419C18.7059 33.5819 14.4499 30.3659 11.7459 25.8939L11.4899 25.4619L7.12192 22.8939L6.80192 23.4379C6.50592 23.9499 5.84992 24.1179 5.34592 23.8219L0.233922 20.8299C-0.00607786 20.6859 -0.182078 20.4539 -0.254078 20.1819C-0.326078 19.9099 -0.286078 19.6219 -0.142078 19.3739L10.7619 0.733922C10.9059 0.493922 11.1379 0.317922 11.4099 0.245922C11.6819 0.173922 11.9699 0.213922 12.2179 0.357922L17.3299 3.34192C17.8339 3.64592 18.0019 4.29392 17.7059 4.79792L17.2659 5.55792L20.1779 7.07792L34.3299 8.27792C39.2019 8.68592 43.7379 10.8699 47.0899 14.4219L61.6499 29.8459C62.0579 30.2779 62.0339 30.9499 61.6099 31.3499C61.1859 31.7499 60.5059 31.7339 60.1059 31.3099L45.5459 15.8859C42.5459 12.7099 38.5059 10.7579 34.1539 10.3899L19.7859 9.18192C19.6473 9.16592 19.5139 9.12592 19.3859 9.06192L15.2899 6.91792C15.0339 6.78192 14.8419 6.54992 14.7619 6.26992C14.6819 5.98992 14.7219 5.69392 14.8659 5.44592L15.3379 4.64592L12.0579 2.72592L2.22592 19.5339L5.49792 21.4459L5.82592 20.9019C5.96992 20.6539 6.20192 20.4779 6.47392 20.4059C6.74592 20.3339 7.03392 20.3739 7.28192 20.5179L12.8019 23.7659C12.9566 23.8619 13.0793 23.9846 13.1699 24.1339L13.5699 24.7979C15.9779 28.7979 19.7939 31.6699 24.3059 32.8859L25.1699 33.1259C25.2339 33.1419 25.2979 33.1659 25.3619 33.1979L37.2979 39.0539C38.1779 39.5019 39.1619 39.5899 40.0819 39.2939C41.0019 38.9899 41.7539 38.3579 42.2019 37.4939C42.6419 36.6299 42.7219 35.6459 42.4259 34.7259C42.1299 33.8059 41.4899 33.0539 40.6259 32.6059L33.4579 29.1419C31.8979 28.3899 31.1699 26.5899 31.7699 24.9579C32.0899 24.0939 32.7619 23.3899 33.6099 23.0299C34.4579 22.6699 35.4259 22.6779 36.2659 23.0459L45.3699 27.0219C45.9059 27.2619 46.1539 27.8859 45.9139 28.4219C45.6819 28.9579 45.0579 29.2059 44.5139 28.9739L35.4179 24.9899C35.1059 24.8539 34.7539 24.8539 34.4419 24.9819C34.1219 25.1179 33.8819 25.3739 33.7699 25.6939C33.5459 26.2939 33.8099 26.9499 34.3859 27.2299L41.5779 30.7099C42.9699 31.4219 43.9779 32.6139 44.4499 34.0779C44.9219 35.5419 44.7939 37.1019 44.0899 38.4619C43.3859 39.8299 42.1939 40.8459 40.7299 41.3099C40.1486 41.4966 39.5593 41.5899 38.9619 41.5899Z" fill="#252D32"/>
<path d="M50.807 46.5932C50.1723 46.5932 49.5643 46.4919 48.983 46.2892C48.407 46.0919 47.903 45.8119 47.471 45.4492C47.0443 45.0919 46.7323 44.6785 46.535 44.2092C46.4337 44.0012 46.4363 43.8065 46.543 43.6252C46.6443 43.4492 46.8203 43.3345 47.071 43.2812C47.2523 43.2439 47.4283 43.2732 47.599 43.3692C47.775 43.4599 47.9083 43.6012 47.999 43.7932C48.1163 44.0439 48.3137 44.2732 48.591 44.4812C48.863 44.6892 49.1937 44.8572 49.583 44.9852C49.9723 45.1185 50.3803 45.1852 50.807 45.1852C51.287 45.1852 51.7297 45.1105 52.135 44.9612C52.5403 44.8119 52.8657 44.5932 53.111 44.3052C53.3617 44.0225 53.487 43.6705 53.487 43.2492C53.487 42.7212 53.2817 42.2492 52.871 41.8332C52.455 41.4119 51.7723 41.1532 50.823 41.0572C49.5857 40.9345 48.615 40.5692 47.911 39.9612C47.2017 39.3532 46.847 38.6012 46.847 37.7052C46.847 37.0439 47.031 36.4839 47.399 36.0252C47.767 35.5665 48.2683 35.2172 48.903 34.9772C49.5377 34.7372 50.2443 34.6172 51.023 34.6172C51.631 34.6172 52.1617 34.7025 52.615 34.8732C53.0683 35.0439 53.4657 35.2785 53.807 35.5772C54.143 35.8759 54.4363 36.2305 54.687 36.6412C54.8257 36.8599 54.8817 37.0652 54.855 37.2572C54.8337 37.4545 54.7377 37.6092 54.567 37.7212C54.375 37.8385 54.1697 37.8625 53.951 37.7932C53.7323 37.7239 53.5697 37.5932 53.463 37.4012C53.303 37.1132 53.1083 36.8705 52.879 36.6732C52.6497 36.4705 52.3803 36.3132 52.071 36.2012C51.7617 36.0839 51.3963 36.0252 50.975 36.0252C50.239 36.0145 49.6203 36.1532 49.119 36.4412C48.623 36.7239 48.375 37.1585 48.375 37.7452C48.375 38.0439 48.4523 38.3319 48.607 38.6092C48.7617 38.8812 49.0443 39.1185 49.455 39.3212C49.871 39.5185 50.4683 39.6572 51.247 39.7372C52.431 39.8545 53.3563 40.2172 54.023 40.8252C54.6843 41.4279 55.015 42.2225 55.015 43.2092C55.015 43.7799 54.8977 44.2732 54.663 44.6892C54.4283 45.1105 54.1137 45.4625 53.719 45.7452C53.3243 46.0279 52.8763 46.2385 52.375 46.3772C51.8683 46.5212 51.3457 46.5932 50.807 46.5932Z" fill="#252D32"/>
<path d="M50.9618 35.4424C50.5698 35.4424 50.2578 35.1224 50.2578 34.7304V32.6104C50.2578 32.2184 50.5698 31.8984 50.9618 31.8984C51.3538 31.8984 51.6738 32.2184 51.6738 32.6104V34.7304C51.6738 35.1224 51.3538 35.4424 50.9618 35.4424Z" fill="#252D32"/>
<path d="M50.9618 48.8956C50.5698 48.8956 50.2578 48.5756 50.2578 48.1836V46.0636C50.2578 45.6716 50.5698 45.3516 50.9618 45.3516C51.3538 45.3516 51.6738 45.6716 51.6738 46.0636V48.1836C51.6738 48.5756 51.3538 48.8956 50.9618 48.8956Z" fill="#252D32"/>
<path d="M50.9618 55.2754C42.7618 55.2754 36.0898 48.6034 36.0898 40.3954C36.0898 39.8114 36.5618 39.3394 37.1538 39.3394C37.7378 39.3394 38.2178 39.8114 38.2178 40.3954C38.2178 47.4274 43.9298 53.1474 50.9618 53.1474C57.9938 53.1474 63.7138 47.4274 63.7138 40.3954C63.7138 33.3714 57.9938 27.6514 50.9618 27.6514C47.4018 27.6514 44.0898 29.0834 41.6578 31.6834C41.2498 32.1154 40.5778 32.1394 40.1538 31.7394C39.7218 31.3314 39.7058 30.6594 40.1058 30.2354C42.9058 27.2434 46.8658 25.5234 50.9618 25.5234C59.1618 25.5234 65.8338 32.1954 65.8338 40.3954C65.8338 48.6034 59.1618 55.2754 50.9618 55.2754Z" fill="#252D32"/>
<path d="M5.63123 23.4035C5.50856 23.4035 5.39123 23.3715 5.27923 23.3075C4.93523 23.1075 4.82323 22.6755 5.01523 22.3395L15.6392 3.92351C15.8392 3.58751 16.2712 3.46751 16.6072 3.66751C16.9512 3.85951 17.0632 4.29151 16.8712 4.63551L6.24723 23.0435C6.11123 23.2755 5.87923 23.4035 5.63123 23.4035Z" fill="#252D32"/>
<path d="M78.9367 77.2234H1.03275C0.44075 77.2234 -0.03125 76.7514 -0.03125 76.1594V35.0794C-0.03125 34.4954 0.44075 34.0234 1.03275 34.0234H25.8167C26.4087 34.0234 26.8807 34.4954 26.8807 35.0794C26.8807 35.6714 26.4087 36.1434 25.8167 36.1434H2.08875V75.0954H77.8727V36.1434H64.7767C64.1847 36.1434 63.7127 35.6714 63.7127 35.0794C63.7127 34.4954 64.1847 34.0234 64.7767 34.0234H78.9367C79.5287 34.0234 80.0007 34.4954 80.0007 35.0794V76.1594C80.0007 76.7514 79.5287 77.2234 78.9367 77.2234Z" fill="#252D32"/>
<path d="M67.9609 59.5216H12.0089C11.6169 59.5216 11.2969 59.2016 11.2969 58.8096V50.3136C11.2969 49.9216 11.6169 49.6016 12.0089 49.6016H41.0489C41.4409 49.6016 41.7529 49.9216 41.7529 50.3136C41.7529 50.7056 41.4409 51.0176 41.0489 51.0176H12.7129V58.1056H67.2489V51.0176H61.5849C61.1929 51.0176 60.8809 50.7056 60.8809 50.3136C60.8809 49.9216 61.1929 49.6016 61.5849 49.6016H67.9609C68.3529 49.6016 68.6649 49.9216 68.6649 50.3136V58.8096C68.6649 59.2016 68.3529 59.5216 67.9609 59.5216Z" fill="#252D32"/>
</g>
<defs>
<clipPath id="clip0_1285_2288">
<rect width="80" height="80" fill="white"/>
</clipPath>
</defs>
</svg>
