<svg width="80" height="80" viewBox="0 0 80 80" fill="none" xmlns="http://www.w3.org/2000/svg">
<g clip-path="url(#clip0_1253_11473)">
<path opacity="0.8" d="M75.0508 57.7908H2.86078C2.00078 57.7908 1.30078 57.0908 1.30078 56.2208V2.86078C1.30078 2.00078 2.00078 1.30078 2.86078 1.30078H75.0508C75.9208 1.30078 76.6208 2.00078 76.6208 2.86078V56.2208C76.6208 57.0908 75.9208 57.7908 75.0508 57.7908Z" fill="#EDF2F8"/>
<path opacity="0.8" d="M72.0698 5.83984V53.2398H5.83984V5.83984H72.0698Z" fill="#4F88FF"/>
<path opacity="0.8" d="M72.0691 7.78906V53.2391H7.78906V7.78906H72.0691Z" fill="#74AAFF"/>
<path opacity="0.8" d="M26.6206 43.5009H18.8306C15.9706 43.5009 13.6406 41.1609 13.6406 38.3109V37.6609C13.6406 34.8009 15.9706 32.4609 18.8306 32.4609H26.6206C29.4806 32.4609 31.8206 34.8009 31.8206 37.6609V38.3109C31.8206 41.1609 29.4806 43.5009 26.6206 43.5009Z" fill="#FFC960"/>
<path opacity="0.8" d="M31.8219 38.3082V38.2282L29.1019 36.2682C27.3419 34.9982 24.8419 35.1582 23.4119 36.7882C21.7819 38.6582 22.1319 41.4782 24.1019 42.8982L24.9319 43.4982H26.6219C29.4819 43.4982 31.8219 41.1582 31.8219 38.3082Z" fill="#FFAA4C"/>
<path opacity="0.8" d="M69.761 45.9089L69.021 43.2489C68.721 42.1689 68.081 41.2089 67.191 40.5289L55.631 31.5689C53.821 30.1589 51.251 30.3289 49.631 31.9489L39.921 41.6989L31.811 35.8389C30.171 34.6589 27.851 34.7989 26.521 36.3189C25.001 38.0589 25.331 40.6789 27.161 41.9989L43.031 53.4589L37.461 54.1089C35.461 54.3389 33.841 56.0089 33.891 58.0289C33.931 60.3389 35.951 62.0489 38.191 61.7889L59.341 60.8889L64.211 64.3989L74.881 49.6089L69.761 45.9089Z" fill="#FF9F91"/>
<path opacity="0.8" d="M65.0184 61.5389L74.0484 49.0089L69.7584 45.9089L69.0184 43.2489C68.7184 42.1689 68.0784 41.2089 67.1884 40.5289L55.6284 31.5689C53.8184 30.1589 51.2484 30.3289 49.6284 31.9489L39.9184 41.6989L31.8084 35.8389C30.1184 34.6289 27.6984 34.8089 26.3984 36.4689C26.5184 37.5089 27.0584 38.4889 27.9684 39.1389L41.8184 49.1289C43.0284 50.0089 43.5684 51.5489 43.1584 52.9989L43.0284 53.4589L37.4584 54.1089C36.3584 54.2289 35.3884 54.8089 34.7284 55.6189C35.0184 57.6989 36.9084 59.1689 38.9984 58.9289L60.1484 58.0289L65.0184 61.5389Z" fill="#FFBFB4"/>
<path opacity="0.8" d="M78.4616 52.05L67.1016 67.84L62.8516 64.79L74.2216 49L78.4616 52.05Z" fill="#FF5F5F"/>
<path opacity="0.8" d="M68.7516 65.5405L67.1016 67.8405L62.8516 64.7905L64.5116 62.4805L68.7516 65.5405Z" fill="#E23B3B"/>
<path opacity="0.8" d="M14.6898 23.6417C14.5232 23.6417 14.3798 23.5851 14.2598 23.4717C14.1465 23.3517 14.0898 23.2051 14.0898 23.0317V15.1217C14.0898 14.9417 14.1465 14.7951 14.2598 14.6817C14.3798 14.5684 14.5232 14.5117 14.6898 14.5117H16.8098C17.4765 14.5117 18.0865 14.6251 18.6398 14.8517C19.1865 15.0717 19.6632 15.3851 20.0698 15.7917C20.4765 16.2051 20.7865 16.6884 20.9998 17.2417C21.2198 17.7951 21.3298 18.4051 21.3298 19.0717C21.3298 19.7451 21.2198 20.3584 20.9998 20.9117C20.7865 21.4717 20.4765 21.9551 20.0698 22.3617C19.6632 22.7684 19.1865 23.0851 18.6398 23.3117C18.0865 23.5317 17.4765 23.6417 16.8098 23.6417H14.6898ZM15.2998 22.5717H16.7998C17.4598 22.5717 18.0398 22.4217 18.5398 22.1217C19.0398 21.8217 19.4365 21.4084 19.7298 20.8817C20.0165 20.3551 20.1598 19.7517 20.1598 19.0717C20.1598 18.3851 20.0165 17.7817 19.7298 17.2617C19.4365 16.7417 19.0398 16.3317 18.5398 16.0317C18.0398 15.7384 17.4598 15.5917 16.7998 15.5917H15.2998V22.5717Z" fill="white"/>
<path opacity="0.8" d="M26.9916 23.7584C26.3049 23.7584 25.6782 23.6418 25.1116 23.4084C24.5382 23.1818 24.0482 22.8584 23.6416 22.4384C23.2349 22.0251 22.9182 21.5318 22.6916 20.9584C22.4649 20.3851 22.3516 19.7551 22.3516 19.0684C22.3516 18.3818 22.4649 17.7551 22.6916 17.1884C22.9182 16.6218 23.2349 16.1284 23.6416 15.7084C24.0482 15.2951 24.5382 14.9718 25.1116 14.7384C25.6782 14.5118 26.3049 14.3984 26.9916 14.3984C27.6782 14.3984 28.3016 14.5118 28.8616 14.7384C29.4282 14.9718 29.9182 15.2951 30.3316 15.7084C30.7449 16.1284 31.0649 16.6218 31.2916 17.1884C31.5182 17.7551 31.6316 18.3818 31.6316 19.0684C31.6316 19.7551 31.5182 20.3851 31.2916 20.9584C31.0649 21.5318 30.7449 22.0251 30.3316 22.4384C29.9182 22.8584 29.4282 23.1818 28.8616 23.4084C28.3016 23.6418 27.6782 23.7584 26.9916 23.7584ZM26.9916 22.6584C27.4982 22.6584 27.9616 22.5651 28.3816 22.3784C28.8082 22.1984 29.1782 21.9451 29.4916 21.6184C29.8049 21.2984 30.0449 20.9184 30.2116 20.4784C30.3782 20.0451 30.4616 19.5751 30.4616 19.0684C30.4616 18.5618 30.3782 18.0918 30.2116 17.6584C30.0449 17.2184 29.8049 16.8384 29.4916 16.5184C29.1782 16.1918 28.8082 15.9384 28.3816 15.7584C27.9616 15.5784 27.4982 15.4884 26.9916 15.4884C26.4849 15.4884 26.0182 15.5784 25.5916 15.7584C25.1649 15.9384 24.7982 16.1918 24.4916 16.5184C24.1849 16.8384 23.9449 17.2184 23.7716 17.6584C23.6049 18.0918 23.5216 18.5618 23.5216 19.0684C23.5216 19.5751 23.6049 20.0451 23.7716 20.4784C23.9449 20.9184 24.1849 21.2984 24.4916 21.6184C24.7982 21.9451 25.1649 22.1984 25.5916 22.3784C26.0182 22.5651 26.4849 22.6584 26.9916 22.6584Z" fill="white"/>
<path opacity="0.8" d="M33.9008 23.6417C33.7275 23.6417 33.5841 23.5851 33.4708 23.4717C33.3574 23.3517 33.3008 23.2051 33.3008 23.0317V15.1217C33.3008 14.9417 33.3574 14.7951 33.4708 14.6817C33.5841 14.5684 33.7275 14.5117 33.9008 14.5117C34.0875 14.5117 34.2408 14.5884 34.3608 14.7417L39.4608 21.5117V15.1217C39.4608 14.9417 39.5174 14.7951 39.6308 14.6817C39.7508 14.5684 39.8974 14.5117 40.0708 14.5117C40.2508 14.5117 40.3941 14.5684 40.5008 14.6817C40.6074 14.7951 40.6608 14.9417 40.6608 15.1217V23.0317C40.6608 23.2051 40.6074 23.3517 40.5008 23.4717C40.3941 23.5851 40.2508 23.6417 40.0708 23.6417C39.9908 23.6417 39.9074 23.6251 39.8208 23.5917C39.7274 23.5584 39.6541 23.5051 39.6008 23.4317L34.5008 16.6517V23.0317C34.5008 23.2051 34.4441 23.3517 34.3308 23.4717C34.2175 23.5851 34.0741 23.6417 33.9008 23.6417Z" fill="white"/>
<path opacity="0.8" d="M42.4018 23.6417C42.1885 23.6417 42.0218 23.5484 41.9018 23.3617C41.7885 23.1751 41.7785 22.9751 41.8718 22.7617L45.1518 14.9217C45.2718 14.6484 45.4618 14.5117 45.7218 14.5117C46.0018 14.5117 46.1952 14.6484 46.3018 14.9217L49.5918 22.7917C49.6785 23.0117 49.6652 23.2084 49.5518 23.3817C49.4385 23.5551 49.2685 23.6417 49.0418 23.6417C48.9285 23.6417 48.8185 23.6084 48.7118 23.5417C48.6052 23.4751 48.5285 23.3851 48.4818 23.2717L45.5818 16.0717H45.9118L42.9618 23.2717C42.9085 23.3917 42.8285 23.4851 42.7218 23.5517C42.6218 23.6117 42.5152 23.6417 42.4018 23.6417ZM43.0218 21.6317L43.4918 20.6317H48.0718L48.5418 21.6317H43.0218Z" fill="white"/>
<path opacity="0.8" d="M49.3803 15.6317C49.2136 15.6317 49.0803 15.5817 48.9803 15.4817C48.8736 15.3751 48.8203 15.2384 48.8203 15.0717C48.8203 14.9117 48.8736 14.7784 48.9803 14.6717C49.0803 14.5651 49.2136 14.5117 49.3803 14.5117H55.6303C55.797 14.5117 55.9336 14.5651 56.0403 14.6717C56.1403 14.7784 56.1903 14.9117 56.1903 15.0717C56.1903 15.2384 56.1403 15.3751 56.0403 15.4817C55.9336 15.5817 55.797 15.6317 55.6303 15.6317H49.3803ZM52.5103 23.6417C52.3436 23.6417 52.2003 23.5851 52.0803 23.4717C51.967 23.3517 51.9103 23.2051 51.9103 23.0317V14.5117H53.1203V23.0317C53.1203 23.2051 53.0636 23.3517 52.9503 23.4717C52.8303 23.5851 52.6836 23.6417 52.5103 23.6417Z" fill="white"/>
<path opacity="0.8" d="M57.9108 23.6417C57.7374 23.6417 57.5941 23.5851 57.4808 23.4717C57.3608 23.3517 57.3008 23.2051 57.3008 23.0317V15.1217C57.3008 14.9417 57.3608 14.7951 57.4808 14.6817C57.5941 14.5684 57.7374 14.5117 57.9108 14.5117H63.1908C63.3708 14.5117 63.5174 14.5651 63.6308 14.6717C63.7374 14.7784 63.7908 14.9184 63.7908 15.0917C63.7908 15.2517 63.7374 15.3817 63.6308 15.4817C63.5174 15.5817 63.3708 15.6317 63.1908 15.6317H58.5208V18.4717H61.8708C62.0508 18.4717 62.1975 18.5251 62.3108 18.6317C62.4175 18.7384 62.4708 18.8751 62.4708 19.0417C62.4708 19.2017 62.4175 19.3351 62.3108 19.4417C62.1975 19.5484 62.0508 19.6017 61.8708 19.6017H58.5208V22.5217H63.1908C63.3708 22.5217 63.5174 22.5717 63.6308 22.6717C63.7374 22.7717 63.7908 22.9051 63.7908 23.0717C63.7908 23.2384 63.7374 23.3751 63.6308 23.4817C63.5174 23.5884 63.3708 23.6417 63.1908 23.6417H57.9108Z" fill="white"/>
<path opacity="0.8" d="M62.8114 64.3682C62.6047 64.3682 62.4147 64.3048 62.2414 64.1782L59.0414 61.8782L38.2714 62.7582C36.9314 62.9082 35.5814 62.4882 34.5714 61.5982C33.5414 60.7082 32.9414 59.4082 32.9114 58.0482C32.8614 55.5882 34.8114 53.4282 37.3514 53.1382L40.4314 52.7782L26.5914 42.7882C25.4814 41.9982 24.7614 40.7682 24.6114 39.4182C24.4614 38.0682 24.8914 36.7082 25.7914 35.6782C27.4114 33.8282 30.3014 33.5582 32.3714 35.0482L39.8214 40.4182L48.9414 31.2582C50.9014 29.2982 54.0314 29.0982 56.2314 30.7982L67.7914 39.7582C68.8314 40.5682 69.6014 41.7082 69.9614 42.9882L70.6114 45.3182L74.0314 47.7882C74.4614 48.1082 74.5614 48.7082 74.2514 49.1482C73.9314 49.5882 73.3214 49.6882 72.8914 49.3682L69.1914 46.6982C69.0047 46.5648 68.8814 46.3882 68.8214 46.1682L68.0814 43.5082C67.8414 42.6382 67.3114 41.8482 66.5914 41.2982L55.0314 32.3382C53.6114 31.2382 51.5914 31.3682 50.3214 32.6382L40.6114 42.3782C40.2714 42.7182 39.7414 42.7682 39.3514 42.4882L31.2414 36.6282C29.9714 35.7182 28.2214 35.8582 27.2514 36.9582C26.7014 37.5882 26.4514 38.3782 26.5514 39.1982C26.6414 40.0082 27.0714 40.7382 27.7314 41.2082L43.6014 52.6682C43.9314 52.8982 44.0814 53.3082 43.9814 53.6982C43.8714 54.0882 43.5414 54.3782 43.1514 54.4182L37.5714 55.0682C36.0214 55.2482 34.8314 56.5382 34.8614 58.0082C34.8814 58.8382 35.2314 59.5882 35.8514 60.1282C36.4614 60.6682 37.2714 60.9182 38.0814 60.8182C38.1014 60.8182 38.1247 60.8182 38.1514 60.8182L59.3014 59.9182C59.5214 59.9115 59.7247 59.9715 59.9114 60.0982L63.3814 62.5982C63.8114 62.9182 63.9114 63.5282 63.6014 63.9582C63.4114 64.2282 63.1114 64.3682 62.8114 64.3682Z" fill="#252D32"/>
<path opacity="0.8" d="M66.9188 69.2719C66.7121 69.2719 66.5221 69.2119 66.3488 69.0919L61.7988 65.8019C61.3688 65.4919 61.2688 64.8819 61.5788 64.4419L73.6788 47.6719C73.8388 47.4586 74.0521 47.3286 74.3188 47.2819C74.5788 47.2419 74.8188 47.2986 75.0388 47.4519L79.5988 50.7319C80.0288 51.0519 80.1288 51.6519 79.8188 52.0919L67.7088 68.8719C67.5555 69.0853 67.3455 69.2153 67.0788 69.2619C67.0255 69.2686 66.9721 69.2719 66.9188 69.2719ZM63.7288 64.7919L66.6988 66.9419L77.6688 51.7419L74.6888 49.6019L63.7288 64.7919Z" fill="#252D32"/>
<path opacity="0.8" d="M32.79 59.09H2.68C1.2 59.09 0 57.88 0 56.4V2.68C0 1.2 1.2 0 2.68 0H75.23C76.71 0 77.91 1.2 77.91 2.68V49.02C77.91 49.56 77.48 50 76.94 50C76.4 50 75.97 49.56 75.97 49.02V2.68C75.97 2.28 75.64 1.95 75.23 1.95H2.68C2.28 1.95 1.95 2.28 1.95 2.68V56.4C1.95 56.81 2.28 57.14 2.68 57.14H32.79C33.33 57.14 33.76 57.57 33.76 58.11C33.76 58.65 33.33 59.09 32.79 59.09Z" fill="#252D32"/>
<path opacity="0.8" d="M40.9098 53.8898H6.48984C6.12984 53.8898 5.83984 53.5998 5.83984 53.2398C5.83984 52.8798 6.12984 52.5898 6.48984 52.5898H40.9098C41.2598 52.5898 41.5498 52.8798 41.5498 53.2398C41.5498 53.5998 41.2598 53.8898 40.9098 53.8898Z" fill="#252D32"/>
<path opacity="0.8" d="M26.9483 44.1503H19.1483C15.7483 44.1503 12.9883 41.3803 12.9883 37.9803C12.9883 34.5803 15.7483 31.8203 19.1483 31.8203H26.9483C29.1383 31.8203 31.1983 33.0103 32.2983 34.9303C32.4783 35.2403 32.3683 35.6403 32.0583 35.8103C31.7483 35.9903 31.3483 35.8903 31.1683 35.5703C30.2983 34.0603 28.6783 33.1103 26.9483 33.1103H19.1483C16.4683 33.1103 14.2783 35.3003 14.2783 37.9803C14.2783 40.6703 16.4683 42.8503 19.1483 42.8503H26.9483C27.3616 42.8503 27.7683 42.8003 28.1683 42.7003C28.5083 42.6103 28.8683 42.8103 28.9583 43.1603C29.0483 43.5103 28.8383 43.8603 28.4883 43.9503C27.9816 44.0836 27.4683 44.1503 26.9483 44.1503Z" fill="#252D32"/>
<path d="M75.0508 57.7908H2.86078C2.00078 57.7908 1.30078 57.0908 1.30078 56.2208V2.86078C1.30078 2.00078 2.00078 1.30078 2.86078 1.30078H75.0508C75.9208 1.30078 76.6208 2.00078 76.6208 2.86078V56.2208C76.6208 57.0908 75.9208 57.7908 75.0508 57.7908Z" fill="#EDF2F8"/>
<path d="M72.0698 5.83984V53.2398H5.83984V5.83984H72.0698Z" fill="#4F88FF"/>
<path d="M72.0691 7.78906V53.2391H7.78906V7.78906H72.0691Z" fill="#74AAFF"/>
<path d="M26.6206 43.5009H18.8306C15.9706 43.5009 13.6406 41.1609 13.6406 38.3109V37.6609C13.6406 34.8009 15.9706 32.4609 18.8306 32.4609H26.6206C29.4806 32.4609 31.8206 34.8009 31.8206 37.6609V38.3109C31.8206 41.1609 29.4806 43.5009 26.6206 43.5009Z" fill="#FFC960"/>
<path d="M31.8219 38.3082V38.2282L29.1019 36.2682C27.3419 34.9982 24.8419 35.1582 23.4119 36.7882C21.7819 38.6582 22.1319 41.4782 24.1019 42.8982L24.9319 43.4982H26.6219C29.4819 43.4982 31.8219 41.1582 31.8219 38.3082Z" fill="#FFAA4C"/>
<path d="M69.761 45.9089L69.021 43.2489C68.721 42.1689 68.081 41.2089 67.191 40.5289L55.631 31.5689C53.821 30.1589 51.251 30.3289 49.631 31.9489L39.921 41.6989L31.811 35.8389C30.171 34.6589 27.851 34.7989 26.521 36.3189C25.001 38.0589 25.331 40.6789 27.161 41.9989L43.031 53.4589L37.461 54.1089C35.461 54.3389 33.841 56.0089 33.891 58.0289C33.931 60.3389 35.951 62.0489 38.191 61.7889L59.341 60.8889L64.211 64.3989L74.881 49.6089L69.761 45.9089Z" fill="#FF9F91"/>
<path d="M65.0184 61.5389L74.0484 49.0089L69.7584 45.9089L69.0184 43.2489C68.7184 42.1689 68.0784 41.2089 67.1884 40.5289L55.6284 31.5689C53.8184 30.1589 51.2484 30.3289 49.6284 31.9489L39.9184 41.6989L31.8084 35.8389C30.1184 34.6289 27.6984 34.8089 26.3984 36.4689C26.5184 37.5089 27.0584 38.4889 27.9684 39.1389L41.8184 49.1289C43.0284 50.0089 43.5684 51.5489 43.1584 52.9989L43.0284 53.4589L37.4584 54.1089C36.3584 54.2289 35.3884 54.8089 34.7284 55.6189C35.0184 57.6989 36.9084 59.1689 38.9984 58.9289L60.1484 58.0289L65.0184 61.5389Z" fill="#FFBFB4"/>
<path d="M78.4616 52.05L67.1016 67.84L62.8516 64.79L74.2216 49L78.4616 52.05Z" fill="#FF5F5F"/>
<path d="M68.7516 65.5405L67.1016 67.8405L62.8516 64.7905L64.5116 62.4805L68.7516 65.5405Z" fill="#E23B3B"/>
<path d="M14.6898 23.6417C14.5232 23.6417 14.3798 23.5851 14.2598 23.4717C14.1465 23.3517 14.0898 23.2051 14.0898 23.0317V15.1217C14.0898 14.9417 14.1465 14.7951 14.2598 14.6817C14.3798 14.5684 14.5232 14.5117 14.6898 14.5117H16.8098C17.4765 14.5117 18.0865 14.6251 18.6398 14.8517C19.1865 15.0717 19.6632 15.3851 20.0698 15.7917C20.4765 16.2051 20.7865 16.6884 20.9998 17.2417C21.2198 17.7951 21.3298 18.4051 21.3298 19.0717C21.3298 19.7451 21.2198 20.3584 20.9998 20.9117C20.7865 21.4717 20.4765 21.9551 20.0698 22.3617C19.6632 22.7684 19.1865 23.0851 18.6398 23.3117C18.0865 23.5317 17.4765 23.6417 16.8098 23.6417H14.6898ZM15.2998 22.5717H16.7998C17.4598 22.5717 18.0398 22.4217 18.5398 22.1217C19.0398 21.8217 19.4365 21.4084 19.7298 20.8817C20.0165 20.3551 20.1598 19.7517 20.1598 19.0717C20.1598 18.3851 20.0165 17.7817 19.7298 17.2617C19.4365 16.7417 19.0398 16.3317 18.5398 16.0317C18.0398 15.7384 17.4598 15.5917 16.7998 15.5917H15.2998V22.5717Z" fill="white"/>
<path d="M26.9916 23.7584C26.3049 23.7584 25.6782 23.6418 25.1116 23.4084C24.5382 23.1818 24.0482 22.8584 23.6416 22.4384C23.2349 22.0251 22.9182 21.5318 22.6916 20.9584C22.4649 20.3851 22.3516 19.7551 22.3516 19.0684C22.3516 18.3818 22.4649 17.7551 22.6916 17.1884C22.9182 16.6218 23.2349 16.1284 23.6416 15.7084C24.0482 15.2951 24.5382 14.9718 25.1116 14.7384C25.6782 14.5118 26.3049 14.3984 26.9916 14.3984C27.6782 14.3984 28.3016 14.5118 28.8616 14.7384C29.4282 14.9718 29.9182 15.2951 30.3316 15.7084C30.7449 16.1284 31.0649 16.6218 31.2916 17.1884C31.5182 17.7551 31.6316 18.3818 31.6316 19.0684C31.6316 19.7551 31.5182 20.3851 31.2916 20.9584C31.0649 21.5318 30.7449 22.0251 30.3316 22.4384C29.9182 22.8584 29.4282 23.1818 28.8616 23.4084C28.3016 23.6418 27.6782 23.7584 26.9916 23.7584ZM26.9916 22.6584C27.4982 22.6584 27.9616 22.5651 28.3816 22.3784C28.8082 22.1984 29.1782 21.9451 29.4916 21.6184C29.8049 21.2984 30.0449 20.9184 30.2116 20.4784C30.3782 20.0451 30.4616 19.5751 30.4616 19.0684C30.4616 18.5618 30.3782 18.0918 30.2116 17.6584C30.0449 17.2184 29.8049 16.8384 29.4916 16.5184C29.1782 16.1918 28.8082 15.9384 28.3816 15.7584C27.9616 15.5784 27.4982 15.4884 26.9916 15.4884C26.4849 15.4884 26.0182 15.5784 25.5916 15.7584C25.1649 15.9384 24.7982 16.1918 24.4916 16.5184C24.1849 16.8384 23.9449 17.2184 23.7716 17.6584C23.6049 18.0918 23.5216 18.5618 23.5216 19.0684C23.5216 19.5751 23.6049 20.0451 23.7716 20.4784C23.9449 20.9184 24.1849 21.2984 24.4916 21.6184C24.7982 21.9451 25.1649 22.1984 25.5916 22.3784C26.0182 22.5651 26.4849 22.6584 26.9916 22.6584Z" fill="white"/>
<path d="M33.9008 23.6417C33.7275 23.6417 33.5841 23.5851 33.4708 23.4717C33.3574 23.3517 33.3008 23.2051 33.3008 23.0317V15.1217C33.3008 14.9417 33.3574 14.7951 33.4708 14.6817C33.5841 14.5684 33.7275 14.5117 33.9008 14.5117C34.0875 14.5117 34.2408 14.5884 34.3608 14.7417L39.4608 21.5117V15.1217C39.4608 14.9417 39.5174 14.7951 39.6308 14.6817C39.7508 14.5684 39.8974 14.5117 40.0708 14.5117C40.2508 14.5117 40.3941 14.5684 40.5008 14.6817C40.6074 14.7951 40.6608 14.9417 40.6608 15.1217V23.0317C40.6608 23.2051 40.6074 23.3517 40.5008 23.4717C40.3941 23.5851 40.2508 23.6417 40.0708 23.6417C39.9908 23.6417 39.9074 23.6251 39.8208 23.5917C39.7274 23.5584 39.6541 23.5051 39.6008 23.4317L34.5008 16.6517V23.0317C34.5008 23.2051 34.4441 23.3517 34.3308 23.4717C34.2175 23.5851 34.0741 23.6417 33.9008 23.6417Z" fill="white"/>
<path d="M42.4018 23.6417C42.1885 23.6417 42.0218 23.5484 41.9018 23.3617C41.7885 23.1751 41.7785 22.9751 41.8718 22.7617L45.1518 14.9217C45.2718 14.6484 45.4618 14.5117 45.7218 14.5117C46.0018 14.5117 46.1952 14.6484 46.3018 14.9217L49.5918 22.7917C49.6785 23.0117 49.6652 23.2084 49.5518 23.3817C49.4385 23.5551 49.2685 23.6417 49.0418 23.6417C48.9285 23.6417 48.8185 23.6084 48.7118 23.5417C48.6052 23.4751 48.5285 23.3851 48.4818 23.2717L45.5818 16.0717H45.9118L42.9618 23.2717C42.9085 23.3917 42.8285 23.4851 42.7218 23.5517C42.6218 23.6117 42.5152 23.6417 42.4018 23.6417ZM43.0218 21.6317L43.4918 20.6317H48.0718L48.5418 21.6317H43.0218Z" fill="white"/>
<path d="M49.3803 15.6317C49.2136 15.6317 49.0803 15.5817 48.9803 15.4817C48.8736 15.3751 48.8203 15.2384 48.8203 15.0717C48.8203 14.9117 48.8736 14.7784 48.9803 14.6717C49.0803 14.5651 49.2136 14.5117 49.3803 14.5117H55.6303C55.797 14.5117 55.9336 14.5651 56.0403 14.6717C56.1403 14.7784 56.1903 14.9117 56.1903 15.0717C56.1903 15.2384 56.1403 15.3751 56.0403 15.4817C55.9336 15.5817 55.797 15.6317 55.6303 15.6317H49.3803ZM52.5103 23.6417C52.3436 23.6417 52.2003 23.5851 52.0803 23.4717C51.967 23.3517 51.9103 23.2051 51.9103 23.0317V14.5117H53.1203V23.0317C53.1203 23.2051 53.0636 23.3517 52.9503 23.4717C52.8303 23.5851 52.6836 23.6417 52.5103 23.6417Z" fill="white"/>
<path d="M57.9108 23.6417C57.7374 23.6417 57.5941 23.5851 57.4808 23.4717C57.3608 23.3517 57.3008 23.2051 57.3008 23.0317V15.1217C57.3008 14.9417 57.3608 14.7951 57.4808 14.6817C57.5941 14.5684 57.7374 14.5117 57.9108 14.5117H63.1908C63.3708 14.5117 63.5174 14.5651 63.6308 14.6717C63.7374 14.7784 63.7908 14.9184 63.7908 15.0917C63.7908 15.2517 63.7374 15.3817 63.6308 15.4817C63.5174 15.5817 63.3708 15.6317 63.1908 15.6317H58.5208V18.4717H61.8708C62.0508 18.4717 62.1975 18.5251 62.3108 18.6317C62.4175 18.7384 62.4708 18.8751 62.4708 19.0417C62.4708 19.2017 62.4175 19.3351 62.3108 19.4417C62.1975 19.5484 62.0508 19.6017 61.8708 19.6017H58.5208V22.5217H63.1908C63.3708 22.5217 63.5174 22.5717 63.6308 22.6717C63.7374 22.7717 63.7908 22.9051 63.7908 23.0717C63.7908 23.2384 63.7374 23.3751 63.6308 23.4817C63.5174 23.5884 63.3708 23.6417 63.1908 23.6417H57.9108Z" fill="white"/>
<path d="M62.8114 64.3682C62.6047 64.3682 62.4147 64.3048 62.2414 64.1782L59.0414 61.8782L38.2714 62.7582C36.9314 62.9082 35.5814 62.4882 34.5714 61.5982C33.5414 60.7082 32.9414 59.4082 32.9114 58.0482C32.8614 55.5882 34.8114 53.4282 37.3514 53.1382L40.4314 52.7782L26.5914 42.7882C25.4814 41.9982 24.7614 40.7682 24.6114 39.4182C24.4614 38.0682 24.8914 36.7082 25.7914 35.6782C27.4114 33.8282 30.3014 33.5582 32.3714 35.0482L39.8214 40.4182L48.9414 31.2582C50.9014 29.2982 54.0314 29.0982 56.2314 30.7982L67.7914 39.7582C68.8314 40.5682 69.6014 41.7082 69.9614 42.9882L70.6114 45.3182L74.0314 47.7882C74.4614 48.1082 74.5614 48.7082 74.2514 49.1482C73.9314 49.5882 73.3214 49.6882 72.8914 49.3682L69.1914 46.6982C69.0047 46.5648 68.8814 46.3882 68.8214 46.1682L68.0814 43.5082C67.8414 42.6382 67.3114 41.8482 66.5914 41.2982L55.0314 32.3382C53.6114 31.2382 51.5914 31.3682 50.3214 32.6382L40.6114 42.3782C40.2714 42.7182 39.7414 42.7682 39.3514 42.4882L31.2414 36.6282C29.9714 35.7182 28.2214 35.8582 27.2514 36.9582C26.7014 37.5882 26.4514 38.3782 26.5514 39.1982C26.6414 40.0082 27.0714 40.7382 27.7314 41.2082L43.6014 52.6682C43.9314 52.8982 44.0814 53.3082 43.9814 53.6982C43.8714 54.0882 43.5414 54.3782 43.1514 54.4182L37.5714 55.0682C36.0214 55.2482 34.8314 56.5382 34.8614 58.0082C34.8814 58.8382 35.2314 59.5882 35.8514 60.1282C36.4614 60.6682 37.2714 60.9182 38.0814 60.8182C38.1014 60.8182 38.1247 60.8182 38.1514 60.8182L59.3014 59.9182C59.5214 59.9115 59.7247 59.9715 59.9114 60.0982L63.3814 62.5982C63.8114 62.9182 63.9114 63.5282 63.6014 63.9582C63.4114 64.2282 63.1114 64.3682 62.8114 64.3682Z" fill="#252D32"/>
<path d="M66.9188 69.2719C66.7121 69.2719 66.5221 69.2119 66.3488 69.0919L61.7988 65.8019C61.3688 65.4919 61.2688 64.8819 61.5788 64.4419L73.6788 47.6719C73.8388 47.4586 74.0521 47.3286 74.3188 47.2819C74.5788 47.2419 74.8188 47.2986 75.0388 47.4519L79.5988 50.7319C80.0288 51.0519 80.1288 51.6519 79.8188 52.0919L67.7088 68.8719C67.5555 69.0853 67.3455 69.2153 67.0788 69.2619C67.0255 69.2686 66.9721 69.2719 66.9188 69.2719ZM63.7288 64.7919L66.6988 66.9419L77.6688 51.7419L74.6888 49.6019L63.7288 64.7919Z" fill="#252D32"/>
<path d="M32.79 59.09H2.68C1.2 59.09 0 57.88 0 56.4V2.68C0 1.2 1.2 0 2.68 0H75.23C76.71 0 77.91 1.2 77.91 2.68V49.02C77.91 49.56 77.48 50 76.94 50C76.4 50 75.97 49.56 75.97 49.02V2.68C75.97 2.28 75.64 1.95 75.23 1.95H2.68C2.28 1.95 1.95 2.28 1.95 2.68V56.4C1.95 56.81 2.28 57.14 2.68 57.14H32.79C33.33 57.14 33.76 57.57 33.76 58.11C33.76 58.65 33.33 59.09 32.79 59.09Z" fill="#252D32"/>
<path d="M40.9098 53.8898H6.48984C6.12984 53.8898 5.83984 53.5998 5.83984 53.2398C5.83984 52.8798 6.12984 52.5898 6.48984 52.5898H40.9098C41.2598 52.5898 41.5498 52.8798 41.5498 53.2398C41.5498 53.5998 41.2598 53.8898 40.9098 53.8898Z" fill="#252D32"/>
<path d="M26.9483 44.1503H19.1483C15.7483 44.1503 12.9883 41.3803 12.9883 37.9803C12.9883 34.5803 15.7483 31.8203 19.1483 31.8203H26.9483C29.1383 31.8203 31.1983 33.0103 32.2983 34.9303C32.4783 35.2403 32.3683 35.6403 32.0583 35.8103C31.7483 35.9903 31.3483 35.8903 31.1683 35.5703C30.2983 34.0603 28.6783 33.1103 26.9483 33.1103H19.1483C16.4683 33.1103 14.2783 35.3003 14.2783 37.9803C14.2783 40.6703 16.4683 42.8503 19.1483 42.8503H26.9483C27.3616 42.8503 27.7683 42.8003 28.1683 42.7003C28.5083 42.6103 28.8683 42.8103 28.9583 43.1603C29.0483 43.5103 28.8383 43.8603 28.4883 43.9503C27.9816 44.0836 27.4683 44.1503 26.9483 44.1503Z" fill="#252D32"/>
</g>
<defs>
<clipPath id="clip0_1253_11473">
<rect width="80" height="80" fill="white"/>
</clipPath>
</defs>
</svg>
