<svg width="80" height="80" viewBox="0 0 80 80" fill="none" xmlns="http://www.w3.org/2000/svg">
<g clip-path="url(#clip0_1253_11442)">
<path d="M36.2408 69.3581H20.7528V64.7101L7.58477 47.6701L0.81677 22.8541C0.69677 22.4141 0.88877 21.9501 1.27277 21.7181C3.02477 20.6621 5.30477 21.2861 6.28077 23.0781L13.7848 36.8301L14.3848 36.3261C16.5688 34.5021 19.8408 34.8701 21.5688 37.1341C23.5368 39.7261 25.8968 42.7421 26.9448 43.7981C28.4968 45.3421 34.5928 48.8941 35.4648 52.3181C36.5528 56.5661 36.2408 69.3581 36.2408 69.3581Z" fill="#FF9F91"/>
<path d="M49.4634 0.59375C45.7114 0.59375 42.3114 2.11375 39.7834 4.58575C37.2634 2.11375 33.8554 0.59375 30.1034 0.59375C22.3274 0.59375 16.0234 7.08975 16.0234 15.1137C16.0234 31.4498 39.7834 45.6017 39.7834 45.6017C39.7834 45.6017 63.5514 31.4498 63.5514 15.1137C63.5514 7.08975 57.2474 0.59375 49.4634 0.59375Z" fill="#E23B3B"/>
<path d="M30.1034 0.59375C22.3274 0.59375 16.0234 7.08975 16.0234 15.1137C16.0234 26.6417 27.8554 37.0898 34.8234 42.2338C39.8314 38.9538 57.2474 26.5778 57.2474 12.5938C57.2474 7.68175 54.8794 3.34575 51.2554 0.72175C50.6688 0.64175 50.0714 0.599083 49.4634 0.59375C45.7114 0.59375 42.3114 2.11375 39.7834 4.58575C37.2634 2.11375 33.8554 0.59375 30.1034 0.59375Z" fill="#FF5F5F"/>
<path d="M35.3445 52.3207C34.4645 48.8967 28.3045 45.3447 26.7445 43.8007C25.6725 42.7367 23.2645 39.6887 21.2725 37.0887C19.5445 34.8407 16.2965 34.4727 14.1125 36.2807L13.4405 36.8327L5.86448 23.0807C5.34448 22.1367 4.45648 21.5287 3.48048 21.3047C3.47248 21.3047 10.3125 46.1207 10.3125 46.1207L22.0485 61.1527C23.0645 62.4567 23.6165 64.0567 23.6165 65.7047V69.3607H36.1285C36.1285 69.3607 36.4485 56.5687 35.3445 52.3207Z" fill="#FFBFB4"/>
<path d="M37.2019 69.3594V75.0794H20.7539V69.3594H37.2019Z" fill="#74AAFF"/>
<path d="M23.6179 69.3594V75.0794H20.7539V69.3594H23.6179Z" fill="#4F88FF"/>
<path d="M43.8813 69.3581H59.3693V64.7101L72.5373 47.6701L79.3053 22.8541C79.4253 22.4141 79.2333 21.9501 78.8493 21.7181C77.0973 20.6621 74.8173 21.2861 73.8413 23.0781L66.3373 36.8301L65.7373 36.3261C63.5533 34.5021 60.2813 34.8701 58.5533 37.1341C56.5853 39.7261 54.2253 42.7421 53.1773 43.7981C51.6253 45.3421 45.5293 48.8941 44.6573 52.3181C43.5693 56.5661 43.8813 69.3581 43.8813 69.3581Z" fill="#FF9F91"/>
<path d="M44.7763 52.3207C45.6563 48.8967 51.8163 45.3447 53.3763 43.8007C54.4483 42.7367 56.8563 39.6887 58.8483 37.0887C60.5763 34.8407 63.8243 34.4727 66.0083 36.2807L66.6803 36.8327L74.2563 23.0807C74.7763 22.1367 75.6643 21.5287 76.6403 21.3047C76.6483 21.3047 69.8083 46.1207 69.8083 46.1207L58.0723 61.1527C57.0563 62.4567 56.5123 64.0567 56.5123 65.7047V69.3607H43.9923C43.9923 69.3607 43.6723 56.5687 44.7763 52.3207Z" fill="#FFBFB4"/>
<path d="M59.3699 69.3594V75.0794H42.9219V69.3594H59.3699Z" fill="#74AAFF"/>
<path d="M59.3677 69.3594V75.0794H56.5117V69.3594H59.3677Z" fill="#4F88FF"/>
<path d="M21.111 70.0716C20.519 70.0716 20.039 69.5916 20.039 68.9996V67.6956C20.039 66.5676 19.863 65.6156 19.031 64.6156L7.90302 49.9436C7.20702 49.1916 6.67102 48.2716 6.35902 47.2876L0.21502 24.2396C-0.0729802 23.1516 0.28702 22.0316 1.13502 21.3756C2.09502 20.6396 3.31902 20.3756 4.49502 20.6476C5.67102 20.9196 6.65502 21.6956 7.18302 22.7756L14.655 37.5756C14.919 38.1036 14.711 38.7436 14.183 39.0156C13.655 39.2796 13.007 39.0716 12.743 38.5356L5.26302 23.7356C5.01502 23.2236 4.55902 22.8636 4.00702 22.7356C3.46302 22.6156 2.89502 22.7356 2.44702 23.0796C2.29502 23.1996 2.23102 23.4476 2.28702 23.6796L8.42302 46.6876C8.62302 47.3436 9.00702 47.9836 9.51102 48.5196C9.53769 48.5462 9.56169 48.5756 9.58302 48.6076L20.711 63.2796C21.999 64.8236 22.183 66.3836 22.183 67.6956V68.9996C22.183 69.5916 21.703 70.0716 21.111 70.0716Z" fill="#252D32"/>
<path d="M36.8419 70.0704C36.2499 70.0704 35.7699 69.5904 35.7699 68.9984V58.9024C35.7539 58.5184 35.7406 58.1237 35.7299 57.7184C35.6259 53.6704 35.5539 51.2304 29.3939 47.2144L29.1139 47.0304C27.3219 45.8624 25.7699 44.8464 24.3699 42.7984L21.6419 38.8064C19.7699 36.0784 16.9299 36.3904 15.5859 37.2224C15.3886 37.3451 15.2632 37.5237 15.2099 37.7584C15.1619 38.0064 15.2099 38.2624 15.3539 38.4704L22.0659 48.3504C22.4019 48.8464 22.2739 49.5104 21.7779 49.8464C21.2899 50.1744 20.6259 50.0464 20.2899 49.5584L13.5779 39.6704C13.1139 38.9904 12.9379 38.1264 13.1139 37.3104C13.2819 36.5104 13.7619 35.8304 14.4579 35.3984C16.9859 33.8304 20.9859 34.0624 23.4099 37.5904L26.1459 41.5824C27.2979 43.2864 28.6179 44.1424 30.2899 45.2304L30.5699 45.4144C37.6739 50.0464 37.7619 53.4064 37.8739 57.6624C37.8846 58.0517 37.8979 58.4517 37.9139 58.8624V68.9984C37.9139 69.5904 37.4339 70.0704 36.8419 70.0704Z" fill="#252D32"/>
<path d="M39.9844 46.2945C39.7924 46.2945 39.6137 46.2465 39.4484 46.1505C38.4404 45.5665 14.8164 31.7345 14.8164 15.2465C14.8164 6.78253 21.7044 -0.105469 30.1684 -0.105469C33.7764 -0.105469 37.2244 1.15853 39.9844 3.46253C42.7364 1.15853 46.1924 -0.105469 49.7924 -0.105469C58.2564 -0.105469 65.1444 6.78253 65.1444 15.2465C65.1444 31.7345 41.5204 45.5665 40.5204 46.1505C40.3497 46.2465 40.1711 46.2945 39.9844 46.2945ZM30.1684 2.03853C22.8884 2.03853 16.9684 7.96653 16.9684 15.2465C16.9684 29.1905 36.4644 41.8065 39.9844 43.9665C43.4964 41.8065 63.0004 29.1905 63.0004 15.2465C63.0004 7.96653 57.0724 2.03853 49.7924 2.03853C46.4084 2.03853 43.1924 3.33453 40.7204 5.67053C40.3044 6.06253 39.6564 6.06253 39.2404 5.67053C36.7764 3.33453 33.5524 2.03853 30.1684 2.03853Z" fill="#252D32"/>
<path d="M37.5603 76.5137H20.3923C19.8003 76.5137 19.3203 76.0257 19.3203 75.4337V69.0017C19.3203 68.4097 19.8003 67.9297 20.3923 67.9297C20.9843 67.9297 21.4643 68.4097 21.4643 69.0017V74.3617H36.4883V69.0017C36.4883 68.4097 36.9683 67.9297 37.5603 67.9297C38.1523 67.9297 38.6323 68.4097 38.6323 69.0017V75.4337C38.6323 76.0257 38.1523 76.5137 37.5603 76.5137Z" fill="#252D32"/>
<path d="M37.1991 70.0726H20.7511C20.3591 70.0726 20.0391 69.7526 20.0391 69.3606C20.0391 68.9606 20.3591 68.6406 20.7511 68.6406H37.1991C37.5911 68.6406 37.9111 68.9606 37.9111 69.3606C37.9111 69.7526 37.5911 70.0726 37.1991 70.0726Z" fill="#252D32"/>
<path d="M59.0095 70.0716C58.4175 70.0716 57.9375 69.5916 57.9375 68.9996V67.6956C57.9375 66.3836 58.1215 64.8236 59.4495 63.2396L70.5375 48.6076C70.5588 48.5756 70.5828 48.5462 70.6095 48.5196C71.1135 47.9836 71.4975 47.3436 71.7135 46.6476L77.8335 23.6876C77.8975 23.4476 77.8255 23.1996 77.6735 23.0796C77.2255 22.7356 76.6575 22.6156 76.1135 22.7356C75.5615 22.8636 75.1055 23.2236 74.8575 23.7276L67.3775 38.5356C67.1135 39.0716 66.4655 39.2796 65.9375 39.0156C65.4095 38.7436 65.2015 38.1036 65.4655 37.5756L72.9375 22.7676C73.4655 21.6956 74.4495 20.9196 75.6255 20.6476C76.8015 20.3756 78.0255 20.6396 78.9855 21.3756C79.8335 22.0316 80.1935 23.1516 79.9055 24.2396L73.7695 47.2396C73.4495 48.2716 72.9135 49.1916 72.2175 49.9436L61.1215 64.5756C60.2575 65.6156 60.0815 66.5676 60.0815 67.6956V68.9996C60.0815 69.5916 59.6015 70.0716 59.0095 70.0716Z" fill="#252D32"/>
<path d="M43.279 70.0739C42.687 70.0739 42.207 69.5939 42.207 69.0019V58.9059C42.223 58.4579 42.2364 58.0446 42.247 57.6659C42.359 53.4099 42.447 50.0499 49.551 45.4179L49.831 45.2339C51.503 44.1459 52.823 43.2899 53.975 41.5939L56.711 37.6019C59.135 34.0659 63.135 33.8339 65.663 35.4019C66.359 35.8339 66.839 36.5139 67.007 37.3139C67.183 38.1299 67.007 38.9939 66.543 39.6739L59.831 49.5619C59.495 50.0499 58.831 50.1779 58.343 49.8499C57.847 49.5139 57.719 48.8499 58.055 48.3539L64.767 38.4739C64.911 38.2659 64.959 38.0099 64.911 37.7619C64.8577 37.5272 64.7324 37.3486 64.535 37.2259C63.191 36.3939 60.351 36.0819 58.479 38.8099L55.743 42.8019C54.351 44.8499 52.799 45.8659 51.007 47.0339L50.727 47.2179C44.567 51.2339 44.495 53.6739 44.391 57.7219C44.3804 58.1219 44.367 58.5326 44.351 58.9539V69.0019C44.351 69.5939 43.871 70.0739 43.279 70.0739Z" fill="#252D32"/>
<path d="M59.7283 76.5137H42.5603C41.9683 76.5137 41.4883 76.0257 41.4883 75.4337V69.0017C41.4883 68.4097 41.9683 67.9297 42.5603 67.9297C43.1523 67.9297 43.6323 68.4097 43.6323 69.0017V74.3617H58.6563V69.0017C58.6563 68.4097 59.1363 67.9297 59.7283 67.9297C60.3203 67.9297 60.8003 68.4097 60.8003 69.0017V75.4337C60.8003 76.0257 60.3203 76.5137 59.7283 76.5137Z" fill="#252D32"/>
<path d="M59.367 70.0726H42.919C42.527 70.0726 42.207 69.7526 42.207 69.3606C42.207 68.9606 42.527 68.6406 42.919 68.6406H59.367C59.759 68.6406 60.079 68.9606 60.079 69.3606C60.079 69.7526 59.759 70.0726 59.367 70.0726Z" fill="#252D32"/>
</g>
<defs>
<clipPath id="clip0_1253_11442">
<rect width="80" height="80" fill="white"/>
</clipPath>
</defs>
</svg>
