<svg width="80" height="80" viewBox="0 0 80 80" fill="none" xmlns="http://www.w3.org/2000/svg">
<g clip-path="url(#clip0_1253_11525)">
<path d="M56.9394 53.3314H15.8594V31.7214C15.8594 21.7614 23.9294 13.6914 33.8794 13.6914H38.9094C48.8694 13.6914 56.9394 21.7614 56.9394 31.7214V53.3314Z" fill="#C5D5F0"/>
<path d="M53.3294 53.3314H15.8594V31.7214C15.8594 21.7614 23.9294 13.6914 33.8794 13.6914H35.3094C45.2594 13.6914 53.3294 21.7614 53.3294 31.7214V53.3314Z" fill="#DCE6F6"/>
<path d="M69.9094 34.9497C69.9094 26.7997 63.7794 20.1797 56.2194 20.1797C48.6494 20.1797 42.5194 26.7997 42.5194 34.9497C42.5194 39.8397 44.7294 44.1597 48.1094 46.8497H46.8494C44.8594 46.8497 43.2394 48.4597 43.2394 50.4497H38.3394C35.5394 50.4497 33.6694 49.7797 31.2094 48.5397C27.5694 46.7097 23.9394 45.9897 19.0094 46.1297C18.9094 46.1297 16.4094 46.3397 15.8694 46.4397L15.8594 49.7297C20.3994 49.6097 26.9794 49.5197 30.2694 51.1697C32.9694 52.5297 34.9794 53.3297 38.1994 53.3297H44.6994C45.2994 53.7797 46.0394 54.0497 46.8494 54.0497H50.2094H54.0494H54.7694V53.9797C56.4194 53.6497 57.6594 52.1897 57.6594 50.4497C57.6527 50.1764 57.6194 49.913 57.5594 49.6597C64.4894 48.9297 69.9094 42.6197 69.9094 34.9497Z" fill="#C5D5F0"/>
<path d="M51.8891 61.2608H73.5091C75.4991 61.2608 77.1191 59.6508 77.1191 57.6608C77.1191 55.6708 75.4991 54.0508 73.5091 54.0508H51.8891C49.8991 54.0508 48.2891 55.6708 48.2891 57.6608C48.2891 59.6508 49.8991 61.2608 51.8891 61.2608Z" fill="#FFAA4C"/>
<path d="M8.65141 50.4492V73.5092H1.44141V50.4492H8.65141Z" fill="#74AAFF"/>
<path d="M8.65141 69.9102V73.5102H1.44141V69.9102H8.65141Z" fill="#4F88FF"/>
<path d="M51.5291 60.5408H69.5491C71.3391 60.5408 72.7891 59.0908 72.7891 57.3008C72.7891 55.5108 71.3391 54.0508 69.5491 54.0508H51.5291C49.7391 54.0508 48.2891 55.5108 48.2891 57.3008C48.2891 59.0908 49.7391 60.5408 51.5291 60.5408Z" fill="#FFC960"/>
<path d="M9.37109 53.3317V71.3517L40.7211 75.9217C42.8511 76.2317 45.0311 76.0317 47.0611 75.3217L77.5511 64.7517C78.5311 64.4117 79.0911 63.3817 78.8411 62.3717L78.7011 61.8117C78.2111 59.8717 76.3211 58.6117 74.3411 58.9117L53.3311 61.9817L53.0511 58.8817C52.8011 56.1517 50.5111 54.0517 47.7611 54.0517H38.9011C36.2611 54.0517 33.6511 53.4717 31.2911 52.3117C28.3111 50.8517 23.9511 49.0117 20.9011 49.0117C15.8611 49.0117 9.37109 53.3317 9.37109 53.3317Z" fill="#FF9F91"/>
<path d="M47.0611 71.7217L77.5511 61.1517C77.8111 61.0584 78.0378 60.9217 78.2311 60.7417C77.4411 59.4317 75.9211 58.6717 74.3411 58.9117L53.3311 61.9817L53.0511 58.8817C52.8011 56.1517 50.5111 54.0517 47.7611 54.0517H38.9011C36.2611 54.0517 33.6511 53.4717 31.2911 52.3117C28.3111 50.8517 23.9511 49.0117 20.9011 49.0117C15.8611 49.0117 9.37109 53.3317 9.37109 53.3317V67.7517L40.7211 72.3217C42.8511 72.6317 45.0311 72.4217 47.0611 71.7217Z" fill="#FFBFB4"/>
<path d="M12.2511 52.6094V71.3494H9.37109V52.6094H12.2511Z" fill="#FF9F91"/>
<path d="M59.1002 47.5697C51.5302 47.5697 45.4102 41.4497 45.4102 33.8697C45.4102 26.2997 51.5302 20.1797 59.1002 20.1797C66.6702 20.1797 72.7902 26.2997 72.7902 33.8697C72.7902 41.4497 66.6702 47.5697 59.1002 47.5697Z" fill="#FFAA4C"/>
<path d="M48.2902 54.0491H70.6302C72.2202 54.0491 73.5102 52.7591 73.5102 51.1691C73.5102 49.5791 72.2202 48.2891 70.6302 48.2891H48.2902C46.7002 48.2891 45.4102 49.5791 45.4102 51.1691C45.4102 52.7591 46.7002 54.0491 48.2902 54.0491Z" fill="#FFAA4C"/>
<path d="M47.9302 53.3291H67.3902C68.7802 53.3291 69.9102 52.1991 69.9102 50.8091C69.9102 49.4191 68.7802 48.2891 67.3902 48.2891H47.9302C46.5302 48.2891 45.4102 49.4191 45.4102 50.8091C45.4102 52.1991 46.5302 53.3291 47.9302 53.3291Z" fill="#FFC960"/>
<path d="M41.0809 10.0898V13.6898H31.7109V10.0898H41.0809Z" fill="#DCE6F6"/>
<path d="M41.0801 10.0887H31.7101L25.9701 2.62875C25.3701 1.84875 25.9301 0.71875 26.9101 0.71875H45.8801C46.8701 0.71875 47.4201 1.84875 46.8201 2.62875L41.0801 10.0887Z" fill="#C5D5F0"/>
<path d="M41.0792 10.0898V13.6898H38.1992V10.0898H41.0792Z" fill="#C5D5F0"/>
<path d="M43.0001 0.71875H26.9101C25.9301 0.71875 25.3701 1.84875 25.9701 2.62875L31.7101 10.0887H38.2001L43.9401 2.62875C44.5401 1.84875 43.9801 0.71875 43.0001 0.71875Z" fill="#DCE6F6"/>
<path d="M30.2681 19.4605C30.1214 19.4605 29.9848 19.4172 29.8581 19.3305C29.5281 19.1005 29.4481 18.6605 29.6781 18.3305L32.9181 13.6405C33.1481 13.3205 33.5981 13.2305 33.9181 13.4605C34.2481 13.6905 34.3281 14.1405 34.1081 14.4605L30.8581 19.1505C30.7181 19.3505 30.4981 19.4605 30.2681 19.4605Z" fill="#C5D5F0"/>
<path d="M42.5187 19.4595C42.2687 19.4595 42.0187 19.3195 41.8887 19.0795L39.3687 14.3995C39.1787 14.0495 39.3087 13.6095 39.6587 13.4195C40.0087 13.2295 40.4487 13.3595 40.6287 13.7095L43.1587 18.3995C43.3487 18.7495 43.2087 19.1795 42.8587 19.3695C42.752 19.4295 42.6387 19.4595 42.5187 19.4595Z" fill="#C5D5F0"/>
<path d="M36.7591 21.6214C36.3591 21.6214 36.0391 21.3014 36.0391 20.9014V14.4114C36.0391 14.0214 36.3591 13.6914 36.7591 13.6914C37.1591 13.6914 37.4791 14.0214 37.4791 14.4114V20.9014C37.4791 21.3014 37.1591 21.6214 36.7591 21.6214Z" fill="#C5D5F0"/>
<path d="M43.0284 77.6387C42.5218 77.632 42.0218 77.5887 41.5284 77.5087L10.3684 72.7887H9.72844C9.12844 72.7887 8.64844 72.3087 8.64844 71.7087C8.64844 71.1087 9.12844 70.6287 9.72844 70.6287H10.4484C10.5018 70.6287 10.5551 70.632 10.6084 70.6387L41.8584 75.3787C42.9584 75.5487 44.0884 75.4787 45.1384 75.1687L76.9584 64.0487C77.4784 63.8587 77.8384 63.3587 77.8384 62.7987C77.8384 61.9087 77.4484 61.0587 76.7784 60.4787C76.1084 59.8887 75.2084 59.6187 74.3284 59.7487L53.1184 62.6887C52.5284 62.7687 51.9784 62.3587 51.8984 61.7687C51.8184 61.1787 52.2284 60.6287 52.8184 60.5487L74.0284 57.6087C75.5384 57.3887 77.0484 57.8487 78.1984 58.8487C79.3384 59.8387 79.9984 61.2787 79.9984 62.7987C79.9984 64.2787 79.0584 65.5987 77.6684 66.0887L45.8084 77.2187C44.8884 77.4987 43.9618 77.6387 43.0284 77.6387Z" fill="#252D32"/>
<path d="M9.01 74.9517H1.08C0.48 74.9517 0 74.4717 0 73.8717V50.0917C0 49.4917 0.48 49.0117 1.08 49.0117H9.01C9.61 49.0117 10.09 49.4917 10.09 50.0917V73.8717C10.09 74.4717 9.61 74.9517 9.01 74.9517ZM7.93 51.1717V72.7917H2.16V51.1717H7.93Z" fill="#252D32"/>
<path d="M51.1584 63.4196H34.2284C33.6384 63.4196 33.1484 62.9396 33.1484 62.3396C33.1484 61.7496 33.6384 61.2596 34.2284 61.2596H51.1584C51.9584 61.2596 52.6084 60.6096 52.6084 59.8096C52.6084 57.0296 50.3484 54.7696 47.5784 54.7696H38.3384C34.7084 54.7696 32.1684 53.8696 29.2584 52.3996C26.2584 50.8996 23.3284 50.3396 19.1284 50.4496C16.1584 50.5296 13.9884 51.8996 12.4084 52.8896C11.3284 53.5696 10.5484 54.0496 9.72844 54.0496C9.12844 54.0496 8.64844 53.5696 8.64844 52.9696C8.64844 52.3796 9.12844 51.8896 9.72844 51.8896C9.96844 51.8696 10.6784 51.4196 11.2584 51.0596C12.9484 49.9996 15.5084 48.3896 19.0684 48.2896C23.5984 48.1596 26.9284 48.8096 30.2284 50.4696C32.9284 51.8296 35.1184 52.6096 38.3384 52.6096H47.5784C51.5384 52.6096 54.7684 55.8396 54.7684 59.8096C54.7684 61.7996 53.1484 63.4196 51.1584 63.4196Z" fill="#252D32"/>
<path d="M58.9482 40.18C58.2949 40.18 57.6749 40.0767 57.0882 39.87C56.5015 39.67 55.9882 39.3867 55.5482 39.02C55.1149 38.6533 54.7949 38.2333 54.5882 37.76C54.4882 37.5467 54.4915 37.3467 54.5982 37.16C54.7049 36.98 54.8849 36.8633 55.1382 36.81C55.3182 36.77 55.4982 36.8 55.6782 36.9C55.8582 36.9933 55.9915 37.1367 56.0782 37.33C56.2049 37.5833 56.4082 37.8167 56.6882 38.03C56.9615 38.2433 57.2982 38.4167 57.6982 38.55C58.0915 38.6767 58.5082 38.7433 58.9482 38.75C59.4349 38.75 59.8815 38.6733 60.2882 38.52C60.7015 38.3667 61.0349 38.1433 61.2882 37.85C61.5415 37.5633 61.6682 37.2067 61.6682 36.78C61.6682 36.24 61.4582 35.7567 61.0382 35.33C60.6182 34.91 59.9249 34.6467 58.9582 34.54C57.6982 34.42 56.7082 34.05 55.9882 33.43C55.2682 32.81 54.9082 32.0433 54.9082 31.13C54.9082 30.4633 55.0982 29.8967 55.4782 29.43C55.8515 28.9633 56.3615 28.6067 57.0082 28.36C57.6482 28.12 58.3649 28 59.1582 28C59.7782 28 60.3182 28.0833 60.7782 28.25C61.2382 28.4233 61.6415 28.6633 61.9882 28.97C62.3349 29.2767 62.6349 29.6367 62.8882 30.05C63.0282 30.2767 63.0882 30.4867 63.0682 30.68C63.0415 30.88 62.9415 31.0367 62.7682 31.15C62.5749 31.27 62.3649 31.2933 62.1382 31.22C61.9182 31.1533 61.7515 31.0233 61.6382 30.83C61.4782 30.5367 61.2815 30.2867 61.0482 30.08C60.8149 29.88 60.5415 29.72 60.2282 29.6C59.9082 29.4867 59.5349 29.43 59.1082 29.43C58.3615 29.4167 57.7349 29.5567 57.2282 29.85C56.7215 30.1367 56.4682 30.58 56.4682 31.18C56.4682 31.48 56.5449 31.77 56.6982 32.05C56.8582 32.33 57.1482 32.5733 57.5682 32.78C57.9882 32.98 58.5949 33.12 59.3882 33.2C60.5949 33.3267 61.5349 33.6967 62.2082 34.31C62.8882 34.9233 63.2282 35.73 63.2282 36.73C63.2282 37.31 63.1082 37.8133 62.8682 38.24C62.6282 38.6667 62.3082 39.0267 61.9082 39.32C61.5082 39.6067 61.0515 39.82 60.5382 39.96C60.0249 40.1067 59.4949 40.18 58.9482 40.18Z" fill="#252D32"/>
<path d="M59.0989 28.8305C58.6989 28.8305 58.3789 28.5105 58.3789 28.1105V25.9505C58.3789 25.5505 58.6989 25.2305 59.0989 25.2305C59.4989 25.2305 59.8189 25.5505 59.8189 25.9505V28.1105C59.8189 28.5105 59.4989 28.8305 59.0989 28.8305Z" fill="#252D32"/>
<path d="M59.0989 42.5219C58.6989 42.5219 58.3789 42.2019 58.3789 41.8019V39.6419C58.3789 39.2419 58.6989 38.9219 59.0989 38.9219C59.4989 38.9219 59.8189 39.2419 59.8189 39.6419V41.8019C59.8189 42.2019 59.4989 42.5219 59.0989 42.5219Z" fill="#252D32"/>
<path d="M75.9891 59.6181C75.8091 59.6181 75.6457 59.5548 75.4991 59.4281C75.2091 59.1481 75.1891 58.6981 75.4591 58.4081C75.8291 58.0081 76.0391 57.4781 76.0391 56.9381C76.0391 55.7381 75.0691 54.7681 73.8691 54.7681H49.0091C48.6091 54.7681 48.2891 54.4481 48.2891 54.0481C48.2891 53.6581 48.6091 53.3281 49.0091 53.3281H73.8691C75.8591 53.3281 77.4791 54.9481 77.4791 56.9381C77.4791 57.8481 77.1391 58.7181 76.5191 59.3881C76.3657 59.5415 76.1891 59.6181 75.9891 59.6181Z" fill="#252D32"/>
<path d="M71.3497 54.7703H48.2897C46.2997 54.7703 44.6797 53.1603 44.6797 51.1703C44.6797 49.1803 46.2997 47.5703 48.2897 47.5703H71.3497C73.3397 47.5703 74.9497 49.1803 74.9497 51.1703C74.9497 53.1603 73.3397 54.7703 71.3497 54.7703ZM48.2897 49.0103C47.0997 49.0103 46.1297 49.9803 46.1297 51.1703C46.1297 52.3603 47.0997 53.3303 48.2897 53.3303H71.3497C72.5397 53.3303 73.5097 52.3603 73.5097 51.1703C73.5097 49.9803 72.5397 49.0103 71.3497 49.0103H48.2897Z" fill="#252D32"/>
<path d="M15.8606 49.7287C15.4606 49.7287 15.1406 49.4087 15.1406 49.0087V31.2287C15.1406 21.1587 23.3306 12.9688 33.3906 12.9688H39.4006C45.0406 12.9688 50.2706 15.5188 53.7606 19.9488C54.0106 20.2688 53.9506 20.7187 53.6406 20.9687C53.3306 21.2087 52.8706 21.1588 52.6306 20.8488C49.4106 16.7587 44.5906 14.4087 39.4006 14.4087H33.3906C24.1206 14.4087 16.5806 21.9587 16.5806 31.2287V49.0087C16.5806 49.4087 16.2506 49.7287 15.8606 49.7287Z" fill="#252D32"/>
<path d="M41.0794 13.6898C40.6794 13.6898 40.3594 13.3698 40.3594 12.9698V10.8098C40.3594 10.4098 40.6794 10.0898 41.0794 10.0898C41.4794 10.0898 41.7994 10.4098 41.7994 10.8098V12.9698C41.7994 13.3698 41.4794 13.6898 41.0794 13.6898Z" fill="#252D32"/>
<path d="M31.7083 13.6898C31.3083 13.6898 30.9883 13.3698 30.9883 12.9698V10.8098C30.9883 10.4098 31.3083 10.0898 31.7083 10.0898C32.1083 10.0898 32.4283 10.4098 32.4283 10.8098V12.9698C32.4283 13.3698 32.1083 13.6898 31.7083 13.6898Z" fill="#252D32"/>
<path d="M41.0817 10.81H31.7117C31.4917 10.81 31.2817 10.71 31.1417 10.53L25.4717 3.16C25.0117 2.56 24.9317 1.77 25.2717 1.1C25.6017 0.42 26.2817 0 27.0317 0H45.7617C46.5217 0 47.1917 0.42 47.5317 1.1C47.8617 1.77 47.7817 2.56 47.3217 3.16L41.6517 10.53C41.5217 10.71 41.3017 10.81 41.0817 10.81ZM32.0717 9.37H40.7317L46.1817 2.28C46.3617 2.05 46.2817 1.82 46.2317 1.73C46.1917 1.65 46.0617 1.44 45.7617 1.44H27.0317C26.7417 1.44 26.6017 1.65 26.5617 1.73C26.5217 1.82 26.4417 2.05 26.6217 2.28L32.0717 9.37Z" fill="#252D32"/>
</g>
<defs>
<clipPath id="clip0_1253_11525">
<rect width="80" height="80" fill="white"/>
</clipPath>
</defs>
</svg>
