<svg width="80" height="80" viewBox="0 0 80 80" fill="none" xmlns="http://www.w3.org/2000/svg">
<g clip-path="url(#clip0_1253_11569)">
<path d="M64.4095 0.679688C59.9095 0.679688 56.2695 4.31969 56.2695 8.80969V18.9797H72.5395V8.80969C72.5395 4.31969 68.8995 0.679688 64.4095 0.679688Z" fill="#D5E1EF"/>
<path d="M63.0495 0.800781C59.1995 1.45078 56.2695 4.78078 56.2695 8.81078V18.9808H69.8295V8.81078C69.8295 4.78078 66.8995 1.45078 63.0495 0.800781Z" fill="#EDF2F8"/>
<path d="M22.4 16.2695H11.5C7.77 16.2695 4.75 19.2895 4.75 23.0195V43.3895H29.15V23.0195C29.15 19.2895 26.13 16.2695 22.4 16.2695Z" fill="#74AAFF"/>
<path d="M67.2786 18.9805H61.5286C57.1286 18.9805 53.5586 22.5505 53.5586 26.9605V46.1005H75.2486V26.9605C75.2486 22.5505 71.6786 18.9805 67.2786 18.9805Z" fill="#74AAFF"/>
<path d="M55.2292 27.9197L51.6792 20.4297L48.3692 21.9597L51.5892 28.8997L46.4592 35.9297H36.0592L30.9692 28.9497L34.1892 21.9997L30.8792 20.4697L27.3392 27.9297C26.7792 29.1097 26.8892 30.4997 27.6192 31.5797L34.5792 41.9097V55.5897H48.1392V42.0297L54.9792 31.5197C55.6792 30.4397 55.7792 29.0797 55.2292 27.9197Z" fill="#FFC960"/>
<path d="M41.3603 37.9681C40.2303 37.9681 39.3203 37.0581 39.3203 35.9281V34.5781H43.3903V35.9281C43.3903 37.0581 42.4803 37.9681 41.3603 37.9681Z" fill="#FFBFB4"/>
<path d="M64.4111 19.6595C63.2811 19.6595 62.3711 18.7495 62.3711 17.6295V16.2695H66.4411V17.6295C66.4411 18.7495 65.5311 19.6595 64.4111 19.6595Z" fill="#FFBFB4"/>
<path d="M41.3591 34.5788C39.1091 34.5788 37.2891 32.7588 37.2891 30.5088V28.4688H45.4191V30.5088C45.4191 32.7588 43.5991 34.5788 41.3591 34.5788Z" fill="#FFBFB4"/>
<path d="M16.9492 14.2419C14.3292 14.2419 12.1992 12.1119 12.1992 9.49187V5.42188H21.6892V9.49187C21.6892 12.1119 19.5692 14.2419 16.9492 14.2419Z" fill="#FF9F91"/>
<path d="M16.9483 18.9786C15.4483 18.9786 14.2383 17.7686 14.2383 16.2686V13.5586H19.6583V16.2686C19.6583 17.7686 18.4483 18.9786 16.9483 18.9786Z" fill="#FFBFB4"/>
<path d="M10.1716 48.8103H8.55156C7.20156 48.8103 6.10156 47.7203 6.10156 46.3603V44.0703H10.1716V48.8103Z" fill="#FFBFB4"/>
<path d="M23.7305 48.8103H25.3505C26.7005 48.8103 27.8005 47.7203 27.8005 46.3603V44.0703H23.7305V48.8103Z" fill="#FFBFB4"/>
<path d="M71.8594 50.8512H72.8094C74.1594 50.8512 75.2494 49.7513 75.2494 48.4013V46.7812H71.8594V50.8512Z" fill="#FFBFB4"/>
<path d="M56.9486 50.8512H56.0086C54.6586 50.8512 53.5586 49.7513 53.5586 48.4013V46.7812H56.9486V50.8512Z" fill="#FFBFB4"/>
<path d="M15.9292 14.1319C18.0592 13.6619 19.6592 11.7619 19.6592 9.49187V5.42188H12.1992V9.49187C12.1992 11.7619 13.7992 13.6619 15.9292 14.1319Z" fill="#FFBFB4"/>
<path d="M64.4102 16.2709C61.7902 16.2709 59.6602 14.1509 59.6602 11.5309V7.46094H69.1502V11.5309C69.1502 14.1509 67.0302 16.2709 64.4102 16.2709Z" fill="#FF9F91"/>
<path d="M63.3902 16.1616C65.5202 15.6916 67.1202 13.8016 67.1202 11.5316V7.46156L62.3702 6.10156L59.6602 8.14156V11.5316C59.6602 13.8016 61.2602 15.6916 63.3902 16.1616Z" fill="#FFBFB4"/>
<path d="M21.6892 5.41969C21.6892 2.79969 19.5692 0.679688 16.9492 0.679688C14.3292 0.679688 12.1992 2.79969 12.1992 5.41969H14.2392C14.2392 6.16969 14.8392 6.77969 15.5892 6.77969H18.3092C19.0492 6.77969 19.6592 6.16969 19.6592 5.41969H21.6892Z" fill="#D5E1EF"/>
<path d="M16.4992 0.699219C14.0892 0.929219 12.1992 2.95922 12.1992 5.41922H14.2392C14.2392 5.67255 14.3026 5.89922 14.4292 6.09922H19.4692C19.5892 5.89922 19.6526 5.67255 19.6592 5.41922V4.06922C19.6592 2.26922 18.2592 0.819219 16.4992 0.699219Z" fill="#EDF2F8"/>
<path d="M34.6298 21.6414L31.3398 20.0614L31.8498 19.0114C32.2898 18.1114 33.3798 17.7314 34.2798 18.1614C35.1898 18.6014 35.5698 19.6914 35.1298 20.5914L34.6298 21.6414Z" fill="#FFBFB4"/>
<path d="M48.3003 21.6414L51.5803 20.0614L51.0803 19.0114C50.6403 18.1114 49.5503 17.7314 48.6503 18.1614C47.7403 18.6014 47.3603 19.6914 47.8003 20.5914L48.3003 21.6414Z" fill="#FFBFB4"/>
<path d="M41.3591 23.7305C39.1091 23.7305 37.2891 25.5505 37.2891 27.8005V29.1505L39.3191 27.8005C39.7391 28.6305 40.5891 29.1505 41.5191 29.1505H45.4191V27.8005C45.4191 25.5505 43.5991 23.7305 41.3591 23.7305Z" fill="#D5E1EF"/>
<path d="M40.3391 23.8594C38.5891 24.3094 37.2891 25.8994 37.2891 27.7994C37.4691 28.146 37.7124 28.4327 38.0191 28.6594L39.3191 27.7994C39.7391 28.6294 40.5891 29.1494 41.5191 29.1494H43.3891V27.7994C43.3891 25.8994 42.0891 24.3094 40.3391 23.8594Z" fill="#EDF2F8"/>
<path d="M49.9586 8.56984C47.8586 6.42984 44.4686 6.42984 42.3686 8.56984L41.3586 9.59984L40.3386 8.56984C38.2486 6.42984 34.8486 6.42984 32.7586 8.56984C30.6586 10.6998 30.6586 14.1698 32.7586 16.2998L41.3686 25.0798L49.9586 16.2998C52.0486 14.1698 52.0486 10.6998 49.9586 8.56984Z" fill="#E23B3B"/>
<path d="M46.0386 6.96984C44.7086 6.99984 43.3886 7.52984 42.3686 8.56984L41.3586 9.59984L40.3386 8.56984C38.2486 6.42984 34.8486 6.42984 32.7586 8.56984C30.6586 10.6998 30.6586 14.1698 32.7586 16.2998L39.6786 23.3598L47.2386 15.6298C49.3386 13.4898 49.3386 10.0298 47.2386 7.88984C46.8719 7.51651 46.4719 7.20984 46.0386 6.96984Z" fill="#FF5F5F"/>
<path d="M47.46 55.5898V75.2498H35.25V55.5898H47.46Z" fill="#74AAFF"/>
<path d="M20.3413 79.32H13.5613C12.4413 79.32 11.5312 78.41 11.5312 77.29C11.5312 76.16 12.4413 75.25 13.5613 75.25H20.3413C21.4613 75.25 22.3713 76.16 22.3713 77.29C22.3713 78.41 21.4613 79.32 20.3413 79.32Z" fill="#74AAFF"/>
<path d="M67.8005 79.32H61.0205C59.8905 79.32 58.9805 78.41 58.9805 77.29C58.9805 76.16 59.8905 75.25 61.0205 75.25H67.8005C68.9205 75.25 69.8305 76.16 69.8305 77.29C69.8305 78.41 68.9205 79.32 67.8005 79.32Z" fill="#74AAFF"/>
<path d="M44.7594 79.32H37.9494C37.2094 79.32 36.6094 78.72 36.6094 77.98V76.6C36.6094 75.85 37.2094 75.25 37.9494 75.25H44.7594C45.4994 75.25 46.0994 75.85 46.0994 76.6V77.98C46.0994 78.72 45.4994 79.32 44.7594 79.32Z" fill="#FFC960"/>
<path d="M23.0516 43.3906V74.5806H10.8516V43.3906H23.0516Z" fill="#FFC960"/>
<path d="M69.8289 74.5813H58.9789L57.6289 46.7812H71.1889L69.8289 74.5813Z" fill="#FFC960"/>
<path d="M48.1416 55.5894H46.1016V43.3894C46.1016 42.2694 47.0116 41.3594 48.1416 41.3594V55.5894Z" fill="#FFAA4C"/>
<path d="M70.5088 45.4211H68.4688V29.1511C68.4688 28.0311 69.3888 27.1211 70.5088 27.1211V45.4211Z" fill="#4F88FF"/>
<path d="M23.7314 42.7102H21.6914V26.4402C21.6914 25.3202 22.6114 24.4102 23.7314 24.4102V42.7102Z" fill="#4F88FF"/>
<path d="M23.0495 43.3906V74.5806H21.0195V43.3906H23.0495Z" fill="#FFAA4C"/>
<path d="M69.1394 75.29L67.1094 75.19L68.4894 46.75L70.5194 46.85L69.1394 75.29Z" fill="#FFAA4C"/>
<path d="M47.4619 55.5898V75.2498H45.4219V55.5898H47.4619Z" fill="#4F88FF"/>
<path d="M70.5086 47.4609V48.8109H58.3086V47.4609H70.5086Z" fill="#FFAA4C"/>
<path d="M23.0516 44.0703V45.4203H10.8516V44.0703H23.0516Z" fill="#FFAA4C"/>
<path d="M47.46 56.2695V57.6295H35.25V56.2695H47.46Z" fill="#4F88FF"/>
<path d="M17.2214 7.45858H16.7814C15.3814 7.45858 14.6014 6.75858 14.0014 5.93858L12.5714 6.55858C12.2314 6.70858 11.8314 6.54858 11.6814 6.20858C11.5314 5.86858 11.6914 5.46858 12.0314 5.31858L13.9714 4.46858C14.2714 4.33858 14.6214 4.44858 14.8014 4.71858C15.5114 5.78858 15.9514 6.09858 16.7814 6.09858H17.2214C18.0514 6.09858 18.4914 5.78858 19.1914 4.71858C19.3814 4.44858 19.7314 4.33858 20.0314 4.46858L21.9714 5.31858C22.3114 5.46858 22.4714 5.86858 22.3214 6.20858C22.1714 6.54858 21.7714 6.70858 21.4214 6.55858L20.0014 5.93858C19.4014 6.75858 18.6214 7.45858 17.2214 7.45858Z" fill="#252D32"/>
<path d="M41.3706 25.7591C41.1773 25.7591 41.014 25.6924 40.8806 25.5591L32.2706 16.7791C29.9306 14.3791 29.9306 10.4891 32.2706 8.08906C33.4106 6.92906 34.9306 6.28906 36.5506 6.28906C38.1606 6.28906 39.6806 6.92906 40.8206 8.08906L41.3606 8.63906L41.8906 8.08906C43.0306 6.92906 44.5506 6.28906 46.1606 6.28906C47.7806 6.28906 49.3006 6.92906 50.4406 8.08906C52.7906 10.4891 52.7906 14.3791 50.4406 16.7791L41.8506 25.5591C41.7173 25.6924 41.5573 25.7591 41.3706 25.7591ZM36.5506 7.63906C35.3006 7.63906 34.1206 8.13906 33.2406 9.03906C31.4106 10.9091 31.4106 13.9591 33.2406 15.8291L41.3706 24.1191L49.4706 15.8291C51.3006 13.9591 51.3006 10.9091 49.4706 9.03906C48.5906 8.13906 47.4106 7.63906 46.1606 7.63906C44.9206 7.63906 43.7406 8.13906 42.8606 9.03906L41.8406 10.0791C41.5906 10.3391 41.1306 10.3391 40.8706 10.0791L39.8606 9.03906C38.9706 8.13906 37.8006 7.63906 36.5506 7.63906Z" fill="#252D32"/>
<path d="M78.98 80.6806H1.02C0.46 80.6806 0 80.2206 0 79.6606C0 79.1006 0.46 78.6406 1.02 78.6406H78.98C79.54 78.6406 80 79.1006 80 79.6606C80 80.2206 79.54 80.6806 78.98 80.6806Z" fill="#252D32"/>
<path d="M44.7492 29.8314H41.3692C40.4292 29.8314 39.5592 29.4514 38.9292 28.7814L37.9992 29.1814C37.6592 29.3314 37.2592 29.1714 37.1092 28.8214C36.9692 28.4814 37.1292 28.0814 37.4692 27.9314L38.8692 27.3314C39.1592 27.2114 39.5092 27.3114 39.6992 27.5814C40.0692 28.1414 40.6892 28.4714 41.3692 28.4714H44.7492C45.1192 28.4714 45.4192 28.7814 45.4192 29.1514C45.4192 29.5314 45.1192 29.8314 44.7492 29.8314Z" fill="#252D32"/>
<path d="M47.4581 75.9319H35.2481C34.8781 75.9319 34.5781 75.6319 34.5781 75.2519V55.5919C34.5781 55.2219 34.8781 54.9219 35.2481 54.9219C35.6281 54.9219 35.9281 55.2219 35.9281 55.5919V74.5819H46.7781V56.2719C46.7781 55.9019 47.0781 55.5919 47.4581 55.5919C47.8281 55.5919 48.1381 55.9019 48.1381 56.2719V75.2519C48.1381 75.6319 47.8281 75.9319 47.4581 75.9319Z" fill="#252D32"/>
<path d="M44.5394 79.9981C44.1594 79.9981 43.8594 79.6981 43.8594 79.3181C43.8594 78.9481 44.1594 78.6381 44.5394 78.6381C45.0294 78.6381 45.4194 78.2481 45.4194 77.7581V76.8181C45.4194 76.3281 45.0294 75.9281 44.5394 75.9281C44.1594 75.9281 43.8594 75.6281 43.8594 75.2481C43.8594 74.8781 44.1594 74.5781 44.5394 74.5781C45.7694 74.5781 46.7794 75.5781 46.7794 76.8181V77.7581C46.7794 78.9881 45.7694 79.9981 44.5394 79.9981Z" fill="#252D32"/>
<path d="M38.1697 79.9981C36.9397 79.9981 35.9297 78.9881 35.9297 77.7581V76.8181C35.9297 75.5781 36.9397 74.5781 38.1697 74.5781C38.5497 74.5781 38.8497 74.8781 38.8497 75.2481C38.8497 75.6281 38.5497 75.9281 38.1697 75.9281C37.6897 75.9281 37.2897 76.3281 37.2897 76.8181V77.7581C37.2897 78.2481 37.6897 78.6381 38.1697 78.6381C38.5497 78.6381 38.8497 78.9481 38.8497 79.3181C38.8497 79.6981 38.5497 79.9981 38.1697 79.9981Z" fill="#252D32"/>
<path d="M41.3597 75.2486C40.9797 75.2486 40.6797 74.9486 40.6797 74.5786V58.9786C40.6797 58.6086 40.9797 58.3086 41.3597 58.3086C41.7297 58.3086 42.0297 58.6086 42.0297 58.9786V74.5786C42.0297 74.9486 41.7297 75.2486 41.3597 75.2486Z" fill="#252D32"/>
<path d="M48.1401 56.2696H34.5801C34.2001 56.2696 33.9001 55.9696 33.9001 55.5896V42.2396L26.8001 31.5896C26.1001 30.5396 26.0001 29.1796 26.5401 28.0396L31.0001 18.6296C31.3201 17.9496 31.9101 17.4396 32.6301 17.2196C33.3401 17.0096 34.1201 17.0996 34.7601 17.4896C35.9201 18.1896 36.3701 19.6496 35.8001 20.8796L31.9701 29.0796L36.2901 35.2496H38.6401C39.0201 35.2496 39.3201 35.5596 39.3201 35.9296C39.3201 36.3096 39.0201 36.6096 38.6401 36.6096H35.9301C35.7101 36.6096 35.5001 36.4996 35.3801 36.3196L30.6301 29.5396C30.4901 29.3396 30.4701 29.0896 30.5701 28.8696L34.5701 20.3096C34.8501 19.6996 34.6301 18.9896 34.0601 18.6496C33.7401 18.4596 33.3701 18.4096 33.0201 18.5196C32.6601 18.6296 32.3801 18.8696 32.2201 19.2096L27.7601 28.6196C27.4301 29.3296 27.4901 30.1796 27.9201 30.8296L35.1401 41.6596C35.2134 41.773 35.2501 41.8963 35.2501 42.0296V54.9196H47.4601V42.0296C47.4601 41.8963 47.4968 41.773 47.5701 41.6596L54.7901 30.8296C55.2201 30.1796 55.2901 29.3296 54.9501 28.6196L50.4901 19.2096C50.3301 18.8696 50.0501 18.6296 49.6901 18.5196C49.3401 18.4096 48.9701 18.4596 48.6501 18.6496C48.0801 18.9896 47.8601 19.6996 48.1501 20.3096L52.1401 28.8696C52.2401 29.0896 52.2201 29.3396 52.0801 29.5396L47.3401 36.3196C47.2101 36.4996 47.0001 36.6096 46.7801 36.6096H44.0701C43.6901 36.6096 43.3901 36.3096 43.3901 35.9296C43.3901 35.5596 43.6901 35.2496 44.0701 35.2496H46.4301L50.7501 29.0796L46.9201 20.8796C46.3401 19.6496 46.7901 18.1896 47.9501 17.4896C48.6001 17.0996 49.3701 17.0096 50.0901 17.2196C50.8001 17.4396 51.3901 17.9496 51.7101 18.6196L56.1701 28.0396C56.7101 29.1796 56.6101 30.5396 55.9201 31.5896L48.8101 42.2396V55.5896C48.8101 55.9696 48.5101 56.2696 48.1401 56.2696Z" fill="#252D32"/>
<path d="M41.3606 38.6384C39.8606 38.6384 38.6406 37.4284 38.6406 35.9284V34.5784C38.6406 34.1984 38.9506 33.8984 39.3206 33.8984C39.7006 33.8984 40.0006 34.1984 40.0006 34.5784V35.9284C40.0006 36.6784 40.6106 37.2884 41.3606 37.2884C42.1006 37.2884 42.7106 36.6784 42.7106 35.9284V34.5784C42.7106 34.1984 43.0206 33.8984 43.3906 33.8984C43.7606 33.8984 44.0706 34.1984 44.0706 34.5784V35.9284C44.0706 37.4284 42.8506 38.6384 41.3606 38.6384Z" fill="#252D32"/>
<path d="M41.3594 35.2499C38.7394 35.2499 36.6094 33.1299 36.6094 30.5099V27.7999C36.6094 25.8899 37.7494 24.1699 39.5094 23.4199C39.8494 23.2799 40.2494 23.4399 40.3994 23.7799C40.5394 24.1299 40.3794 24.5299 40.0394 24.6699C38.7794 25.2099 37.9694 26.4299 37.9694 27.7999V30.5099C37.9694 32.3799 39.4894 33.8999 41.3594 33.8999C43.2194 33.8999 44.7494 32.3799 44.7494 30.5099V27.7999C44.7494 26.4199 43.9294 25.1899 42.6594 24.6599C42.3094 24.5199 42.1494 24.1199 42.2894 23.7799C42.4294 23.4299 42.8394 23.2699 43.1794 23.4099C44.9494 24.1499 46.0994 25.8699 46.0994 27.7999V30.5099C46.0994 33.1299 43.9694 35.2499 41.3594 35.2499Z" fill="#252D32"/>
<path d="M64.4105 16.9492C61.4205 16.9492 58.9805 14.5192 58.9805 11.5292V8.13915C58.9805 7.91915 59.0805 7.71915 59.2505 7.58915L61.9705 5.55915C62.1405 5.42915 62.3605 5.38915 62.5705 5.44915L69.3505 7.48915C69.6305 7.56915 69.8305 7.83915 69.8305 8.13915V11.5292C69.8305 14.5192 67.4005 16.9492 64.4105 16.9492ZM60.3405 8.46915V11.5292C60.3405 13.7692 62.1605 15.5892 64.4105 15.5892C66.6505 15.5892 68.4705 13.7692 68.4705 11.5292V8.63915L62.5105 6.84915L60.3405 8.46915Z" fill="#252D32"/>
<path d="M72.5398 20.34C72.1698 20.34 71.8598 20.04 71.8598 19.66V8.81C71.8598 4.7 68.5198 1.36 64.4098 1.36C60.2898 1.36 56.9498 4.7 56.9498 8.81V19.66C56.9498 20.04 56.6498 20.34 56.2698 20.34C55.8998 20.34 55.5898 20.04 55.5898 19.66V8.81C55.5898 3.95 59.5498 0 64.4098 0C69.2698 0 73.2198 3.95 73.2198 8.81V19.66C73.2198 20.04 72.9198 20.34 72.5398 20.34Z" fill="#252D32"/>
<path d="M64.4114 20.3398C62.9114 20.3398 61.6914 19.1198 61.6914 17.6298V16.2698C61.6914 15.8998 62.0014 15.5898 62.3714 15.5898C62.7514 15.5898 63.0514 15.8998 63.0514 16.2698V17.6298C63.0514 18.3698 63.6614 18.9798 64.4114 18.9798C65.1514 18.9798 65.7614 18.3698 65.7614 17.6298V16.2698C65.7614 15.8998 66.0714 15.5898 66.4414 15.5898C66.8214 15.5898 67.1214 15.8998 67.1214 16.2698V17.6298C67.1214 19.1198 65.9014 20.3398 64.4114 20.3398Z" fill="#252D32"/>
<path d="M75.5917 47.4589H71.5317C70.9617 47.4589 70.5117 46.9989 70.5117 46.4389C70.5117 45.8789 70.9617 45.4189 71.5317 45.4189H74.5817V26.5289C74.5817 22.7389 71.4917 19.6589 67.7117 19.6589H66.7817C66.2217 19.6589 65.7617 19.2089 65.7617 18.6389C65.7617 18.0789 66.2217 17.6289 66.7817 17.6289H67.7117C72.6217 17.6289 76.6117 21.6189 76.6117 26.5289V46.4389C76.6117 46.9989 76.1517 47.4589 75.5917 47.4589Z" fill="#252D32"/>
<path d="M57.2892 47.4581H53.2192C52.6592 47.4581 52.1992 46.9981 52.1992 46.4381V35.5881C52.1992 35.0281 52.6592 34.5781 53.2192 34.5781C53.7792 34.5781 54.2392 35.0281 54.2392 35.5881V45.4181H57.2892C57.8492 45.4181 58.3092 45.8781 58.3092 46.4381C58.3092 46.9981 57.8492 47.4581 57.2892 47.4581Z" fill="#252D32"/>
<path d="M53.7511 24.6889C53.6311 24.6889 53.5111 24.6656 53.3911 24.6189C52.8611 24.4089 52.6011 23.8189 52.8111 23.2989C54.1511 19.8489 57.4111 17.6289 61.1111 17.6289H62.0311C62.6011 17.6289 63.0511 18.0789 63.0511 18.6389C63.0511 19.2089 62.6011 19.6589 62.0311 19.6589H61.1111C58.2511 19.6589 55.7411 21.3789 54.7011 24.0389C54.5511 24.4389 54.1611 24.6889 53.7511 24.6889Z" fill="#252D32"/>
<path d="M69.8301 75.9319H58.9801C58.4401 75.9319 57.9901 75.5119 57.9701 74.9619L56.6101 46.4919C56.6001 46.2119 56.7001 45.9419 56.8901 45.7419C57.0801 45.5419 57.3501 45.4219 57.6301 45.4219H71.1901C71.4601 45.4219 71.7301 45.5419 71.9201 45.7419C72.1101 45.9419 72.2201 46.2119 72.2001 46.4919L70.8501 74.9619C70.8201 75.5119 70.3701 75.9319 69.8301 75.9319ZM59.9501 73.9019H68.8601L70.1201 47.4619H58.6901L59.9501 73.9019Z" fill="#252D32"/>
<path d="M61.3586 79.9984C59.6686 79.9984 58.3086 78.6284 58.3086 76.9484C58.3086 75.2684 59.6686 73.8984 61.3586 73.8984C61.7286 73.8984 62.0286 74.1984 62.0286 74.5784C62.0286 74.9484 61.7286 75.2484 61.3586 75.2484C60.4186 75.2484 59.6586 76.0084 59.6586 76.9484C59.6586 77.8784 60.4186 78.6384 61.3586 78.6384C61.7286 78.6384 62.0286 78.9484 62.0286 79.3184C62.0286 79.6984 61.7286 79.9984 61.3586 79.9984Z" fill="#252D32"/>
<path d="M67.4613 79.9984C67.0813 79.9984 66.7812 79.6984 66.7812 79.3184C66.7812 78.9484 67.0813 78.6384 67.4613 78.6384C68.3913 78.6384 69.1513 77.8784 69.1513 76.9484C69.1513 76.0084 68.3913 75.2484 67.4613 75.2484C67.0813 75.2484 66.7812 74.9484 66.7812 74.5784C66.7812 74.1984 67.0813 73.8984 67.4613 73.8984C69.1413 73.8984 70.5113 75.2684 70.5113 76.9484C70.5113 78.6284 69.1413 79.9984 67.4613 79.9984Z" fill="#252D32"/>
<path d="M64.4105 80.0019C64.0305 80.0019 63.7305 79.7019 63.7305 79.3219V50.8519C63.7305 50.4719 64.0305 50.1719 64.4105 50.1719C64.7805 50.1719 65.0805 50.4719 65.0805 50.8519V79.3219C65.0805 79.7019 64.7805 80.0019 64.4105 80.0019Z" fill="#252D32"/>
<path d="M70.5081 46.1011C70.1281 46.1011 69.8281 45.8011 69.8281 45.4211V27.8011C69.8281 27.4211 70.1281 27.1211 70.5081 27.1211C70.8781 27.1211 71.1881 27.4211 71.1881 27.8011V45.4211C71.1881 45.8011 70.8781 46.1011 70.5081 46.1011Z" fill="#252D32"/>
<path d="M58.3089 46.1011C57.9289 46.1011 57.6289 45.8011 57.6289 45.4211V27.8011C57.6289 27.4211 57.9289 27.1211 58.3089 27.1211C58.6789 27.1211 58.9789 27.4211 58.9789 27.8011V45.4211C58.9789 45.8011 58.6789 46.1011 58.3089 46.1011Z" fill="#252D32"/>
<path d="M41.3597 79.9981C40.9797 79.9981 40.6797 79.6981 40.6797 79.3181V75.2481C40.6797 74.8781 40.9797 74.5781 41.3597 74.5781C41.7297 74.5781 42.0297 74.8781 42.0297 75.2481V79.3181C42.0297 79.6981 41.7297 79.9981 41.3597 79.9981Z" fill="#252D32"/>
<path d="M72.9814 51.5316H71.8614C71.4914 51.5316 71.1914 51.2216 71.1914 50.8516C71.1914 50.4716 71.4914 50.1716 71.8614 50.1716H72.9814C73.8614 50.1716 74.5814 49.4616 74.5814 48.5816V46.7816C74.5814 46.4016 74.8814 46.1016 75.2514 46.1016C75.6314 46.1016 75.9314 46.4016 75.9314 46.7816V48.5816C75.9314 50.2016 74.6114 51.5316 72.9814 51.5316Z" fill="#252D32"/>
<path d="M56.9489 51.5316H55.8289C54.1989 51.5316 52.8789 50.2016 52.8789 48.5816V46.7816C52.8789 46.4016 53.1789 46.1016 53.5589 46.1016C53.9289 46.1016 54.2389 46.4016 54.2389 46.7816V48.5816C54.2389 49.4616 54.9489 50.1716 55.8289 50.1716H56.9489C57.3189 50.1716 57.6289 50.4716 57.6289 50.8516C57.6289 51.2216 57.3189 51.5316 56.9489 51.5316Z" fill="#252D32"/>
<path d="M29.4905 44.7484H24.7505C24.1805 44.7484 23.7305 44.2884 23.7305 43.7284C23.7305 43.1684 24.1805 42.7084 24.7505 42.7084H28.4705V34.9184C28.4705 34.3484 28.9305 33.8984 29.4905 33.8984C30.0505 33.8984 30.5105 34.3484 30.5105 34.9184V43.7284C30.5105 44.2884 30.0505 44.7484 29.4905 44.7484Z" fill="#252D32"/>
<path d="M29.4705 23.7419C28.9405 23.7419 28.5005 23.3419 28.4605 22.8119C28.2005 19.5219 25.4205 16.9519 22.1205 16.9519H20.0005C19.4405 16.9519 18.9805 16.4919 18.9805 15.9319C18.9805 15.3719 19.4405 14.9219 20.0005 14.9219H22.1205C26.4705 14.9219 30.1505 18.3119 30.4805 22.6519C30.5305 23.2119 30.1105 23.7019 29.5505 23.7419C29.5238 23.7419 29.4971 23.7419 29.4705 23.7419Z" fill="#252D32"/>
<path d="M9.15062 44.7519H4.41062C3.85062 44.7519 3.39062 44.2919 3.39062 43.7319V23.3019C3.39062 18.6819 7.15062 14.9219 11.7806 14.9219H13.9006C14.4606 14.9219 14.9206 15.3719 14.9206 15.9319C14.9206 16.4919 14.4606 16.9519 13.9006 16.9519H11.7806C8.27062 16.9519 5.42062 19.8019 5.42062 23.3019V42.7119H9.15062C9.71062 42.7119 10.1706 43.1719 10.1706 43.7319C10.1706 44.2919 9.71062 44.7519 9.15062 44.7519Z" fill="#252D32"/>
<path d="M23.3883 75.9313H10.5083C9.94828 75.9313 9.48828 75.4812 9.48828 74.9212V43.0513C9.48828 42.4913 9.94828 42.0312 10.5083 42.0312H23.3883C23.9483 42.0312 24.4083 42.4913 24.4083 43.0513V74.9212C24.4083 75.4812 23.9483 75.9313 23.3883 75.9313ZM22.3683 44.0713V73.9013H11.5283V44.0713H22.3683Z" fill="#252D32"/>
<path d="M13.9016 79.9984C12.2216 79.9984 10.8516 78.6284 10.8516 76.9484C10.8516 75.2684 12.2216 73.8984 13.9016 73.8984C14.2716 73.8984 14.5816 74.1984 14.5816 74.5784C14.5816 74.9484 14.2716 75.2484 13.9016 75.2484C12.9616 75.2484 12.2016 76.0084 12.2016 76.9484C12.2016 77.8784 12.9616 78.6384 13.9016 78.6384C14.2716 78.6384 14.5816 78.9484 14.5816 79.3184C14.5816 79.6984 14.2716 79.9984 13.9016 79.9984Z" fill="#252D32"/>
<path d="M20.0003 79.9984C19.6303 79.9984 19.3203 79.6984 19.3203 79.3184C19.3203 78.9484 19.6303 78.6384 20.0003 78.6384C20.9303 78.6384 21.6903 77.8784 21.6903 76.9484C21.6903 76.0084 20.9303 75.2484 20.0003 75.2484C19.6303 75.2484 19.3203 74.9484 19.3203 74.5784C19.3203 74.1984 19.6303 73.8984 20.0003 73.8984C21.6803 73.8984 23.0503 75.2684 23.0503 76.9484C23.0503 78.6284 21.6803 79.9984 20.0003 79.9984Z" fill="#252D32"/>
<path d="M16.9495 80.0013C16.5695 80.0013 16.2695 79.7013 16.2695 79.3213V47.4613C16.2695 47.0813 16.5695 46.7812 16.9495 46.7812C17.3195 46.7812 17.6295 47.0813 17.6295 47.4613V79.3213C17.6295 79.7013 17.3195 80.0013 16.9495 80.0013Z" fill="#252D32"/>
<path d="M23.7308 43.3902C23.3508 43.3902 23.0508 43.0902 23.0508 42.7102V25.0802C23.0508 24.7102 23.3508 24.4102 23.7308 24.4102C24.1008 24.4102 24.4108 24.7102 24.4108 25.0802V42.7102C24.4108 43.0902 24.1008 43.3902 23.7308 43.3902Z" fill="#252D32"/>
<path d="M10.1683 43.3902C9.78828 43.3902 9.48828 43.0902 9.48828 42.7102V25.0802C9.48828 24.7102 9.78828 24.4102 10.1683 24.4102C10.5383 24.4102 10.8483 24.7102 10.8483 25.0802V42.7102C10.8483 43.0902 10.5383 43.3902 10.1683 43.3902Z" fill="#252D32"/>
<path d="M25.5305 49.4903H24.4105C24.0305 49.4903 23.7305 49.1903 23.7305 48.8103C23.7305 48.4403 24.0305 48.1403 24.4105 48.1403H25.5305C26.4005 48.1403 27.1205 47.4203 27.1205 46.5403V44.7503C27.1205 44.3703 27.4205 44.0703 27.8005 44.0703C28.1705 44.0703 28.4705 44.3703 28.4705 44.7503V46.5403C28.4705 48.1703 27.1505 49.4903 25.5305 49.4903Z" fill="#252D32"/>
<path d="M9.49187 49.4903H8.37187C6.75187 49.4903 5.42188 48.1703 5.42188 46.5403V44.7503C5.42188 44.3703 5.73187 44.0703 6.10187 44.0703C6.48187 44.0703 6.78188 44.3703 6.78188 44.7503V46.5403C6.78188 47.4203 7.49187 48.1403 8.37187 48.1403H9.49187C9.87187 48.1403 10.1719 48.4403 10.1719 48.8103C10.1719 49.1903 9.87187 49.4903 9.49187 49.4903Z" fill="#252D32"/>
<path d="M16.9486 19.6589C15.0786 19.6589 13.5586 18.1389 13.5586 16.2689V13.5589C13.5586 13.1789 13.8586 12.8789 14.2386 12.8789C14.6086 12.8789 14.9186 13.1789 14.9186 13.5589V16.2689C14.9186 17.3889 15.8286 18.3089 16.9486 18.3089C18.0686 18.3089 18.9786 17.3889 18.9786 16.2689V13.5589C18.9786 13.1789 19.2886 12.8789 19.6586 12.8789C20.0386 12.8789 20.3386 13.1789 20.3386 13.5589V16.2689C20.3386 18.1389 18.8186 19.6589 16.9486 19.6589Z" fill="#252D32"/>
<path d="M16.9513 14.92C13.9613 14.92 11.5312 12.48 11.5312 9.49V5.42C11.5312 2.43 13.9613 0 16.9513 0C19.9413 0 22.3713 2.43 22.3713 5.42V9.49C22.3713 12.48 19.9413 14.92 16.9513 14.92ZM16.9513 1.36C14.7113 1.36 12.8813 3.18 12.8813 5.42V9.49C12.8813 11.73 14.7113 13.56 16.9513 13.56C19.1913 13.56 21.0213 11.73 21.0213 9.49V5.42C21.0213 3.18 19.1913 1.36 16.9513 1.36Z" fill="#252D32"/>
<path d="M33.9004 22.3681C33.7938 22.3681 33.6938 22.3448 33.6004 22.2981L30.8804 20.9481C30.5504 20.7781 30.4104 20.3681 30.5804 20.0381C30.7504 19.6981 31.1504 19.5681 31.4904 19.7281L34.2004 21.0881C34.5404 21.2581 34.6704 21.6581 34.5004 21.9981C34.3904 22.2381 34.1504 22.3681 33.9004 22.3681Z" fill="#252D32"/>
<path d="M48.8093 22.3681C48.5693 22.3681 48.3293 22.2381 48.2093 21.9981C48.0393 21.6581 48.1793 21.2581 48.5093 21.0881L51.2193 19.7281C51.5593 19.5681 51.9593 19.6981 52.1293 20.0381C52.2993 20.3681 52.1593 20.7781 51.8293 20.9481L49.1193 22.2981C49.0193 22.3448 48.916 22.3681 48.8093 22.3681Z" fill="#252D32"/>
</g>
<defs>
<clipPath id="clip0_1253_11569">
<rect width="80" height="80" fill="white"/>
</clipPath>
</defs>
</svg>
