<svg width="70" height="70" viewBox="0 0 70 70" fill="none" xmlns="http://www.w3.org/2000/svg">
<path d="M51.8772 64.7989H4.50781V25.6367H51.8772V64.7989Z" fill="#EDF2F8"/>
<path d="M28.2076 5.47266L54.214 25.6471H2.20703L28.2076 5.47266Z" fill="#4F88FF"/>
<path d="M50.3889 25.6373L28.2071 8.42969L6.03125 25.6373H50.3889Z" fill="#74AAFF"/>
<path d="M29.066 53.5357H12.6914V36.3281H29.066V53.5357Z" fill="#FFAA4C"/>
<path d="M29.0666 53.5291H15.0312V38.1016H29.0666V53.5291Z" fill="#FFC960"/>
<path d="M31.4016 17.6268C31.4016 19.4306 29.963 20.8903 28.1852 20.8903C26.4074 20.8903 24.9688 19.4306 24.9688 17.6268C24.9688 15.823 26.4074 14.3633 28.1852 14.3633C29.963 14.3633 31.4016 15.823 31.4016 17.6268Z" fill="#4F88FF"/>
<path d="M51.8772 28.0102H4.50781V25.6367H51.8772V28.0102Z" fill="#D5E1EF"/>
<path d="M51.8756 29.8937C51.2986 29.8344 50.7138 29.8047 50.1212 29.8047C40.1093 29.8047 31.9922 38.0406 31.9922 48.199C31.9922 55.5271 36.2203 61.8583 42.3374 64.8133H51.8756V29.8937Z" fill="#D5E1EF"/>
<path d="M4.21104 65.4C3.72565 65.4 3.33383 65.0025 3.33383 64.51V26.8312H0.87764C0.497515 26.8312 0.164175 26.588 0.0472134 26.226C-0.0755961 25.8641 0.0472134 25.4665 0.345465 25.2351L27.656 4.18246C27.9718 3.93918 28.4045 3.93918 28.7203 4.18246L56.0308 25.2351C56.3291 25.4665 56.4519 25.8641 56.3291 26.226C56.2121 26.588 55.8788 26.8312 55.4986 26.8312H53.0425V30.0948C53.0425 30.5872 52.6506 30.9848 52.1652 30.9848C51.6799 30.9848 51.288 30.5872 51.288 30.0948V25.9412C51.288 25.4487 51.6799 25.0511 52.1652 25.0511H52.8963L28.1881 6.01003L3.48003 25.0511H4.21104C4.69643 25.0511 5.08825 25.4487 5.08825 25.9412V64.51C5.08825 65.0025 4.69643 65.4 4.21104 65.4Z" fill="#252D32"/>
<path d="M52.4609 26.2453H4.50668C4.18504 26.2453 3.92188 25.9783 3.92188 25.652C3.92188 25.3256 4.18504 25.0586 4.50668 25.0586H52.4609C52.7825 25.0586 53.0457 25.3256 53.0457 25.652C53.0457 25.9783 52.7825 26.2453 52.4609 26.2453Z" fill="#252D32"/>
<path d="M29.0688 54.1287H12.6942C12.3725 54.1287 12.1094 53.8617 12.1094 53.5354V36.3277C12.1094 36.0014 12.3725 35.7344 12.6942 35.7344H29.0688C29.3904 35.7344 29.6536 36.0014 29.6536 36.3277V53.5354C29.6536 53.8617 29.3904 54.1287 29.0688 54.1287ZM13.279 52.942H28.484V36.9211H13.279V52.942Z" fill="#252D32"/>
<path d="M21.4637 53.5357C21.1421 53.5357 20.8789 53.2687 20.8789 52.9424V36.9215C20.8789 36.5951 21.1421 36.3281 21.4637 36.3281C21.7854 36.3281 22.0485 36.5951 22.0485 36.9215V52.9424C22.0485 53.2687 21.7854 53.5357 21.4637 53.5357Z" fill="#252D32"/>
<path d="M20.8787 45.2297H13.2762C12.9546 45.2297 12.6914 44.9627 12.6914 44.6363C12.6914 44.31 12.9546 44.043 13.2762 44.043H20.8787C21.2004 44.043 21.4635 44.31 21.4635 44.6363C21.4635 44.9627 21.2004 45.2297 20.8787 45.2297Z" fill="#252D32"/>
<path d="M65.6162 65.9871H1.28737C0.801977 65.9871 0.410156 65.5896 0.410156 65.0971C0.410156 64.6046 0.801977 64.207 1.28737 64.207H65.6162C66.1016 64.207 66.4934 64.6046 66.4934 65.0971C66.4934 65.5896 66.1016 65.9871 65.6162 65.9871Z" fill="#252D32"/>
<path d="M28.1868 22.0841C25.7657 22.0841 23.8008 20.0904 23.8008 17.6338C23.8008 15.1773 25.7657 13.1836 28.1868 13.1836C30.6079 13.1836 32.5729 15.1773 32.5729 17.6338C32.5729 20.0904 30.6079 22.0841 28.1868 22.0841ZM28.1868 14.3703C26.4149 14.3703 24.9704 15.8359 24.9704 17.6338C24.9704 19.4317 26.4149 20.8974 28.1868 20.8974C29.9588 20.8974 31.4033 19.4317 31.4033 17.6338C31.4033 15.8359 29.9588 14.3703 28.1868 14.3703Z" fill="#252D32"/>
<path d="M68.8329 47.6021C68.8329 57.1079 61.2421 64.8098 51.8735 64.8098C42.5049 64.8098 34.9141 57.1079 34.9141 47.6021C34.9141 38.0964 42.5049 30.3945 51.8735 30.3945C61.2421 30.3945 68.8329 38.0964 68.8329 47.6021Z" fill="#FF5F5F"/>
<path d="M59.3345 42.5645C57.5918 40.7962 54.7555 40.7962 53.0127 42.5645L52.1648 43.4248L51.3168 42.5645C49.5741 40.7962 46.7378 40.7962 44.995 42.5645C43.2465 44.3386 43.2465 47.2105 44.995 48.9847L52.1765 56.2653L59.3345 48.9847C61.0831 47.2105 61.0831 44.3386 59.3345 42.5645Z" fill="white"/>
<path d="M52.1802 56.8592C52.0165 56.8552 51.8781 56.7979 51.765 56.6871L44.5836 49.4006C42.6128 47.4009 42.6128 44.1493 44.5836 42.1497C45.5368 41.1765 46.8117 40.6484 48.1626 40.6484C49.5076 40.6484 50.7825 41.1765 51.7358 42.1497L52.1685 42.5887L52.6013 42.1497C53.5604 41.1765 54.8294 40.6484 56.1745 40.6484C57.5254 40.6484 58.8002 41.1765 59.7535 42.1497C61.7243 44.1493 61.7243 47.4009 59.7535 49.4006L52.5896 56.6871C52.4765 56.7979 52.3401 56.8552 52.1802 56.8592ZM48.1626 41.8352C47.1216 41.8352 46.145 42.2446 45.414 42.9863C43.8993 44.5231 43.8993 47.0271 45.414 48.5639L52.1744 55.4292L58.923 48.5639C60.4377 47.0271 60.4377 44.5231 58.923 42.9863C58.192 42.2446 57.2154 41.8352 56.1745 41.8352C55.1393 41.8352 54.1627 42.2446 53.4317 42.9863L52.5837 43.8467C52.3557 44.0781 51.9814 44.0781 51.7533 43.8467L50.9053 42.9863C50.1743 42.2446 49.1977 41.8352 48.1626 41.8352Z" fill="#252D32"/>
<path d="M51.8712 65.9996C41.8769 65.9996 33.7422 57.7459 33.7422 47.6053C33.7422 37.4647 41.8769 29.2109 51.8712 29.2109C61.8656 29.2109 70.0002 37.4647 70.0002 47.6053C70.0002 57.7459 61.8656 65.9996 51.8712 65.9996ZM51.8712 30.991C42.8418 30.991 35.4966 38.4437 35.4966 47.6053C35.4966 56.7669 42.8418 64.2195 51.8712 64.2195C60.9006 64.2195 68.2458 56.7669 68.2458 47.6053C68.2458 38.4437 60.9006 30.991 51.8712 30.991Z" fill="#252D32"/>
</svg>
