<svg width="70" height="70" viewBox="0 0 70 70" fill="none" xmlns="http://www.w3.org/2000/svg">
<g clip-path="url(#clip0_1266_1676)">
<path d="M36.8077 1.26172H3.54372C2.28372 1.26172 1.26172 2.28372 1.26172 3.54372V39.7337C1.71672 43.5277 10.0117 46.5587 20.1827 46.5587C30.3537 46.5587 38.6487 43.5277 39.0827 39.7337C39.1037 39.7337 39.1037 3.55072 39.1037 3.55072C39.1037 2.29072 38.0747 1.26172 36.8077 1.26172Z" fill="#D5E1EF"/>
<path d="M1.26172 3.54372V39.7337C1.69572 43.3317 9.16472 46.2367 18.6077 46.5307C28.0437 46.2367 35.5197 43.3317 35.9257 39.7337C35.9467 39.7337 35.9467 3.55072 35.9467 3.55072C35.9467 2.29072 34.9247 1.26172 33.6577 1.26172H3.54372C2.28372 1.26172 1.26172 2.28372 1.26172 3.54372Z" fill="#EDF2F8"/>
<path d="M1.26172 17.0234V39.7314C1.71672 43.5254 10.0117 46.5564 20.1827 46.5564C30.3537 46.5564 38.6487 43.5254 39.0827 39.7314C39.1037 39.7314 39.1037 17.0234 39.1037 17.0234H1.26172Z" fill="#4F88FF"/>
<path d="M1.26172 17.0234V39.7314C1.69572 43.3294 9.16472 46.2344 18.6077 46.5284C28.0437 46.2344 35.5197 43.3294 35.9257 39.7314C35.9467 39.7314 35.9467 17.0234 35.9467 17.0234H1.26172Z" fill="#74AAFF"/>
<path d="M25.1089 13.3203C23.1349 13.3203 21.3429 14.1253 20.0129 15.4273C18.6829 14.1253 16.8909 13.3203 14.9169 13.3203C10.8219 13.3203 7.50391 16.7433 7.50391 20.9643C7.50391 29.5603 20.0129 37.0153 20.0129 37.0153C20.0129 37.0153 32.5219 29.5603 32.5219 20.9643C32.5219 16.7433 29.2039 13.3203 25.1089 13.3203Z" fill="#E23B3B"/>
<path d="M14.9169 13.3203C10.8219 13.3203 7.50391 16.7433 7.50391 20.9643C7.50391 27.0333 13.7339 32.5283 17.4019 35.2373C20.0409 33.5153 29.2039 26.9983 29.2039 19.6413C29.2039 17.0513 27.9579 14.7763 26.0539 13.3903C25.7412 13.3483 25.4262 13.325 25.1089 13.3203C23.1349 13.3203 21.3429 14.1253 20.0129 15.4273C18.6829 14.1253 16.8909 13.3203 14.9169 13.3203Z" fill="#FF5F5F"/>
<path d="M65.5819 30.8984V41.6224H61.1719V30.8984H65.5819Z" fill="#EDF2F8"/>
<path d="M23.9615 47.3008V51.7108H16.3945V47.3008H23.9615Z" fill="#74AAFF"/>
<path d="M23.9625 47.3008V51.7108H20.8125V47.3008H23.9625Z" fill="#4F88FF"/>
<path d="M65.5819 35.9453V40.9923H61.1719V35.9453H65.5819Z" fill="#74AAFF"/>
<path d="M23.9626 52.9778H16.3956C16.0526 52.9778 15.7656 52.6908 15.7656 52.3408V47.9308C15.7656 47.5808 16.0526 47.3008 16.3956 47.3008C16.7456 47.3008 17.0256 47.5808 17.0256 47.9308V51.7108H23.3326V47.9308C23.3326 47.5808 23.6196 47.3008 23.9626 47.3008C24.3126 47.3008 24.5996 47.5808 24.5996 47.9308V52.3408C24.5996 52.6908 24.3126 52.9778 23.9626 52.9778Z" fill="#252D32"/>
<path d="M20.181 47.929C9.205 47.929 0.532 44.59 0.007 40.159C0.00233333 40.1217 0 40.0843 0 40.047V3.605C0 1.617 1.617 0 3.605 0H36.75C38.745 0 40.362 1.617 40.362 3.605L40.355 21.826C40.355 26.383 40.355 30.94 40.355 34.356L40.341 39.641C40.341 39.767 40.341 39.956 40.306 40.152C39.83 44.583 31.164 47.929 20.181 47.929ZM1.89 39.984C2.324 42.917 9.73 46.039 20.181 46.039C30.653 46.039 38.059 42.91 38.451 39.977C38.465 38.822 38.465 15.785 38.465 3.605C38.465 2.66 37.702 1.89 36.75 1.89H3.605C2.66 1.89 1.89 2.66 1.89 3.605V39.984Z" fill="#252D32"/>
<path d="M33.7398 70.001C25.9138 70.001 19.5508 63.638 19.5508 55.812V52.662C19.5508 52.137 19.9708 51.71 20.4958 51.71C21.0208 51.71 21.4408 52.137 21.4408 52.662V55.812C21.4408 62.595 26.9568 68.111 33.7398 68.111C40.5158 68.111 46.0388 62.595 46.0388 55.812V13.56C46.0388 8.51997 50.1408 4.41797 55.1808 4.41797C60.2208 4.41797 64.3228 8.51997 64.3228 13.56V31.214C64.3228 31.739 63.9028 32.166 63.3778 32.166C62.8528 32.166 62.4328 31.739 62.4328 31.214V13.56C62.4328 9.56297 59.1778 6.30797 55.1808 6.30797C51.1838 6.30797 47.9288 9.56297 47.9288 13.56V55.812C47.9288 63.638 41.5658 70.001 33.7398 70.001Z" fill="#252D32"/>
<path d="M65.8991 42.2535H60.8591C60.3341 42.2535 59.9141 41.8335 59.9141 41.3085V31.2145C59.9141 30.6965 60.3341 30.2695 60.8591 30.2695H65.8991C66.4241 30.2695 66.8511 30.6965 66.8511 31.2145V41.3085C66.8511 41.8335 66.4241 42.2535 65.8991 42.2535ZM64.9541 32.1665V40.3635H61.8041V32.1665H64.9541Z" fill="#252D32"/>
<path d="M63.3786 60.5432C62.8536 60.5432 62.4336 60.1162 62.4336 59.5982V41.9372C62.4336 41.4122 62.8536 40.9922 63.3786 40.9922C63.9036 40.9922 64.3236 41.4122 64.3236 41.9372V59.5982C64.3236 60.1162 63.9036 60.5432 63.3786 60.5432Z" fill="#252D32"/>
<path d="M20.1187 37.4435C20.0067 37.4435 19.9017 37.4155 19.8037 37.3595C19.2717 37.0515 6.80469 29.7505 6.80469 21.0355C6.80469 16.5485 10.4587 12.8945 14.9527 12.8945C16.8427 12.8945 18.6557 13.5525 20.1187 14.7495C21.5747 13.5525 23.3877 12.8945 25.2777 12.8945C29.7717 12.8945 33.4257 16.5485 33.4257 21.0355C33.4257 29.7505 20.9657 37.0515 20.4337 37.3595C20.331 37.4155 20.226 37.4435 20.1187 37.4435ZM14.9527 14.1545C11.1587 14.1545 8.07169 17.2415 8.07169 21.0355C8.07169 28.3085 18.1867 34.8885 20.1187 36.0785C22.0507 34.8885 32.1657 28.3015 32.1657 21.0355C32.1657 17.2415 29.0787 14.1545 25.2777 14.1545C23.5137 14.1545 21.8337 14.8265 20.5527 16.0515C20.3077 16.2825 19.9227 16.2825 19.6847 16.0515C18.3967 14.8265 16.7167 14.1545 14.9527 14.1545Z" fill="#252D32"/>
</g>
<defs>
<clipPath id="clip0_1266_1676">
<rect width="70" height="70" fill="white"/>
</clipPath>
</defs>
</svg>
