<svg width="70" height="70" viewBox="0 0 70 70" fill="none" xmlns="http://www.w3.org/2000/svg">
<path opacity="0.1" d="M50.6926 4.62682L47.8296 8.06382C49.4816 6.08282 48.9846 3.01682 46.5836 1.70782C44.8196 0.755822 42.6076 1.30882 41.3266 2.84882L21.2576 26.2568L18.4716 15.8198C17.0786 10.9478 15.1606 8.63082 10.5126 9.33082C9.05656 9.55482 8.04156 10.8918 8.23756 12.3548C8.98656 17.9058 10.7226 30.7858 11.5136 36.6308C11.7726 38.5278 10.8696 39.5078 9.64456 40.9778L7.10356 44.7928L6.34756 43.3928L1.60156 49.0838L24.4426 68.0118L29.1816 62.3208L27.7606 61.1308L30.6096 57.4978C31.2886 56.6788 33.0526 56.5668 34.0256 56.1398L40.8296 53.1648C42.8666 52.2688 44.6656 50.9178 46.0866 49.2098L63.9716 27.7408C65.2596 26.2008 65.4066 23.9328 64.1466 22.3718C62.4316 20.2438 59.3236 20.3068 57.6716 22.2878L60.5346 18.8508C61.8156 17.3108 61.9626 15.0428 60.7096 13.4818C58.9946 11.3538 55.8866 11.4168 54.2346 13.3978L57.1956 9.84182C58.8476 7.85382 58.3436 4.78782 55.9426 3.48582C54.1856 2.53382 51.9736 3.08682 50.6926 4.62682Z" fill="#FF9F91"/>
<path opacity="0.1" d="M55.9445 3.48582C54.1875 2.53382 51.9755 3.08682 50.6945 4.62682L47.8315 8.06382C49.4835 6.08282 48.9865 3.01682 46.5855 1.70782C44.8215 0.755822 42.6095 1.30882 41.3285 2.84882L21.2595 26.2568L18.4735 15.8198C17.7105 11.1858 15.1625 8.63082 10.5145 9.33082C9.05847 9.55482 8.04347 10.8918 8.23947 12.3548C8.98847 17.9058 10.7245 30.7858 11.5155 36.6308C11.7745 38.5278 11.2215 40.4388 9.99647 41.9088L7.10547 45.4298L24.8925 60.0388L28.6655 55.6568C29.3445 54.8448 30.2055 54.1938 31.1785 53.7668L37.9895 50.7918C40.0195 49.9028 41.8185 48.5518 43.2465 46.8438L61.1315 25.3748C62.1815 24.1078 62.4545 22.3508 61.8245 20.9018C60.3405 20.5518 58.7165 21.0348 57.6735 22.2878L60.5365 18.8508C61.8175 17.3108 61.9645 15.0428 60.7115 13.4818C58.9965 11.3538 55.8885 11.4168 54.2365 13.3978L57.1975 9.84182C58.8495 7.85382 58.3455 4.78782 55.9445 3.48582Z" fill="#FFBFB4"/>
<path opacity="0.1" d="M40.9495 22.7487C40.2355 21.5797 38.8005 20.9847 37.5125 21.4537C35.7625 22.0907 35.1185 24.1067 36.0355 25.6117L34.4465 23.0077C33.7395 21.8387 32.3045 21.2437 31.0165 21.7127C29.2665 22.3497 28.6225 24.3727 29.5395 25.8777L31.1845 28.5727C30.2675 27.0677 28.1745 26.7177 26.8025 27.9777C25.8015 28.9087 25.6685 30.4557 26.3825 31.6247L27.9715 34.2287C27.0545 32.7237 24.9615 32.3737 23.5895 33.6337C22.5885 34.5647 22.4625 36.1117 23.1695 37.2807L32.7945 53.0657L37.9885 50.7907C40.0185 49.9017 41.8175 48.5507 43.2455 46.8427L50.5745 38.0437L40.9495 22.7487Z" fill="#FF9F91"/>
<path opacity="0.1" d="M61.082 16.7566L45.703 35.2086C44.527 34.2286 44.394 32.4436 45.409 31.2186L60.165 13.5156L60.837 14.0756C61.642 14.7476 61.754 15.9446 61.082 16.7566Z" fill="#FF9F91"/>
<path opacity="0.1" d="M57.0302 8.59509L39.2992 29.8751C38.1232 28.8951 37.9832 27.1241 38.9842 25.9201L56.5192 4.87109L56.7012 5.01809C57.7792 5.92109 57.9262 7.51709 57.0302 8.59509Z" fill="#FF9F91"/>
<path opacity="0.1" d="M49.2851 4.87175L32.8981 24.5418C31.7151 23.5618 31.5751 21.7838 32.5831 20.5798L47.1501 3.09375L49.2851 4.87175Z" fill="#FF9F91"/>
<path opacity="0.1" d="M37.6262 22.371L39.2152 24.975C38.2982 23.47 38.9422 21.454 40.6922 20.817C41.9802 20.348 43.4152 20.943 44.1222 22.112L55.3292 39.92L58.2482 33.151C59.6762 30.001 61.2092 28.629 64.2752 29.567C65.2342 29.861 65.7802 30.869 65.5002 31.835C64.4432 35.503 61.9792 44.029 60.8662 47.893C60.5022 49.146 60.6842 50.49 61.3632 51.61L62.5952 53.633L63.6732 52.975L66.3052 57.287L48.5042 68.137L45.8722 63.825L46.9572 63.167L45.2282 60.332C44.8502 59.716 44.3322 59.191 43.7162 58.806L39.4252 56.111C38.1372 55.306 37.0592 54.214 36.2752 52.919L26.3492 36.644C25.6422 35.475 25.7682 33.928 26.7692 32.997C28.1412 31.737 30.2342 32.087 31.1512 33.592L29.5622 30.988C28.8482 29.819 28.9742 28.272 29.9822 27.348C31.3542 26.081 33.4402 26.431 34.3572 27.936L32.7122 25.241C31.7952 23.736 32.4462 21.713 34.1962 21.076C35.4772 20.607 36.9122 21.209 37.6262 22.371Z" fill="#FF9F91"/>
<path opacity="0.1" d="M34.1932 21.076C35.4742 20.607 36.9093 21.209 37.6233 22.371L39.2123 24.975C38.2953 23.47 38.9393 21.454 40.6893 20.817C41.9773 20.348 43.4123 20.943 44.1193 22.112L55.3263 39.92L58.2453 33.151C59.2253 30.099 61.2063 28.629 64.2723 29.567C65.2313 29.861 65.7773 30.869 65.4973 31.835C64.4403 35.503 61.9762 44.029 60.8633 47.893C60.4992 49.146 60.6813 50.49 61.3603 51.61L62.5923 53.633L50.3003 61.942L48.0183 58.379C47.6403 57.763 47.1223 57.238 46.5063 56.853L42.2153 54.165C40.9273 53.36 39.8493 52.268 39.0653 50.973L29.1393 34.691C28.5583 33.732 27.9142 33.158 28.4812 32.241C29.5172 32.157 30.5673 32.64 31.1483 33.592L29.5593 30.988C28.8453 29.819 28.9713 28.272 29.9793 27.348C31.3513 26.081 33.4373 26.431 34.3543 27.936L32.7093 25.241C31.7923 23.736 32.4432 21.713 34.1932 21.076Z" fill="#FFBFB4"/>
<path opacity="0.1" d="M29.0586 28.9531L37.9346 43.5131C39.2156 42.7361 39.8106 41.3781 39.2646 40.4821L31.3756 27.5391L29.0586 28.9531Z" fill="#FF9F91"/>
<path opacity="0.1" d="M32.2695 23.2963L42.7835 40.5513C43.8545 39.9003 44.2815 38.6543 43.7355 37.7583L34.2015 22.1133L32.2695 23.2963Z" fill="#FF9F91"/>
<path opacity="0.1" d="M38.4727 22.5544L47.6427 37.5974C48.7977 36.8904 49.2807 35.5674 48.7207 34.6504L40.5657 21.2734L38.4727 22.5544Z" fill="#FF9F91"/>
<path opacity="0.1" d="M28.5166 63.0685L24.3656 68.0525L1.60156 49.0825L5.75256 44.1055L28.5166 63.0685Z" fill="#74AAFF"/>
<path opacity="0.1" d="M46.7812 63.7277L49.1613 67.6407L66.2902 57.2177L63.9102 53.3047L46.7812 63.7277Z" fill="#FFC960"/>
<path opacity="0.1" d="M28.5164 63.0704L24.3654 68.0544L21.8594 65.9614L26.0104 60.9844L28.5164 63.0704Z" fill="#4F88FF"/>
<path opacity="0.1" d="M46.7812 63.7278L49.1613 67.6408L51.5762 66.1708L49.1962 62.2578L46.7812 63.7278Z" fill="#FFAA4C"/>
<path opacity="0.1" d="M40.2865 17.4153C40.0671 17.42 39.8641 17.3476 39.6775 17.1983C39.2715 16.8623 39.2155 16.2673 39.5515 15.8613L46.4465 7.5173C46.7825 7.1113 47.3845 7.0553 47.7905 7.3913C48.1965 7.7203 48.2525 8.3223 47.9165 8.7283L41.0215 17.0723C40.8325 17.3033 40.5595 17.4153 40.2865 17.4153Z" fill="#252D32"/>
<path opacity="0.1" d="M49.1814 19.9915C48.9714 19.9915 48.7754 19.9215 48.5934 19.7815C48.1804 19.4595 48.1104 18.8575 48.4324 18.4445L52.8354 12.8655C53.1574 12.4525 53.7594 12.3825 54.1724 12.7115C54.5854 13.0335 54.6554 13.6355 54.3334 14.0485L49.9304 19.6275C49.7414 19.8655 49.4684 19.9915 49.1814 19.9915Z" fill="#252D32"/>
<path opacity="0.1" d="M53.3396 27.5723C53.1109 27.5723 52.9032 27.4953 52.7166 27.3413C52.3176 26.9983 52.2686 26.3963 52.6116 25.9973L56.8886 21.0133C57.2316 20.6143 57.8336 20.5723 58.2326 20.9153C58.6316 21.2583 58.6805 21.8603 58.3375 22.2593L54.0606 27.2363C53.8716 27.4603 53.6056 27.5723 53.3396 27.5723Z" fill="#252D32"/>
<path opacity="0.1" d="M24.4312 69.6562C24.2025 69.6516 23.9995 69.5769 23.8222 69.4322L0.344199 49.8812C-0.0618015 49.5382 -0.117801 48.9432 0.225199 48.5372L4.9642 42.8462C5.3002 42.4402 5.9022 42.3842 6.3082 42.7202L6.9382 43.2522L9.2622 40.0182C9.2762 40.0042 9.2902 39.9879 9.3042 39.9692C10.3612 38.7022 10.8372 37.0502 10.6132 35.4192C10.0532 31.2332 8.8982 23.9112 7.9742 18.0312C7.6732 16.1132 7.4002 14.3702 7.1832 12.9772C6.9942 11.7522 7.3442 10.5132 8.1352 9.56824C8.8982 8.65824 9.9972 8.12624 11.1662 8.10524C11.2409 8.10058 11.3179 8.09824 11.3972 8.09824C16.7732 8.09824 18.6352 12.0392 19.7412 15.9102L21.7082 24.1912L40.2302 1.95924C41.9592 -0.112756 44.8922 -0.609756 47.0552 0.797244C48.2242 1.56024 49.0292 2.75024 49.2952 4.09424L49.5962 3.73724C51.3252 1.66524 54.2512 1.16824 56.4212 2.57524C57.6532 3.38024 58.4862 4.66824 58.7032 6.11724C58.9202 7.55924 58.5142 9.02924 57.5762 10.1562L57.1632 10.6462C58.4932 10.6672 59.7812 11.2132 60.7262 12.1722C62.5602 14.0202 62.6372 17.1002 60.9012 19.1792L60.6002 19.5362C61.9302 19.5642 63.2182 20.1102 64.1632 21.0622C65.9972 22.9102 66.0742 25.9902 64.3382 28.0762L62.9942 29.6512C62.6512 30.0502 62.0492 30.0992 61.6502 29.7562C61.2512 29.4202 61.2022 28.8182 61.5382 28.4122L62.8822 26.8442C63.9882 25.5142 63.9602 23.5612 62.8122 22.4062C62.1612 21.7482 61.2932 21.4192 60.3832 21.4472C59.4802 21.4892 58.6332 21.9092 58.0522 22.6022C57.7162 23.0082 57.1142 23.0572 56.7082 22.7212C56.3022 22.3852 56.2532 21.7832 56.5892 21.3842L59.4382 17.9612C60.5512 16.6242 60.5232 14.6712 59.3752 13.5162C58.7242 12.8582 57.8562 12.5222 56.9462 12.5572C56.0432 12.5922 55.1962 13.0122 54.6152 13.7052C54.2722 14.1112 53.6772 14.1672 53.2712 13.8312C52.8652 13.4952 52.8092 12.8932 53.1522 12.4942C53.1522 12.4872 56.1132 8.93124 56.1132 8.93124C56.7012 8.23124 56.9602 7.30724 56.8202 6.39724C56.6802 5.48024 56.1692 4.68924 55.3852 4.17124C54.0482 3.30324 52.1512 3.64624 51.0592 4.95524L48.2102 8.37824C47.8742 8.78424 47.2722 8.83324 46.8662 8.49724C46.4672 8.16124 46.4112 7.55924 46.7472 7.16024C47.3352 6.44624 47.5942 5.52924 47.4542 4.61924C47.3142 3.70224 46.8032 2.91124 46.0192 2.39324C44.6822 1.52524 42.7852 1.86824 41.6932 3.17724L21.9532 26.8722C21.7222 27.1522 21.3582 27.2712 21.0082 27.1942C20.6512 27.1102 20.3782 26.8372 20.2942 26.4802L17.8932 16.3862C16.5912 11.8292 14.7572 10.0092 11.4042 10.0092C11.3342 10.0092 11.2665 10.0092 11.2012 10.0092C10.5782 10.0232 10.0112 10.2962 9.5982 10.7932C9.1572 11.3182 8.9612 12.0042 9.0662 12.6832C9.2832 14.0762 9.5562 15.8192 9.8572 17.7372C10.7812 23.6242 11.9362 30.9602 12.5032 35.1672C12.7972 37.3092 12.1672 39.4932 10.7952 41.1592L7.8902 45.1982C7.7362 45.4082 7.4982 45.5552 7.2392 45.5832C6.9732 45.6182 6.7072 45.5412 6.5112 45.3732L5.8182 44.7992L2.2972 49.0202L24.3052 67.3602L27.8262 63.1322L27.1402 62.5582C26.9442 62.3972 26.8182 62.1662 26.7972 61.9142C26.7762 61.6622 26.8532 61.4102 27.0142 61.2142L30.1292 57.4762C30.8992 56.5522 31.8932 55.8102 32.9922 55.3272L36.7512 53.6822C37.2342 53.4722 37.7942 53.6892 38.0042 54.1722C38.2142 54.6552 37.9972 55.2152 37.5142 55.4252L33.7552 57.0702C32.9222 57.4412 32.1732 58.0012 31.5922 58.7012L29.0862 61.7042L29.7792 62.2782C29.9752 62.4392 30.0942 62.6772 30.1222 62.9222C30.1432 63.1742 30.0662 63.4262 29.9052 63.6222L25.1592 69.3132C24.9982 69.5092 24.7672 69.6282 24.5152 69.6492C24.4872 69.6539 24.4592 69.6562 24.4312 69.6562Z" fill="#252D32"/>
<path opacity="0.1" d="M46.8808 37.904C46.5588 37.904 46.2438 37.743 46.0688 37.449L38.8378 25.577C38.5578 25.129 38.7048 24.541 39.1528 24.268C39.6008 23.995 40.1888 24.135 40.4618 24.59L47.6928 36.455C47.9658 36.903 47.8258 37.491 47.3778 37.764C47.2191 37.8573 47.0535 37.904 46.8808 37.904Z" fill="#252D32"/>
<path opacity="0.1" d="M42.029 40.8582C41.707 40.8582 41.3919 40.6972 41.2099 40.4032L33.979 28.5382C33.706 28.0902 33.846 27.5022 34.301 27.2292C34.749 26.9562 35.3299 27.0962 35.6099 27.5442L42.841 39.4162C43.114 39.8642 42.974 40.4452 42.519 40.7252C42.365 40.8186 42.2016 40.8629 42.029 40.8582Z" fill="#252D32"/>
<path opacity="0.1" d="M37.1684 43.8194C36.8464 43.8194 36.5314 43.6584 36.3564 43.3644L30.4344 33.6554C30.1614 33.2074 30.3084 32.6194 30.7564 32.3464C31.2044 32.0734 31.7924 32.2134 32.0654 32.6614L37.9804 42.3704C38.2534 42.8184 38.1134 43.4064 37.6654 43.6794C37.5067 43.7728 37.341 43.8194 37.1684 43.8194Z" fill="#252D32"/>
<path opacity="0.1" d="M48.9359 69.1948C48.8613 69.1948 48.7866 69.1878 48.7119 69.1738C48.4669 69.1108 48.2569 68.9568 48.1239 68.7398L45.4919 64.4278C45.2189 63.9728 45.3589 63.3918 45.8139 63.1188L46.0729 62.9508L44.8479 60.9348C44.5469 60.4448 44.1339 60.0248 43.6439 59.7168L39.3459 57.0288C37.9459 56.1468 36.7489 54.9358 35.8879 53.5218L25.8079 36.9878C24.7719 35.2798 25.1639 33.0328 26.7109 31.8708C27.3479 31.3948 28.1179 31.1358 28.9019 31.1148C28.0129 29.4348 28.4399 27.3278 29.9169 26.2218C30.5539 25.7388 31.3239 25.4798 32.1009 25.4588C31.5969 24.5558 31.4779 23.4778 31.7789 22.4838C32.0939 21.4478 32.8499 20.5938 33.8369 20.1388C35.5099 19.3758 37.5049 19.9708 38.5759 21.5178C38.9679 20.8038 39.5839 20.2228 40.3329 19.8798C42.0759 19.0818 44.1759 19.7608 45.2119 21.4618L55.1729 37.7998L57.0979 32.9978C58.2389 30.4708 60.0379 27.6988 64.0069 28.3778C64.8749 28.5248 65.6379 29.0498 66.1069 29.8058C66.5969 30.6038 66.7159 31.5628 66.4429 32.4518C66.1559 33.3758 65.7919 34.5308 65.3999 35.7978C64.1889 39.6688 62.6769 44.4918 61.8789 47.2498C61.5919 48.2438 61.7389 49.3218 62.2779 50.2108C62.2873 50.2295 62.2989 50.2481 62.3129 50.2668L63.4049 52.3948L63.6079 52.2688C63.8249 52.1358 64.0839 52.0938 64.3289 52.1568C64.5739 52.2128 64.7909 52.3668 64.9169 52.5838L67.5489 56.9028C67.6819 57.1128 67.7239 57.3718 67.6609 57.6238C67.6049 57.8688 67.4509 58.0788 67.2339 58.2118L49.4329 69.0618C49.2789 69.1505 49.1133 69.1948 48.9359 69.1948ZM47.6199 64.2458L49.2509 66.9338L65.4279 57.0778L63.7899 54.3898L63.5239 54.5508C63.2999 54.6908 63.0269 54.7258 62.7679 54.6558C62.5159 54.5858 62.2989 54.4108 62.1799 54.1728L60.6329 51.1698C59.8279 49.8328 59.6179 48.2158 60.0519 46.7178C60.8569 43.9388 62.3619 39.1088 63.5799 35.2308C63.9789 33.9638 64.3359 32.8088 64.6229 31.8848C64.7349 31.5278 64.6859 31.1288 64.4829 30.8068C64.3009 30.5058 64.0209 30.3098 63.6849 30.2538C61.8229 29.9458 60.3599 30.4148 58.8479 33.7468L56.2299 40.2778C56.0969 40.6138 55.7889 40.8448 55.4249 40.8728C55.0609 40.9008 54.7249 40.7258 54.5359 40.4178L43.5809 22.4558C43.0559 21.5948 41.9779 21.2238 41.1309 21.6088C40.6269 21.8398 40.2629 22.2598 40.1019 22.7778C39.9409 23.2958 40.0109 23.8558 40.2909 24.3178C40.5709 24.7658 40.4239 25.3538 39.9759 25.6268C39.5279 25.8998 38.9399 25.7598 38.6669 25.3118C38.6669 25.3048 37.0849 22.7148 37.0849 22.7148C36.5599 21.8538 35.4819 21.4828 34.6349 21.8748C34.1309 22.1058 33.7599 22.5188 33.6059 23.0438C33.4449 23.5618 33.5149 24.1218 33.7949 24.5768L35.4399 27.2718C35.7129 27.7268 35.5729 28.3148 35.1249 28.5878C34.6769 28.8608 34.0889 28.7208 33.8159 28.2658C33.5359 27.8178 33.0809 27.4958 32.5559 27.3978C32.0309 27.2928 31.4989 27.4188 31.0579 27.7478C30.2949 28.3218 30.1129 29.4558 30.6519 30.3378L32.2269 32.9348C32.4999 33.3828 32.3599 33.9708 31.9119 34.2438C31.4639 34.5168 30.8759 34.3768 30.6029 33.9218C30.3229 33.4738 29.8679 33.1518 29.3429 33.0538C28.8179 32.9488 28.2859 33.0748 27.8519 33.3968C27.0819 33.9708 26.8999 35.1118 27.4389 35.9938L37.5189 52.5348C38.2259 53.6968 39.2059 54.6908 40.3609 55.4118L44.6589 58.1068C45.3939 58.5618 46.0169 59.1988 46.4719 59.9408L48.2009 62.7758C48.3339 62.9928 48.3689 63.2518 48.3129 63.4968C48.2499 63.7418 48.0959 63.9518 47.8789 64.0848L47.6199 64.2458Z" fill="#252D32"/>
<path opacity="0.1" d="M27.4313 62.5783C27.2866 62.5783 27.1513 62.5293 27.0253 62.4313L5.43026 44.6443C5.15726 44.4203 5.12226 44.0213 5.34626 43.7483C5.56326 43.4823 5.96226 43.4403 6.23526 43.6643L27.8373 61.4513C28.1103 61.6753 28.1453 62.0743 27.9213 62.3473C27.7953 62.5013 27.6133 62.5783 27.4313 62.5783Z" fill="#252D32"/>
<path opacity="0.1" d="M47.0067 64.4703C46.7897 64.4703 46.5797 64.3583 46.4607 64.1623C46.2787 63.8613 46.3697 63.4763 46.6707 63.2943L63.3167 53.1443C63.6107 52.9623 64.0027 53.0533 64.1917 53.3543C64.3737 53.6553 64.2757 54.0473 63.9747 54.2293L47.3357 64.3793C47.2283 64.4399 47.1187 64.4703 47.0067 64.4703Z" fill="#252D32"/>
<path d="M50.6926 4.62682L47.8296 8.06382C49.4816 6.08282 48.9846 3.01682 46.5836 1.70782C44.8196 0.755822 42.6076 1.30882 41.3266 2.84882L21.2576 26.2568L18.4716 15.8198C17.0786 10.9478 15.1606 8.63082 10.5126 9.33082C9.05656 9.55482 8.04156 10.8918 8.23756 12.3548C8.98656 17.9058 10.7226 30.7858 11.5136 36.6308C11.7726 38.5278 10.8696 39.5078 9.64456 40.9778L7.10356 44.7928L6.34756 43.3928L1.60156 49.0838L24.4426 68.0118L29.1816 62.3208L27.7606 61.1308L30.6096 57.4978C31.2886 56.6788 33.0526 56.5668 34.0256 56.1398L40.8296 53.1648C42.8666 52.2688 44.6656 50.9178 46.0866 49.2098L63.9716 27.7408C65.2596 26.2008 65.4066 23.9328 64.1466 22.3718C62.4316 20.2438 59.3236 20.3068 57.6716 22.2878L60.5346 18.8508C61.8156 17.3108 61.9626 15.0428 60.7096 13.4818C58.9946 11.3538 55.8866 11.4168 54.2346 13.3978L57.1956 9.84182C58.8476 7.85382 58.3436 4.78782 55.9426 3.48582C54.1856 2.53382 51.9736 3.08682 50.6926 4.62682Z" fill="#FF9F91"/>
<path d="M55.9445 3.48582C54.1875 2.53382 51.9755 3.08682 50.6945 4.62682L47.8315 8.06382C49.4835 6.08282 48.9865 3.01682 46.5855 1.70782C44.8215 0.755822 42.6095 1.30882 41.3285 2.84882L21.2595 26.2568L18.4735 15.8198C17.7105 11.1858 15.1625 8.63082 10.5145 9.33082C9.05847 9.55482 8.04347 10.8918 8.23947 12.3548C8.98847 17.9058 10.7245 30.7858 11.5155 36.6308C11.7745 38.5278 11.2215 40.4388 9.99647 41.9088L7.10547 45.4298L24.8925 60.0388L28.6655 55.6568C29.3445 54.8448 30.2055 54.1938 31.1785 53.7668L37.9895 50.7918C40.0195 49.9028 41.8185 48.5518 43.2465 46.8438L61.1315 25.3748C62.1815 24.1078 62.4545 22.3508 61.8245 20.9018C60.3405 20.5518 58.7165 21.0348 57.6735 22.2878L60.5365 18.8508C61.8175 17.3108 61.9645 15.0428 60.7115 13.4818C58.9965 11.3538 55.8885 11.4168 54.2365 13.3978L57.1975 9.84182C58.8495 7.85382 58.3455 4.78782 55.9445 3.48582Z" fill="#FFBFB4"/>
<path d="M40.9495 22.7487C40.2355 21.5797 38.8005 20.9847 37.5125 21.4537C35.7625 22.0907 35.1185 24.1067 36.0355 25.6117L34.4465 23.0077C33.7395 21.8387 32.3045 21.2437 31.0165 21.7127C29.2665 22.3497 28.6225 24.3727 29.5395 25.8777L31.1845 28.5727C30.2675 27.0677 28.1745 26.7177 26.8025 27.9777C25.8015 28.9087 25.6685 30.4557 26.3825 31.6247L27.9715 34.2287C27.0545 32.7237 24.9615 32.3737 23.5895 33.6337C22.5885 34.5647 22.4625 36.1117 23.1695 37.2807L32.7945 53.0657L37.9885 50.7907C40.0185 49.9017 41.8175 48.5507 43.2455 46.8427L50.5745 38.0437L40.9495 22.7487Z" fill="#FF9F91"/>
<path d="M61.082 16.7566L45.703 35.2086C44.527 34.2286 44.394 32.4436 45.409 31.2186L60.165 13.5156L60.837 14.0756C61.642 14.7476 61.754 15.9446 61.082 16.7566Z" fill="#FF9F91"/>
<path d="M57.0302 8.59509L39.2992 29.8751C38.1232 28.8951 37.9832 27.1241 38.9842 25.9201L56.5192 4.87109L56.7012 5.01809C57.7792 5.92109 57.9262 7.51709 57.0302 8.59509Z" fill="#FF9F91"/>
<path d="M49.2851 4.87175L32.8981 24.5418C31.7151 23.5618 31.5751 21.7838 32.5831 20.5798L47.1501 3.09375L49.2851 4.87175Z" fill="#FF9F91"/>
<path d="M37.6262 22.371L39.2152 24.975C38.2982 23.47 38.9422 21.454 40.6922 20.817C41.9802 20.348 43.4152 20.943 44.1222 22.112L55.3292 39.92L58.2482 33.151C59.6762 30.001 61.2092 28.629 64.2752 29.567C65.2342 29.861 65.7802 30.869 65.5002 31.835C64.4432 35.503 61.9792 44.029 60.8662 47.893C60.5022 49.146 60.6842 50.49 61.3632 51.61L62.5952 53.633L63.6732 52.975L66.3052 57.287L48.5042 68.137L45.8722 63.825L46.9572 63.167L45.2282 60.332C44.8502 59.716 44.3322 59.191 43.7162 58.806L39.4252 56.111C38.1372 55.306 37.0592 54.214 36.2752 52.919L26.3492 36.644C25.6422 35.475 25.7682 33.928 26.7692 32.997C28.1412 31.737 30.2342 32.087 31.1512 33.592L29.5622 30.988C28.8482 29.819 28.9742 28.272 29.9822 27.348C31.3542 26.081 33.4402 26.431 34.3572 27.936L32.7122 25.241C31.7952 23.736 32.4462 21.713 34.1962 21.076C35.4772 20.607 36.9122 21.209 37.6262 22.371Z" fill="#FF9F91"/>
<path d="M34.1932 21.076C35.4742 20.607 36.9093 21.209 37.6233 22.371L39.2123 24.975C38.2953 23.47 38.9393 21.454 40.6893 20.817C41.9773 20.348 43.4123 20.943 44.1193 22.112L55.3263 39.92L58.2453 33.151C59.2253 30.099 61.2063 28.629 64.2723 29.567C65.2313 29.861 65.7773 30.869 65.4973 31.835C64.4403 35.503 61.9762 44.029 60.8633 47.893C60.4992 49.146 60.6813 50.49 61.3603 51.61L62.5923 53.633L50.3003 61.942L48.0183 58.379C47.6403 57.763 47.1223 57.238 46.5063 56.853L42.2153 54.165C40.9273 53.36 39.8493 52.268 39.0653 50.973L29.1393 34.691C28.5583 33.732 27.9142 33.158 28.4812 32.241C29.5172 32.157 30.5673 32.64 31.1483 33.592L29.5593 30.988C28.8453 29.819 28.9713 28.272 29.9793 27.348C31.3513 26.081 33.4373 26.431 34.3543 27.936L32.7093 25.241C31.7923 23.736 32.4432 21.713 34.1932 21.076Z" fill="#FFBFB4"/>
<path d="M29.0586 28.9531L37.9346 43.5131C39.2156 42.7361 39.8106 41.3781 39.2646 40.4821L31.3756 27.5391L29.0586 28.9531Z" fill="#FF9F91"/>
<path d="M32.2695 23.2963L42.7835 40.5513C43.8545 39.9003 44.2815 38.6543 43.7355 37.7583L34.2015 22.1133L32.2695 23.2963Z" fill="#FF9F91"/>
<path d="M38.4727 22.5544L47.6427 37.5974C48.7977 36.8904 49.2807 35.5674 48.7207 34.6504L40.5657 21.2734L38.4727 22.5544Z" fill="#FF9F91"/>
<path d="M28.5166 63.0685L24.3656 68.0525L1.60156 49.0825L5.75256 44.1055L28.5166 63.0685Z" fill="#74AAFF"/>
<path d="M46.7812 63.7277L49.1613 67.6407L66.2902 57.2177L63.9102 53.3047L46.7812 63.7277Z" fill="#FFC960"/>
<path d="M28.5164 63.0704L24.3654 68.0544L21.8594 65.9614L26.0104 60.9844L28.5164 63.0704Z" fill="#4F88FF"/>
<path d="M46.7812 63.7278L49.1613 67.6408L51.5762 66.1708L49.1962 62.2578L46.7812 63.7278Z" fill="#FFAA4C"/>
<path d="M40.2865 17.4153C40.0671 17.42 39.8641 17.3476 39.6775 17.1983C39.2715 16.8623 39.2155 16.2673 39.5515 15.8613L46.4465 7.5173C46.7825 7.1113 47.3845 7.0553 47.7905 7.3913C48.1965 7.7203 48.2525 8.3223 47.9165 8.7283L41.0215 17.0723C40.8325 17.3033 40.5595 17.4153 40.2865 17.4153Z" fill="#252D32"/>
<path d="M49.1814 19.9915C48.9714 19.9915 48.7754 19.9215 48.5934 19.7815C48.1804 19.4595 48.1104 18.8575 48.4324 18.4445L52.8354 12.8655C53.1574 12.4525 53.7594 12.3825 54.1724 12.7115C54.5854 13.0335 54.6554 13.6355 54.3334 14.0485L49.9304 19.6275C49.7414 19.8655 49.4684 19.9915 49.1814 19.9915Z" fill="#252D32"/>
<path d="M53.3396 27.5723C53.1109 27.5723 52.9032 27.4953 52.7166 27.3413C52.3176 26.9983 52.2686 26.3963 52.6116 25.9973L56.8886 21.0133C57.2316 20.6143 57.8336 20.5723 58.2326 20.9153C58.6316 21.2583 58.6805 21.8603 58.3375 22.2593L54.0606 27.2363C53.8716 27.4603 53.6056 27.5723 53.3396 27.5723Z" fill="#252D32"/>
<path d="M24.4312 69.6562C24.2025 69.6516 23.9995 69.5769 23.8222 69.4322L0.344199 49.8812C-0.0618015 49.5382 -0.117801 48.9432 0.225199 48.5372L4.9642 42.8462C5.3002 42.4402 5.9022 42.3842 6.3082 42.7202L6.9382 43.2522L9.2622 40.0182C9.2762 40.0042 9.2902 39.9879 9.3042 39.9692C10.3612 38.7022 10.8372 37.0502 10.6132 35.4192C10.0532 31.2332 8.8982 23.9112 7.9742 18.0312C7.6732 16.1132 7.4002 14.3702 7.1832 12.9772C6.9942 11.7522 7.3442 10.5132 8.1352 9.56824C8.8982 8.65824 9.9972 8.12624 11.1662 8.10524C11.2409 8.10058 11.3179 8.09824 11.3972 8.09824C16.7732 8.09824 18.6352 12.0392 19.7412 15.9102L21.7082 24.1912L40.2302 1.95924C41.9592 -0.112756 44.8922 -0.609756 47.0552 0.797244C48.2242 1.56024 49.0292 2.75024 49.2952 4.09424L49.5962 3.73724C51.3252 1.66524 54.2512 1.16824 56.4212 2.57524C57.6532 3.38024 58.4862 4.66824 58.7032 6.11724C58.9202 7.55924 58.5142 9.02924 57.5762 10.1562L57.1632 10.6462C58.4932 10.6672 59.7812 11.2132 60.7262 12.1722C62.5602 14.0202 62.6372 17.1002 60.9012 19.1792L60.6002 19.5362C61.9302 19.5642 63.2182 20.1102 64.1632 21.0622C65.9972 22.9102 66.0742 25.9902 64.3382 28.0762L62.9942 29.6512C62.6512 30.0502 62.0492 30.0992 61.6502 29.7562C61.2512 29.4202 61.2022 28.8182 61.5382 28.4122L62.8822 26.8442C63.9882 25.5142 63.9602 23.5612 62.8122 22.4062C62.1612 21.7482 61.2932 21.4192 60.3832 21.4472C59.4802 21.4892 58.6332 21.9092 58.0522 22.6022C57.7162 23.0082 57.1142 23.0572 56.7082 22.7212C56.3022 22.3852 56.2532 21.7832 56.5892 21.3842L59.4382 17.9612C60.5512 16.6242 60.5232 14.6712 59.3752 13.5162C58.7242 12.8582 57.8562 12.5222 56.9462 12.5572C56.0432 12.5922 55.1962 13.0122 54.6152 13.7052C54.2722 14.1112 53.6772 14.1672 53.2712 13.8312C52.8652 13.4952 52.8092 12.8932 53.1522 12.4942C53.1522 12.4872 56.1132 8.93124 56.1132 8.93124C56.7012 8.23124 56.9602 7.30724 56.8202 6.39724C56.6802 5.48024 56.1692 4.68924 55.3852 4.17124C54.0482 3.30324 52.1512 3.64624 51.0592 4.95524L48.2102 8.37824C47.8742 8.78424 47.2722 8.83324 46.8662 8.49724C46.4672 8.16124 46.4112 7.55924 46.7472 7.16024C47.3352 6.44624 47.5942 5.52924 47.4542 4.61924C47.3142 3.70224 46.8032 2.91124 46.0192 2.39324C44.6822 1.52524 42.7852 1.86824 41.6932 3.17724L21.9532 26.8722C21.7222 27.1522 21.3582 27.2712 21.0082 27.1942C20.6512 27.1102 20.3782 26.8372 20.2942 26.4802L17.8932 16.3862C16.5912 11.8292 14.7572 10.0092 11.4042 10.0092C11.3342 10.0092 11.2665 10.0092 11.2012 10.0092C10.5782 10.0232 10.0112 10.2962 9.5982 10.7932C9.1572 11.3182 8.9612 12.0042 9.0662 12.6832C9.2832 14.0762 9.5562 15.8192 9.8572 17.7372C10.7812 23.6242 11.9362 30.9602 12.5032 35.1672C12.7972 37.3092 12.1672 39.4932 10.7952 41.1592L7.8902 45.1982C7.7362 45.4082 7.4982 45.5552 7.2392 45.5832C6.9732 45.6182 6.7072 45.5412 6.5112 45.3732L5.8182 44.7992L2.2972 49.0202L24.3052 67.3602L27.8262 63.1322L27.1402 62.5582C26.9442 62.3972 26.8182 62.1662 26.7972 61.9142C26.7762 61.6622 26.8532 61.4102 27.0142 61.2142L30.1292 57.4762C30.8992 56.5522 31.8932 55.8102 32.9922 55.3272L36.7512 53.6822C37.2342 53.4722 37.7942 53.6892 38.0042 54.1722C38.2142 54.6552 37.9972 55.2152 37.5142 55.4252L33.7552 57.0702C32.9222 57.4412 32.1732 58.0012 31.5922 58.7012L29.0862 61.7042L29.7792 62.2782C29.9752 62.4392 30.0942 62.6772 30.1222 62.9222C30.1432 63.1742 30.0662 63.4262 29.9052 63.6222L25.1592 69.3132C24.9982 69.5092 24.7672 69.6282 24.5152 69.6492C24.4872 69.6539 24.4592 69.6562 24.4312 69.6562Z" fill="#252D32"/>
<path d="M46.8808 37.904C46.5588 37.904 46.2438 37.743 46.0688 37.449L38.8378 25.577C38.5578 25.129 38.7048 24.541 39.1528 24.268C39.6008 23.995 40.1888 24.135 40.4618 24.59L47.6928 36.455C47.9658 36.903 47.8258 37.491 47.3778 37.764C47.2191 37.8573 47.0535 37.904 46.8808 37.904Z" fill="#252D32"/>
<path d="M42.029 40.8582C41.707 40.8582 41.3919 40.6972 41.2099 40.4032L33.979 28.5382C33.706 28.0902 33.846 27.5022 34.301 27.2292C34.749 26.9562 35.3299 27.0962 35.6099 27.5442L42.841 39.4162C43.114 39.8642 42.974 40.4452 42.519 40.7252C42.365 40.8186 42.2016 40.8629 42.029 40.8582Z" fill="#252D32"/>
<path d="M37.1684 43.8194C36.8464 43.8194 36.5314 43.6584 36.3564 43.3644L30.4344 33.6554C30.1614 33.2074 30.3084 32.6194 30.7564 32.3464C31.2044 32.0734 31.7924 32.2134 32.0654 32.6614L37.9804 42.3704C38.2534 42.8184 38.1134 43.4064 37.6654 43.6794C37.5067 43.7728 37.341 43.8194 37.1684 43.8194Z" fill="#252D32"/>
<path d="M48.9359 69.1948C48.8613 69.1948 48.7866 69.1878 48.7119 69.1738C48.4669 69.1108 48.2569 68.9568 48.1239 68.7398L45.4919 64.4278C45.2189 63.9728 45.3589 63.3918 45.8139 63.1188L46.0729 62.9508L44.8479 60.9348C44.5469 60.4448 44.1339 60.0248 43.6439 59.7168L39.3459 57.0288C37.9459 56.1468 36.7489 54.9358 35.8879 53.5218L25.8079 36.9878C24.7719 35.2798 25.1639 33.0328 26.7109 31.8708C27.3479 31.3948 28.1179 31.1358 28.9019 31.1148C28.0129 29.4348 28.4399 27.3278 29.9169 26.2218C30.5539 25.7388 31.3239 25.4798 32.1009 25.4588C31.5969 24.5558 31.4779 23.4778 31.7789 22.4838C32.0939 21.4478 32.8499 20.5938 33.8369 20.1388C35.5099 19.3758 37.5049 19.9708 38.5759 21.5178C38.9679 20.8038 39.5839 20.2228 40.3329 19.8798C42.0759 19.0818 44.1759 19.7608 45.2119 21.4618L55.1729 37.7998L57.0979 32.9978C58.2389 30.4708 60.0379 27.6988 64.0069 28.3778C64.8749 28.5248 65.6379 29.0498 66.1069 29.8058C66.5969 30.6038 66.7159 31.5628 66.4429 32.4518C66.1559 33.3758 65.7919 34.5308 65.3999 35.7978C64.1889 39.6688 62.6769 44.4918 61.8789 47.2498C61.5919 48.2438 61.7389 49.3218 62.2779 50.2108C62.2873 50.2295 62.2989 50.2481 62.3129 50.2668L63.4049 52.3948L63.6079 52.2688C63.8249 52.1358 64.0839 52.0938 64.3289 52.1568C64.5739 52.2128 64.7909 52.3668 64.9169 52.5838L67.5489 56.9028C67.6819 57.1128 67.7239 57.3718 67.6609 57.6238C67.6049 57.8688 67.4509 58.0788 67.2339 58.2118L49.4329 69.0618C49.2789 69.1505 49.1133 69.1948 48.9359 69.1948ZM47.6199 64.2458L49.2509 66.9338L65.4279 57.0778L63.7899 54.3898L63.5239 54.5508C63.2999 54.6908 63.0269 54.7258 62.7679 54.6558C62.5159 54.5858 62.2989 54.4108 62.1799 54.1728L60.6329 51.1698C59.8279 49.8328 59.6179 48.2158 60.0519 46.7178C60.8569 43.9388 62.3619 39.1088 63.5799 35.2308C63.9789 33.9638 64.3359 32.8088 64.6229 31.8848C64.7349 31.5278 64.6859 31.1288 64.4829 30.8068C64.3009 30.5058 64.0209 30.3098 63.6849 30.2538C61.8229 29.9458 60.3599 30.4148 58.8479 33.7468L56.2299 40.2778C56.0969 40.6138 55.7889 40.8448 55.4249 40.8728C55.0609 40.9008 54.7249 40.7258 54.5359 40.4178L43.5809 22.4558C43.0559 21.5948 41.9779 21.2238 41.1309 21.6088C40.6269 21.8398 40.2629 22.2598 40.1019 22.7778C39.9409 23.2958 40.0109 23.8558 40.2909 24.3178C40.5709 24.7658 40.4239 25.3538 39.9759 25.6268C39.5279 25.8998 38.9399 25.7598 38.6669 25.3118C38.6669 25.3048 37.0849 22.7148 37.0849 22.7148C36.5599 21.8538 35.4819 21.4828 34.6349 21.8748C34.1309 22.1058 33.7599 22.5188 33.6059 23.0438C33.4449 23.5618 33.5149 24.1218 33.7949 24.5768L35.4399 27.2718C35.7129 27.7268 35.5729 28.3148 35.1249 28.5878C34.6769 28.8608 34.0889 28.7208 33.8159 28.2658C33.5359 27.8178 33.0809 27.4958 32.5559 27.3978C32.0309 27.2928 31.4989 27.4188 31.0579 27.7478C30.2949 28.3218 30.1129 29.4558 30.6519 30.3378L32.2269 32.9348C32.4999 33.3828 32.3599 33.9708 31.9119 34.2438C31.4639 34.5168 30.8759 34.3768 30.6029 33.9218C30.3229 33.4738 29.8679 33.1518 29.3429 33.0538C28.8179 32.9488 28.2859 33.0748 27.8519 33.3968C27.0819 33.9708 26.8999 35.1118 27.4389 35.9938L37.5189 52.5348C38.2259 53.6968 39.2059 54.6908 40.3609 55.4118L44.6589 58.1068C45.3939 58.5618 46.0169 59.1988 46.4719 59.9408L48.2009 62.7758C48.3339 62.9928 48.3689 63.2518 48.3129 63.4968C48.2499 63.7418 48.0959 63.9518 47.8789 64.0848L47.6199 64.2458Z" fill="#252D32"/>
<path d="M27.4313 62.5783C27.2866 62.5783 27.1513 62.5293 27.0253 62.4313L5.43026 44.6443C5.15726 44.4203 5.12226 44.0213 5.34626 43.7483C5.56326 43.4823 5.96226 43.4403 6.23526 43.6643L27.8373 61.4513C28.1103 61.6753 28.1453 62.0743 27.9213 62.3473C27.7953 62.5013 27.6133 62.5783 27.4313 62.5783Z" fill="#252D32"/>
<path d="M47.0067 64.4703C46.7897 64.4703 46.5797 64.3583 46.4607 64.1623C46.2787 63.8613 46.3697 63.4763 46.6707 63.2943L63.3167 53.1443C63.6107 52.9623 64.0027 53.0533 64.1917 53.3543C64.3737 53.6553 64.2757 54.0473 63.9747 54.2293L47.3357 64.3793C47.2283 64.4399 47.1187 64.4703 47.0067 64.4703Z" fill="#252D32"/>
</svg>
