<svg width="70" height="70" viewBox="0 0 70 70" fill="none" xmlns="http://www.w3.org/2000/svg">
<g clip-path="url(#clip0_1266_1560)">
<path d="M30.5474 64.0137C14.3564 64.0137 1.27344 50.9307 1.27344 34.7467C1.27344 18.5557 14.3564 5.47266 30.5474 5.47266C46.7314 5.47266 59.8144 18.5557 59.8144 34.7467C59.8144 50.9307 46.7314 64.0137 30.5474 64.0137Z" fill="#C5D5F0"/>
<path d="M28.3144 64.0137C13.3624 64.0137 1.27344 50.9307 1.27344 34.7467C1.27344 18.5557 13.3624 5.47266 28.3144 5.47266C43.2734 5.47266 55.3624 18.5557 55.3624 34.7467C55.3624 50.9307 43.2734 64.0137 28.3144 64.0137Z" fill="#DCE6F6"/>
<path d="M23.5467 27.7467H21.3627C20.1097 27.7467 19.0877 26.7247 19.0877 25.4717V23.4417C19.0877 21.2507 17.3097 19.4727 15.1187 19.4727H5.72469C-0.638306 27.7467 -0.00130632 44.2877 7.63569 52.5617H17.4077C20.0957 52.5617 22.2727 50.3847 22.2727 47.6967V40.1997C22.2727 38.9467 23.2877 37.9247 24.5477 37.9247C26.8017 37.9247 28.6357 36.0977 28.6357 33.8367V32.8357C28.6357 30.0217 26.3537 27.7467 23.5467 27.7467Z" fill="#FFC960"/>
<path d="M34.3633 23.9664V45.5824C34.3633 50.7764 37.1353 55.6134 41.6013 58.2174L51.5483 64.0134L61.4883 58.2174C65.9543 55.6134 68.7263 50.7764 68.7263 45.5824V23.9664C61.9083 24.4424 56.1333 23.1404 51.5483 20.1094C46.9633 23.1404 41.1883 24.4424 34.3633 23.9664Z" fill="#74AAFF"/>
<path d="M66.0509 26.6147C60.5279 26.6147 55.6559 25.4317 51.5469 23.0938V61.0757L60.2059 56.0217C63.8879 53.8727 66.1839 49.8758 66.1839 45.5848V26.6077C66.1372 26.6077 66.0929 26.6101 66.0509 26.6147Z" fill="#4F88FF"/>
<path d="M59.6695 35.0712C57.7655 33.1742 54.6855 33.1742 52.7885 35.0712L51.8645 35.9952L50.9405 35.0712C49.0435 33.1742 45.9635 33.1742 44.0595 35.0712C42.1625 36.9752 42.1625 40.0552 44.0595 41.9522L51.8785 49.7642L59.6695 41.9522C61.5665 40.0552 61.5665 36.9752 59.6695 35.0712Z" fill="#FF5F5F"/>
<path d="M17.4098 53.1989H7.63784C7.28784 53.1989 7.00084 52.9119 7.00084 52.5619C7.00084 52.2119 7.28784 51.9249 7.63784 51.9249H17.4098C19.7408 51.9249 21.6378 50.0279 21.6378 47.6969V40.1999C21.6378 38.5969 22.9398 37.2879 24.5498 37.2879C26.4538 37.2879 28.0008 35.7409 28.0008 33.8369V32.8359C28.0008 30.3789 25.9988 28.3839 23.5488 28.3839H21.3648C19.7618 28.3839 18.4528 27.0749 18.4528 25.4719V23.4419C18.4528 21.6009 16.9618 20.1099 15.1208 20.1099H5.72684C5.37684 20.1099 5.08984 19.8229 5.08984 19.4729C5.08984 19.1229 5.37684 18.8359 5.72684 18.8359H15.1208C17.6618 18.8359 19.7268 20.9009 19.7268 23.4419V25.4719C19.7268 26.3749 20.4618 27.1099 21.3648 27.1099H23.5488C26.7058 27.1099 29.2748 29.6789 29.2748 32.8359V33.8369C29.2748 36.4409 27.1538 38.5619 24.5498 38.5619C23.6468 38.5619 22.9118 39.2969 22.9118 40.1999V47.6969C22.9118 50.7349 20.4408 53.1989 17.4098 53.1989Z" fill="#252D32"/>
<path d="M30.548 65.2882C13.706 65.2882 0 51.5892 0 34.7472C0 17.8982 13.706 4.19922 30.548 4.19922C42.455 4.19922 53.361 11.1992 58.324 22.0282C58.548 22.5112 58.338 23.0782 57.855 23.2952C57.379 23.5122 56.812 23.3022 56.595 22.8262C51.933 12.6692 41.713 6.11022 30.548 6.11022C14.756 6.11022 1.911 18.9552 1.911 34.7472C1.911 50.5322 14.756 63.3842 30.548 63.3842C35.315 63.3842 40.033 62.1872 44.198 59.9262C44.66 59.6742 45.234 59.8422 45.486 60.3112C45.738 60.7732 45.57 61.3542 45.108 61.6062C40.663 64.0142 35.63 65.2882 30.548 65.2882Z" fill="#252D32"/>
<path d="M51.5488 65.3164C51.3808 65.3164 51.2198 65.272 51.0658 65.1834L41.0628 59.3944C36.1488 56.5384 33.0898 51.2394 33.0898 45.5554V23.8904C33.0898 23.6244 33.2018 23.3654 33.4048 23.1834C33.6008 23.0084 33.8668 22.9174 34.1328 22.9384C40.9578 23.5544 46.6348 22.3224 51.0028 19.2774C51.3248 19.0534 51.7658 19.0534 52.0948 19.2774C56.4558 22.3224 62.1328 23.5544 68.9578 22.9384C69.2238 22.9174 69.4898 23.0084 69.6928 23.1834C69.8888 23.3654 70.0008 23.6244 70.0008 23.8904V45.5554C70.0008 51.2394 66.9418 56.5384 62.0278 59.3944L52.0248 65.1834C51.8755 65.272 51.7168 65.3164 51.5488 65.3164ZM35.0008 24.9194V45.5554C35.0008 50.5604 37.6888 55.2294 42.0218 57.7424L51.5488 63.2584L61.0688 57.7424C65.4018 55.2294 68.0898 50.5604 68.0898 45.5554V24.9194C61.5378 25.3464 55.9798 24.1004 51.5488 21.2164C47.1178 24.1004 41.5528 25.3464 35.0008 24.9194Z" fill="#252D32"/>
<path d="M51.8774 50.3997C51.7001 50.3997 51.5484 50.3367 51.4224 50.2107L43.6104 42.4057C41.4684 40.2567 41.4684 36.7707 43.6104 34.6217C44.6534 33.5857 46.0324 33.0117 47.5024 33.0117C48.9724 33.0117 50.3514 33.5857 51.3944 34.6217L51.8634 35.0977L52.3394 34.6217C53.3754 33.5857 54.7544 33.0117 56.2244 33.0117C57.6944 33.0117 59.0804 33.5857 60.1164 34.6217C62.2584 36.7707 62.2584 40.2567 60.1164 42.4057L52.3254 50.2107C52.1994 50.3367 52.0501 50.3997 51.8774 50.3997C51.8727 50.3997 51.8727 50.3997 51.8774 50.3997ZM47.5024 34.2857C46.3754 34.2857 45.3114 34.7267 44.5134 35.5247C42.8614 37.1697 42.8614 39.8507 44.5134 41.5027L51.8704 48.8597L59.2134 41.5027C60.8654 39.8507 60.8654 37.1697 59.2134 35.5247C58.4154 34.7267 57.3584 34.2857 56.2244 34.2857C55.0974 34.2857 54.0334 34.7267 53.2354 35.5247L52.3114 36.4417C52.0664 36.6937 51.6604 36.6937 51.4154 36.4417L50.4914 35.5247C49.6934 34.7267 48.6294 34.2857 47.5024 34.2857Z" fill="#252D32"/>
</g>
<defs>
<clipPath id="clip0_1266_1560">
<rect width="70" height="70" fill="white"/>
</clipPath>
</defs>
</svg>
