<svg width="26" height="26" viewBox="0 0 26 26" fill="none" xmlns="http://www.w3.org/2000/svg">
<g clip-path="url(#clip0_53_3170)">
<path d="M13.0018 0C5.83363 0 0 5.83363 0 13.0018C0 20.1699 5.83363 26.0035 13.0018 26.0035C20.1699 26.0035 26.0035 20.1699 26.0035 13.0018C26.0035 5.83363 20.1699 0 13.0018 0ZM23.0372 7.97876H19.8053C19.2071 5.58938 18.2619 3.86195 17.3416 2.64779C19.8124 3.6885 21.8372 5.59292 23.0336 7.97876H23.0372ZM18.6407 12.5805C18.6832 13.9257 18.577 15.1469 18.3717 16.2513H13.8832V9.75221H18.3611C18.5062 10.6088 18.6018 11.5504 18.6372 12.5841L18.6407 12.5805ZM13.9717 24.1841C13.9434 24.1841 13.915 24.1876 13.8867 24.1911V18.0248H17.9363C16.754 21.8018 14.4779 23.7805 13.9681 24.1841H13.9717ZM7.45487 12.5805C7.48673 11.5469 7.58584 10.6088 7.72743 9.74867H12.1133V16.2478H7.72743C7.51858 15.1434 7.40885 13.9221 7.45487 12.577V12.5805ZM12.1133 1.82301V7.97876H8.12035C9.26018 3.88319 11.4938 2.21947 12.1133 1.82301ZM12.1133 18.0248V24.1735C11.5965 23.7522 9.34867 21.7558 8.17345 18.0248H12.1133ZM13.8867 7.97876V1.81239C13.915 1.81239 13.9434 1.81593 13.9752 1.81947C14.5593 2.19115 16.8212 3.86549 17.9717 7.97876H13.8867ZM8.79646 2.59469C7.86195 3.81239 6.89912 5.55398 6.29381 7.97876H2.96637C4.18761 5.55044 6.26195 3.62124 8.8 2.59469H8.79646ZM2.25487 9.74867H5.93982C5.80885 10.6053 5.71681 11.5257 5.68496 12.5239C5.64248 13.8761 5.73451 15.115 5.92212 16.2513H2.25487C1.94336 15.2212 1.77345 14.131 1.77345 13.0018C1.77345 11.8726 1.94336 10.7823 2.25487 9.75221V9.74867ZM2.96283 18.0248H6.31504C6.98407 20.4354 8.06726 22.2513 9.04425 23.508C6.39646 22.5062 4.22301 20.5345 2.96283 18.0248ZM17.0973 23.4513C18.0637 22.1947 19.1257 20.3965 19.7841 18.0248H23.0372C21.7982 20.4885 19.6814 22.4354 17.0973 23.4513ZM23.7487 16.2513H20.177C20.3646 15.1186 20.4602 13.8761 20.4142 12.5239C20.3823 11.5257 20.2903 10.6053 20.1593 9.74867H23.7451C24.0566 10.7788 24.2265 11.869 24.2265 12.9982C24.2265 14.1274 24.0566 15.2177 23.7451 16.2478L23.7487 16.2513Z" fill="black"/>
</g>
<defs>
<clipPath id="clip0_53_3170">
<rect width="26" height="26" fill="white"/>
</clipPath>
</defs>
</svg>
