<svg width="50" height="50" viewBox="0 0 50 50" fill="none" xmlns="http://www.w3.org/2000/svg">
<g clip-path="url(#clip0_224_105)">
<path d="M48.3742 21.9728L41.6377 18.1048L43.6692 10.6125L39.3949 6.33815L31.9026 8.36155L28.0264 1.625H21.9806L18.1126 8.36155L10.6203 6.33815L6.34596 10.6125L8.36936 18.1048L1.63281 21.9728V28.0186L8.36936 31.8867L6.34596 39.3789L10.6203 43.6533L18.1126 41.6299L21.9806 48.3664H28.0264L31.9026 41.6299L39.3949 43.6533L43.6692 39.3789L41.6377 31.8867L48.3742 28.0186V21.9728ZM37.6315 24.9957C37.6153 31.9679 31.9757 37.6156 25.0035 37.6237C18.0232 37.6074 12.3837 31.9679 12.3674 24.9957C12.3837 18.0154 18.0232 12.3759 25.0035 12.3596C31.9757 12.3759 37.6234 18.0154 37.6315 24.9957Z" stroke="white" stroke-width="2" stroke-linecap="round" stroke-linejoin="round"/>
</g>
<defs>
<clipPath id="clip0_224_105">
<rect width="50" height="50" fill="white"/>
</clipPath>
</defs>
</svg>
